<svg width="64" height="64" viewBox="0 0 64 64" xmlns="http://www.w3.org/2000/svg" role="img" aria-label="ArchiAI Solution favicon">
  <defs>
    <linearGradient id="bg" x1="0" y1="0" x2="1" y2="1">
      <stop offset="0" stop-color="#0b1020" />
      <stop offset="1" stop-color="#161f3a" />
    </linearGradient>
  </defs>

  <rect x="0" y="0" width="64" height="64" rx="14" fill="url(#bg)" />
  <rect x="2" y="2" width="60" height="60" rx="13" fill="none" stroke="rgba(255, 255, 255, 0.14)" stroke-width="1.5" />

  <path d="M17 16 H45 a3 3 0 0 1 3 3 V45 a3 3 0 0 1 -3 3 H17 a3 3 0 0 1 -3 -3 V19 a3 3 0 0 1 3 -3 Z" stroke="rgba(255, 255, 255, 0.92)" stroke-width="2.4" fill="none" stroke-linecap="round" stroke-linejoin="round" />
  <path d="M48 16 Q52 12 56 16 L56 48 Q52 52 48 48 Z" fill="rgba(255, 255, 255, 0.1)" />
  <path d="M48 16 Q52 12 56 16" stroke="rgba(255, 255, 255, 0.92)" stroke-width="2.4" fill="none" stroke-linecap="round" stroke-linejoin="round" />

  <path d="M26 34 L32 28 L38 34" stroke="#60a5fa" stroke-width="2.6" fill="none" stroke-linecap="round" stroke-linejoin="round" />
  <path d="M27.5 34 V42.5 H36.5 V34" stroke="#60a5fa" stroke-width="2.6" fill="none" stroke-linecap="round" stroke-linejoin="round" />
  <path d="M31 42.5 V38.5 H33 V42.5" stroke="#60a5fa" stroke-width="2.2" fill="none" stroke-linecap="round" stroke-linejoin="round" />
</svg>
