<svg xmlns="http://www.w3.org/2000/svg" viewBox="0 0 1200 881.2904866594336" width="1200" height="881.2904866594336"><style><![CDATA[
    /* --- Text --- */
    .title {
      font-family: Arial, Helvetica, sans-serif;
      font-size: 16px;
      font-weight: bold;
      fill: #000000;
      text-anchor: middle;
    }
    .room-label {
      font-family: Arial, Helvetica, sans-serif;
      font-size: 10px;
      font-weight: bold;
      fill: #000000;
      text-anchor: middle;
    }
    .area-label {
      font-family: Arial, Helvetica, sans-serif;
      font-size: 9px;
      fill: #333333;
      text-anchor: middle;
    }

    /* --- Rooms --- */
    .room-fill {
      fill: #FFFFFF;
      stroke: none;
    }
    .circulation-fill {
      fill: #F5F5F5;
      stroke: none;
    }

    /* --- Walls --- */
    .wall-external-cut {
      fill: #1A1A1A;
      stroke: #000000;
      stroke-width: 3;
    }
    .wall-internal-fill {
      fill: #1A1A1A;
      stroke: #000000;
      stroke-width: 1.8;
    }
    .wall-poche line {
      stroke: #444444;
      stroke-width: 0.3;
    }

    /* --- Windows --- */
    .window {
      fill: #D6EAF8;
      stroke: #333333;
      stroke-width: 1.2;
    }
    .window-frame {
      fill: #333333;
      stroke: #000000;
      stroke-width: 0.8;
    }
    .window-glazing-bar {
      stroke: #333333;
      stroke-width: 0.5;
    }

    /* --- Doors --- */
    .door {
      fill: #6B4226;
      stroke: #000000;
      stroke-width: 1;
    }
    .door-opening {
      fill: #FFFFFF;
      stroke: none;
    }
    .door-swing {
      fill: none;
      stroke: #999999;
      stroke-width: 0.5;
      stroke-dasharray: 4 2;
    }

    /* --- Stairs --- */
    .stair-cut {
      fill: #F0F0F0;
      stroke: #000000;
      stroke-width: 1;
    }

    /* --- Elevation / Section backgrounds --- */
    .sky {
      fill: #E8F4FD;
    }
    .ground {
      fill: #D5E8D4;
    }
    .ground-line {
      stroke: #333333;
      stroke-width: 1.5;
    }

    /* --- Roof --- */
    .roof {
      fill: #C0C0C0;
      stroke: #222222;
      stroke-width: 2;
    }

    /* --- Slabs and Foundation --- */
    .slab-cut {
      fill: #D0D0D0;
      stroke: #000000;
      stroke-width: 1;
    }
    .foundation {
      fill: #C8B8A0;
      stroke: #000000;
      stroke-width: 1.2;
    }

    /* --- Hatching --- */
    .hatch {
      stroke: #666666;
      stroke-width: 0.3;
    }
    .hatch-slab {
      stroke: #666666;
      stroke-width: 0.24;
    }

    /* --- Dimensions --- */
    .dimension line {
      stroke: #333333;
      stroke-width: 0.5;
    }
    .dimension-text {
      font-family: Arial, Helvetica, sans-serif;
      font-size: 10px;
      fill: #333333;
      text-anchor: middle;
    }

    /* --- Level markers --- */
    .level-marker {
      stroke: #333333;
      stroke-width: 0.8;
    }
    .level-marker-dashed {
      stroke: #333333;
      stroke-width: 0.5;
      stroke-dasharray: 6 3;
    }
    .level-text {
      font-family: Arial, Helvetica, sans-serif;
      font-size: 9px;
      fill: #000000;
    }
  ]]></style><rect class="sky" x="0" y="0" width="1200" height="801.2904866594336"/><rect fill="#D5E8D4" x="0" y="801.2904866594336" width="1200" height="80"/><line stroke="#8BAA84" stroke-width="0.5" x1="0" y1="801.2904866594336" x2="2" y2="794.7152995261166"/><line stroke="#8BAA84" stroke-width="0.5" x1="12" y1="801.2904866594336" x2="14" y2="797.0628127469347"/><line stroke="#8BAA84" stroke-width="0.5" x1="24" y1="801.2904866594336" x2="26" y2="797.0764716972355"/><line stroke="#8BAA84" stroke-width="0.5" x1="36" y1="801.2904866594336" x2="38" y2="794.6524385247651"/><line stroke="#8BAA84" stroke-width="0.5" x1="48" y1="801.2904866594336" x2="50" y2="795.2427464860688"/><line stroke="#8BAA84" stroke-width="0.5" x1="60" y1="801.2904866594336" x2="62" y2="796.6227314106554"/><line stroke="#8BAA84" stroke-width="0.5" x1="72" y1="801.2904866594336" x2="74" y2="797.0045274231106"/><line stroke="#8BAA84" stroke-width="0.5" x1="84" y1="801.2904866594336" x2="86" y2="796.3570777968915"/><line stroke="#8BAA84" stroke-width="0.5" x1="96" y1="801.2904866594336" x2="98" y2="794.4586733895737"/><line stroke="#8BAA84" stroke-width="0.5" x1="108" y1="801.2904866594336" x2="110" y2="794.6578928358606"/><line stroke="#8BAA84" stroke-width="0.5" x1="120" y1="801.2904866594336" x2="122" y2="794.8991059837406"/><line stroke="#8BAA84" stroke-width="0.5" x1="132" y1="801.2904866594336" x2="134" y2="794.8280543105043"/><line stroke="#8BAA84" stroke-width="0.5" x1="144" y1="801.2904866594336" x2="146" y2="796.5216656777037"/><line stroke="#8BAA84" stroke-width="0.5" x1="156" y1="801.2904866594336" x2="158" y2="795.6581438350397"/><line stroke="#8BAA84" stroke-width="0.5" x1="168" y1="801.2904866594336" x2="170" y2="798.0932306497305"/><line stroke="#8BAA84" stroke-width="0.5" x1="180" y1="801.2904866594336" x2="182" y2="797.4694061826067"/><line stroke="#8BAA84" stroke-width="0.5" x1="192" y1="801.2904866594336" x2="194" y2="797.1354666870145"/><line stroke="#8BAA84" stroke-width="0.5" x1="204" y1="801.2904866594336" x2="206" y2="797.0131866949224"/><line stroke="#8BAA84" stroke-width="0.5" x1="216" y1="801.2904866594336" x2="218" y2="794.4106854455016"/><line stroke="#8BAA84" stroke-width="0.5" x1="228" y1="801.2904866594336" x2="230" y2="797.0956944380838"/><line stroke="#8BAA84" stroke-width="0.5" x1="240" y1="801.2904866594336" x2="242" y2="796.8086680226736"/><line stroke="#8BAA84" stroke-width="0.5" x1="252" y1="801.2904866594336" x2="254" y2="794.3592952574568"/><line stroke="#8BAA84" stroke-width="0.5" x1="264" y1="801.2904866594336" x2="266" y2="795.3274114520187"/><line stroke="#8BAA84" stroke-width="0.5" x1="276" y1="801.2904866594336" x2="278" y2="796.2908856645458"/><line stroke="#8BAA84" stroke-width="0.5" x1="288" y1="801.2904866594336" x2="290" y2="798.062170924615"/><line stroke="#8BAA84" stroke-width="0.5" x1="300" y1="801.2904866594336" x2="302" y2="798.1341949447581"/><line stroke="#8BAA84" stroke-width="0.5" x1="312" y1="801.2904866594336" x2="314" y2="795.7611456071714"/><line stroke="#8BAA84" stroke-width="0.5" x1="324" y1="801.2904866594336" x2="326" y2="796.7523259598867"/><line stroke="#8BAA84" stroke-width="0.5" x1="336" y1="801.2904866594336" x2="338" y2="797.6706851898556"/><line stroke="#8BAA84" stroke-width="0.5" x1="348" y1="801.2904866594336" x2="350" y2="796.9314654369674"/><line stroke="#8BAA84" stroke-width="0.5" x1="360" y1="801.2904866594336" x2="362" y2="795.1304669125894"/><line stroke="#8BAA84" stroke-width="0.5" x1="372" y1="801.2904866594336" x2="374" y2="797.1013612093595"/><line stroke="#8BAA84" stroke-width="0.5" x1="384" y1="801.2904866594336" x2="386" y2="795.1082651023133"/><line stroke="#8BAA84" stroke-width="0.5" x1="396" y1="801.2904866594336" x2="398" y2="796.5483983847728"/><line stroke="#8BAA84" stroke-width="0.5" x1="408" y1="801.2904866594336" x2="410" y2="795.5208447430034"/><line stroke="#8BAA84" stroke-width="0.5" x1="420" y1="801.2904866594336" x2="422" y2="796.0059387120143"/><line stroke="#8BAA84" stroke-width="0.5" x1="432" y1="801.2904866594336" x2="434" y2="797.9422232965582"/><line stroke="#8BAA84" stroke-width="0.5" x1="444" y1="801.2904866594336" x2="446" y2="797.143458784898"/><line stroke="#8BAA84" stroke-width="0.5" x1="456" y1="801.2904866594336" x2="458" y2="797.1750924987899"/><line stroke="#8BAA84" stroke-width="0.5" x1="468" y1="801.2904866594336" x2="470" y2="794.4793156085495"/><line stroke="#8BAA84" stroke-width="0.5" x1="480" y1="801.2904866594336" x2="482" y2="798.1434402165785"/><line stroke="#8BAA84" stroke-width="0.5" x1="492" y1="801.2904866594336" x2="494" y2="794.4429124016917"/><line stroke="#8BAA84" stroke-width="0.5" x1="504" y1="801.2904866594336" x2="506" y2="797.9594100776478"/><line stroke="#8BAA84" stroke-width="0.5" x1="516" y1="801.2904866594336" x2="518" y2="794.4793613494705"/><line stroke="#8BAA84" stroke-width="0.5" x1="528" y1="801.2904866594336" x2="530" y2="797.8665159638847"/><line stroke="#8BAA84" stroke-width="0.5" x1="540" y1="801.2904866594336" x2="542" y2="794.9132130087238"/><line stroke="#8BAA84" stroke-width="0.5" x1="552" y1="801.2904866594336" x2="554" y2="796.7448754531351"/><line stroke="#8BAA84" stroke-width="0.5" x1="564" y1="801.2904866594336" x2="566" y2="795.1508809246953"/><line stroke="#8BAA84" stroke-width="0.5" x1="576" y1="801.2904866594336" x2="578" y2="797.4727845479845"/><line stroke="#8BAA84" stroke-width="0.5" x1="588" y1="801.2904866594336" x2="590" y2="797.8473714830191"/><line stroke="#8BAA84" stroke-width="0.5" x1="600" y1="801.2904866594336" x2="602" y2="794.4092268298682"/><line stroke="#8BAA84" stroke-width="0.5" x1="612" y1="801.2904866594336" x2="614" y2="797.3859390833878"/><line stroke="#8BAA84" stroke-width="0.5" x1="624" y1="801.2904866594336" x2="626" y2="798.1856594205595"/><line stroke="#8BAA84" stroke-width="0.5" x1="636" y1="801.2904866594336" x2="638" y2="795.4668384229171"/><line stroke="#8BAA84" stroke-width="0.5" x1="648" y1="801.2904866594336" x2="650" y2="797.5494342154651"/><line stroke="#8BAA84" stroke-width="0.5" x1="660" y1="801.2904866594336" x2="662" y2="796.5169323746503"/><line stroke="#8BAA84" stroke-width="0.5" x1="672" y1="801.2904866594336" x2="674" y2="795.7469843358414"/><line stroke="#8BAA84" stroke-width="0.5" x1="684" y1="801.2904866594336" x2="686" y2="794.4242007910368"/><line stroke="#8BAA84" stroke-width="0.5" x1="696" y1="801.2904866594336" x2="698" y2="795.452289487537"/><line stroke="#8BAA84" stroke-width="0.5" x1="708" y1="801.2904866594336" x2="710" y2="797.7829863039598"/><line stroke="#8BAA84" stroke-width="0.5" x1="720" y1="801.2904866594336" x2="722" y2="797.0250682395631"/><line stroke="#8BAA84" stroke-width="0.5" x1="732" y1="801.2904866594336" x2="734" y2="797.9538246555642"/><line stroke="#8BAA84" stroke-width="0.5" x1="744" y1="801.2904866594336" x2="746" y2="796.8841574458635"/><line stroke="#8BAA84" stroke-width="0.5" x1="756" y1="801.2904866594336" x2="758" y2="794.4862794593467"/><line stroke="#8BAA84" stroke-width="0.5" x1="768" y1="801.2904866594336" x2="770" y2="796.3624800958847"/><line stroke="#8BAA84" stroke-width="0.5" x1="780" y1="801.2904866594336" x2="782" y2="798.1050949879335"/><line stroke="#8BAA84" stroke-width="0.5" x1="792" y1="801.2904866594336" x2="794" y2="797.5292560714654"/><line stroke="#8BAA84" stroke-width="0.5" x1="804" y1="801.2904866594336" x2="806" y2="794.9299834991037"/><line stroke="#8BAA84" stroke-width="0.5" x1="816" y1="801.2904866594336" x2="818" y2="795.0764510700052"/><line stroke="#8BAA84" stroke-width="0.5" x1="828" y1="801.2904866594336" x2="830" y2="797.4810807785844"/><line stroke="#8BAA84" stroke-width="0.5" x1="840" y1="801.2904866594336" x2="842" y2="797.960353259747"/><line stroke="#8BAA84" stroke-width="0.5" x1="852" y1="801.2904866594336" x2="854" y2="794.5192488842863"/><line stroke="#8BAA84" stroke-width="0.5" x1="864" y1="801.2904866594336" x2="866" y2="796.8847183888039"/><line stroke="#8BAA84" stroke-width="0.5" x1="876" y1="801.2904866594336" x2="878" y2="798.258936887831"/><line stroke="#8BAA84" stroke-width="0.5" x1="888" y1="801.2904866594336" x2="890" y2="797.0257394960563"/><line stroke="#8BAA84" stroke-width="0.5" x1="900" y1="801.2904866594336" x2="902" y2="797.8295366136641"/><line stroke="#8BAA84" stroke-width="0.5" x1="912" y1="801.2904866594336" x2="914" y2="797.0528815602938"/><line stroke="#8BAA84" stroke-width="0.5" x1="924" y1="801.2904866594336" x2="926" y2="797.2617500319901"/><line stroke="#8BAA84" stroke-width="0.5" x1="936" y1="801.2904866594336" x2="938" y2="798.1258481319153"/><line stroke="#8BAA84" stroke-width="0.5" x1="948" y1="801.2904866594336" x2="950" y2="795.3616450980224"/><line stroke="#8BAA84" stroke-width="0.5" x1="960" y1="801.2904866594336" x2="962" y2="794.3392125976641"/><line stroke="#8BAA84" stroke-width="0.5" x1="972" y1="801.2904866594336" x2="974" y2="795.398794977484"/><line stroke="#8BAA84" stroke-width="0.5" x1="984" y1="801.2904866594336" x2="986" y2="797.1112096891479"/><line stroke="#8BAA84" stroke-width="0.5" x1="996" y1="801.2904866594336" x2="998" y2="797.2358460364532"/><line stroke="#8BAA84" stroke-width="0.5" x1="1008" y1="801.2904866594336" x2="1010" y2="795.9157743710743"/><line stroke="#8BAA84" stroke-width="0.5" x1="1020" y1="801.2904866594336" x2="1022" y2="794.7072989864915"/><line stroke="#8BAA84" stroke-width="0.5" x1="1032" y1="801.2904866594336" x2="1034" y2="796.518526870698"/><line stroke="#8BAA84" stroke-width="0.5" x1="1044" y1="801.2904866594336" x2="1046" y2="796.6499718147887"/><line stroke="#8BAA84" stroke-width="0.5" x1="1056" y1="801.2904866594336" x2="1058" y2="796.8347560932368"/><line stroke="#8BAA84" stroke-width="0.5" x1="1068" y1="801.2904866594336" x2="1070" y2="796.9133554693522"/><line stroke="#8BAA84" stroke-width="0.5" x1="1080" y1="801.2904866594336" x2="1082" y2="795.6821789925399"/><line stroke="#8BAA84" stroke-width="0.5" x1="1092" y1="801.2904866594336" x2="1094" y2="795.3847343447437"/><line stroke="#8BAA84" stroke-width="0.5" x1="1104" y1="801.2904866594336" x2="1106" y2="797.7480442227674"/><line stroke="#8BAA84" stroke-width="0.5" x1="1116" y1="801.2904866594336" x2="1118" y2="795.611717458044"/><line stroke="#8BAA84" stroke-width="0.5" x1="1128" y1="801.2904866594336" x2="1130" y2="796.5236066373964"/><line stroke="#8BAA84" stroke-width="0.5" x1="1140" y1="801.2904866594336" x2="1142" y2="796.2165600338994"/><line stroke="#8BAA84" stroke-width="0.5" x1="1152" y1="801.2904866594336" x2="1154" y2="796.1470414125663"/><line stroke="#8BAA84" stroke-width="0.5" x1="1164" y1="801.2904866594336" x2="1166" y2="797.380269747112"/><line stroke="#8BAA84" stroke-width="0.5" x1="1176" y1="801.2904866594336" x2="1178" y2="794.6010767488353"/><line stroke="#8BAA84" stroke-width="0.5" x1="1188" y1="801.2904866594336" x2="1190" y2="796.2547265769673"/><line class="ground-line" x1="0" y1="801.2904866594336" x2="1200" y2="801.2904866594336" stroke="#333" stroke-width="1.5"/><text class="title" x="600" y="30">North Elevation</text><defs><pattern id="mat-brick" patternUnits="userSpaceOnUse" width="20" height="8">
        <rect width="20" height="8" fill="#C4956A"/>
        <line x1="0" y1="4" x2="20" y2="4" stroke="rgba(0,0,0,0.25)" stroke-width="0.6"/>
        <line x1="10" y1="0" x2="10" y2="4" stroke="rgba(0,0,0,0.18)" stroke-width="0.5"/>
        <line x1="0" y1="0" x2="0" y2="4" stroke="rgba(0,0,0,0.18)" stroke-width="0.5"/>
      </pattern></defs><rect fill="url(#mat-brick)" stroke="#333" stroke-width="1.5" x="164" y="345.29048665943355" width="872" height="456"/><line stroke="#555" stroke-width="2.5" x1="164" y1="801.2904866594336" x2="1036" y2="801.2904866594336"/><line stroke="rgba(0,0,0,0.08)" stroke-width="6" x1="167" y1="804.2904866594336" x2="1039" y2="804.2904866594336"/><line stroke="#666" stroke-width="0.8" stroke-dasharray="6 3" x1="164" y1="789.2904866594336" x2="1036" y2="789.2904866594336"/><text x="159" y="792.2904866594336" text-anchor="end" font-family="Arial" font-size="7" fill="#888">DPC</text><path class="roof" d="M 140 345.29048665943355 L 600 40 L 1060 345.29048665943355 Z"/><rect fill="#8B7D6B" stroke="#555" stroke-width="0.8" x="140" y="345.29048665943355" width="920" height="12"/><line stroke="#666" stroke-width="0.5" x1="140" y1="357.29048665943355" x2="1060" y2="357.29048665943355"/><g id="elevation-openings"><rect class="window" x="850.6666666666666" y="625.2904866594336" width="80" height="96"/><line class="window-glazing-bar" x1="877.3333333333333" y1="625.2904866594336" x2="877.3333333333333" y2="721.2904866594336"/><line class="window-glazing-bar" x1="904" y1="625.2904866594336" x2="904" y2="721.2904866594336"/><line class="window-glazing-bar" x1="850.6666666666666" y1="657.2904866594336" x2="930.6666666666666" y2="657.2904866594336"/><line class="window-glazing-bar" x1="850.6666666666666" y1="689.2904866594336" x2="930.6666666666666" y2="689.2904866594336"/><line stroke="#333" stroke-width="2" x1="845.6666666666666" y1="721.2904866594336" x2="935.6666666666666" y2="721.2904866594336"/><line stroke="#555" stroke-width="1.5" x1="847.6666666666666" y1="625.2904866594336" x2="933.6666666666666" y2="625.2904866594336"/><line stroke="#888" stroke-width="0.5" x1="847.6666666666666" y1="622.2904866594336" x2="933.6666666666666" y2="622.2904866594336"/><line stroke="rgba(0,0,0,0.2)" stroke-width="1.5" x1="852.6666666666666" y1="721.2904866594336" x2="932.6666666666666" y2="721.2904866594336"/><line stroke="rgba(0,0,0,0.15)" stroke-width="1" x1="930.6666666666666" y1="627.2904866594336" x2="930.6666666666666" y2="723.2904866594336"/><rect class="window" x="560" y="625.2904866594336" width="80" height="96"/><line class="window-glazing-bar" x1="586.6666666666666" y1="625.2904866594336" x2="586.6666666666666" y2="721.2904866594336"/><line class="window-glazing-bar" x1="613.3333333333334" y1="625.2904866594336" x2="613.3333333333334" y2="721.2904866594336"/><line class="window-glazing-bar" x1="560" y1="657.2904866594336" x2="640" y2="657.2904866594336"/><line class="window-glazing-bar" x1="560" y1="689.2904866594336" x2="640" y2="689.2904866594336"/><line stroke="#333" stroke-width="2" x1="555" y1="721.2904866594336" x2="645" y2="721.2904866594336"/><line stroke="#555" stroke-width="1.5" x1="557" y1="625.2904866594336" x2="643" y2="625.2904866594336"/><line stroke="#888" stroke-width="0.5" x1="557" y1="622.2904866594336" x2="643" y2="622.2904866594336"/><line stroke="rgba(0,0,0,0.2)" stroke-width="1.5" x1="562" y1="721.2904866594336" x2="642" y2="721.2904866594336"/><line stroke="rgba(0,0,0,0.15)" stroke-width="1" x1="640" y1="627.2904866594336" x2="640" y2="723.2904866594336"/><rect class="window" x="281.33333333333326" y="654.0904866594335" width="56" height="67.2"/><line class="window-glazing-bar" x1="309.33333333333326" y1="654.0904866594335" x2="309.33333333333326" y2="721.2904866594336"/><line class="window-glazing-bar" x1="281.33333333333326" y1="687.6904866594335" x2="337.33333333333326" y2="687.6904866594335"/><line stroke="#333" stroke-width="2" x1="276.33333333333326" y1="721.2904866594336" x2="342.33333333333326" y2="721.2904866594336"/><line stroke="#555" stroke-width="1.5" x1="278.33333333333326" y1="654.0904866594335" x2="340.33333333333326" y2="654.0904866594335"/><line stroke="#888" stroke-width="0.5" x1="278.33333333333326" y1="651.0904866594335" x2="340.33333333333326" y2="651.0904866594335"/><line stroke="rgba(0,0,0,0.2)" stroke-width="1.5" x1="283.33333333333326" y1="721.2904866594336" x2="339.33333333333326" y2="721.2904866594336"/><line stroke="rgba(0,0,0,0.15)" stroke-width="1" x1="337.33333333333326" y1="656.0904866594335" x2="337.33333333333326" y2="723.2904866594336"/><rect class="window" x="850.6666666666666" y="385.29048665943355" width="80" height="96"/><line class="window-glazing-bar" x1="877.3333333333333" y1="385.29048665943355" x2="877.3333333333333" y2="481.29048665943355"/><line class="window-glazing-bar" x1="904" y1="385.29048665943355" x2="904" y2="481.29048665943355"/><line class="window-glazing-bar" x1="850.6666666666666" y1="417.29048665943355" x2="930.6666666666666" y2="417.29048665943355"/><line class="window-glazing-bar" x1="850.6666666666666" y1="449.29048665943355" x2="930.6666666666666" y2="449.29048665943355"/><line stroke="#333" stroke-width="2" x1="845.6666666666666" y1="481.29048665943355" x2="935.6666666666666" y2="481.29048665943355"/><line stroke="#555" stroke-width="1.5" x1="847.6666666666666" y1="385.29048665943355" x2="933.6666666666666" y2="385.29048665943355"/><line stroke="#888" stroke-width="0.5" x1="847.6666666666666" y1="382.29048665943355" x2="933.6666666666666" y2="382.29048665943355"/><line stroke="rgba(0,0,0,0.2)" stroke-width="1.5" x1="852.6666666666666" y1="481.29048665943355" x2="932.6666666666666" y2="481.29048665943355"/><line stroke="rgba(0,0,0,0.15)" stroke-width="1" x1="930.6666666666666" y1="387.29048665943355" x2="930.6666666666666" y2="483.29048665943355"/><rect class="window" x="560" y="385.29048665943355" width="80" height="96"/><line class="window-glazing-bar" x1="586.6666666666666" y1="385.29048665943355" x2="586.6666666666666" y2="481.29048665943355"/><line class="window-glazing-bar" x1="613.3333333333334" y1="385.29048665943355" x2="613.3333333333334" y2="481.29048665943355"/><line class="window-glazing-bar" x1="560" y1="417.29048665943355" x2="640" y2="417.29048665943355"/><line class="window-glazing-bar" x1="560" y1="449.29048665943355" x2="640" y2="449.29048665943355"/><line stroke="#333" stroke-width="2" x1="555" y1="481.29048665943355" x2="645" y2="481.29048665943355"/><line stroke="#555" stroke-width="1.5" x1="557" y1="385.29048665943355" x2="643" y2="385.29048665943355"/><line stroke="#888" stroke-width="0.5" x1="557" y1="382.29048665943355" x2="643" y2="382.29048665943355"/><line stroke="rgba(0,0,0,0.2)" stroke-width="1.5" x1="562" y1="481.29048665943355" x2="642" y2="481.29048665943355"/><line stroke="rgba(0,0,0,0.15)" stroke-width="1" x1="640" y1="387.29048665943355" x2="640" y2="483.29048665943355"/><rect class="window" x="269.33333333333326" y="385.29048665943355" width="80" height="96"/><line class="window-glazing-bar" x1="295.99999999999994" y1="385.29048665943355" x2="295.99999999999994" y2="481.29048665943355"/><line class="window-glazing-bar" x1="322.6666666666666" y1="385.29048665943355" x2="322.6666666666666" y2="481.29048665943355"/><line class="window-glazing-bar" x1="269.33333333333326" y1="417.29048665943355" x2="349.33333333333326" y2="417.29048665943355"/><line class="window-glazing-bar" x1="269.33333333333326" y1="449.29048665943355" x2="349.33333333333326" y2="449.29048665943355"/><line stroke="#333" stroke-width="2" x1="264.33333333333326" y1="481.29048665943355" x2="354.33333333333326" y2="481.29048665943355"/><line stroke="#555" stroke-width="1.5" x1="266.33333333333326" y1="385.29048665943355" x2="352.33333333333326" y2="385.29048665943355"/><line stroke="#888" stroke-width="0.5" x1="266.33333333333326" y1="382.29048665943355" x2="352.33333333333326" y2="382.29048665943355"/><line stroke="rgba(0,0,0,0.2)" stroke-width="1.5" x1="271.33333333333326" y1="481.29048665943355" x2="351.33333333333326" y2="481.29048665943355"/><line stroke="rgba(0,0,0,0.15)" stroke-width="1" x1="349.33333333333326" y1="387.29048665943355" x2="349.33333333333326" y2="483.29048665943355"/></g><g id="level-markers"><g id="ground-level"><polygon fill="#333" points="114,801.2904866594336 106,805.2904866594336 106,797.2904866594336"/><line class="level-marker" x1="106" y1="801.2904866594336" x2="76" y2="801.2904866594336"/><text class="level-text" x="72" y="805.2904866594336" text-anchor="end">±0.00</text></g><g id="floor-0-level"><polygon fill="#333" points="114,561.2904866594336 106,565.2904866594336 106,557.2904866594336"/><line class="level-marker" x1="106" y1="561.2904866594336" x2="76" y2="561.2904866594336"/><text class="level-text" x="72" y="565.2904866594336" text-anchor="end">+3.00</text></g><line class="level-marker-dashed" x1="164" y1="561.2904866594336" x2="1036" y2="561.2904866594336"/><g id="floor-1-level"><polygon fill="#333" points="114,345.29048665943355 106,349.29048665943355 106,341.29048665943355"/><line class="level-marker" x1="106" y1="345.29048665943355" x2="76" y2="345.29048665943355"/><text class="level-text" x="72" y="349.29048665943355" text-anchor="end">+5.70</text></g><line class="level-marker-dashed" x1="164" y1="345.29048665943355" x2="1036" y2="345.29048665943355"/><g id="ridge-level"><polygon fill="#333" points="114,40 106,44 106,36"/><line class="level-marker-dashed" x1="106" y1="40" x2="76" y2="40"/><text class="level-text" x="72" y="44" text-anchor="end">+9.52</text></g></g><g id="elevation-dimensions"><g class="dimension" id="elev-dim-height"><line stroke="#999" stroke-width="0.3" x1="1064" y1="801.2904866594336" x2="1074" y2="801.2904866594336"/><line stroke="#999" stroke-width="0.3" x1="1064" y1="345.29048665943355" x2="1074" y2="345.29048665943355"/><line x1="1076" y1="801.2904866594336" x2="1076" y2="345.29048665943355"/><polygon fill="#444" points="1076,801.2904866594336 1073,807.2904866594336 1079,807.2904866594336"/><polygon fill="#444" points="1076,345.29048665943355 1073,339.29048665943355 1079,339.29048665943355"/><text class="dimension-text" x="1091" y="573.2904866594336" transform="rotate(-90, 1091, 573.2904866594336)">5.70 m</text></g><g class="dimension" id="elev-dim-width"><line stroke="#999" stroke-width="0.3" x1="164" y1="843.2904866594336" x2="164" y2="833.2904866594336"/><line stroke="#999" stroke-width="0.3" x1="1036" y1="843.2904866594336" x2="1036" y2="833.2904866594336"/><line x1="164" y1="831.2904866594336" x2="1036" y2="831.2904866594336"/><polygon fill="#444" points="164,831.2904866594336 170,828.2904866594336 170,834.2904866594336"/><polygon fill="#444" points="1036,831.2904866594336 1030,828.2904866594336 1030,834.2904866594336"/><text class="dimension-text" x="600" y="823.2904866594336">10.90 m</text></g></g><g id="title-block"><rect x="1010" y="831.2904866594336" width="180" height="40" fill="#ffffff" stroke="#333" stroke-width="1"/><line x1="1010" y1="851.2904866594336" x2="1190" y2="851.2904866594336" stroke="#333" stroke-width="0.5"/><text x="1015" y="845.2904866594336" font-family="Arial, sans-serif" font-size="9" font-weight="700" fill="#333">North Elevation</text><text x="1015" y="864.2904866594336" font-family="Arial, sans-serif" font-size="7" fill="#666">Dwg: A-200</text><text x="1185" y="864.2904866594336" font-family="Arial, sans-serif" font-size="7" fill="#666" text-anchor="end">Scale 1:12.5</text></g></svg>