<svg xmlns="http://www.w3.org/2000/svg" viewBox="0 0 1200 881.2904866594336" width="1200" height="881.2904866594336"><style><![CDATA[
    /* --- Text --- */
    .title {
      font-family: Arial, Helvetica, sans-serif;
      font-size: 16px;
      font-weight: bold;
      fill: #000000;
      text-anchor: middle;
    }
    .room-label {
      font-family: Arial, Helvetica, sans-serif;
      font-size: 10px;
      font-weight: bold;
      fill: #000000;
      text-anchor: middle;
    }
    .area-label {
      font-family: Arial, Helvetica, sans-serif;
      font-size: 9px;
      fill: #333333;
      text-anchor: middle;
    }

    /* --- Rooms --- */
    .room-fill {
      fill: #FFFFFF;
      stroke: none;
    }
    .circulation-fill {
      fill: #F5F5F5;
      stroke: none;
    }

    /* --- Walls --- */
    .wall-external-cut {
      fill: #1A1A1A;
      stroke: #000000;
      stroke-width: 3;
    }
    .wall-internal-fill {
      fill: #1A1A1A;
      stroke: #000000;
      stroke-width: 1.8;
    }
    .wall-poche line {
      stroke: #444444;
      stroke-width: 0.3;
    }

    /* --- Windows --- */
    .window {
      fill: #D6EAF8;
      stroke: #333333;
      stroke-width: 1.2;
    }
    .window-frame {
      fill: #333333;
      stroke: #000000;
      stroke-width: 0.8;
    }
    .window-glazing-bar {
      stroke: #333333;
      stroke-width: 0.5;
    }

    /* --- Doors --- */
    .door {
      fill: #6B4226;
      stroke: #000000;
      stroke-width: 1;
    }
    .door-opening {
      fill: #FFFFFF;
      stroke: none;
    }
    .door-swing {
      fill: none;
      stroke: #999999;
      stroke-width: 0.5;
      stroke-dasharray: 4 2;
    }

    /* --- Stairs --- */
    .stair-cut {
      fill: #F0F0F0;
      stroke: #000000;
      stroke-width: 1;
    }

    /* --- Elevation / Section backgrounds --- */
    .sky {
      fill: #E8F4FD;
    }
    .ground {
      fill: #D5E8D4;
    }
    .ground-line {
      stroke: #333333;
      stroke-width: 1.5;
    }

    /* --- Roof --- */
    .roof {
      fill: #C0C0C0;
      stroke: #222222;
      stroke-width: 2;
    }

    /* --- Slabs and Foundation --- */
    .slab-cut {
      fill: #D0D0D0;
      stroke: #000000;
      stroke-width: 1;
    }
    .foundation {
      fill: #C8B8A0;
      stroke: #000000;
      stroke-width: 1.2;
    }

    /* --- Hatching --- */
    .hatch {
      stroke: #666666;
      stroke-width: 0.3;
    }
    .hatch-slab {
      stroke: #666666;
      stroke-width: 0.24;
    }

    /* --- Dimensions --- */
    .dimension line {
      stroke: #333333;
      stroke-width: 0.5;
    }
    .dimension-text {
      font-family: Arial, Helvetica, sans-serif;
      font-size: 10px;
      fill: #333333;
      text-anchor: middle;
    }

    /* --- Level markers --- */
    .level-marker {
      stroke: #333333;
      stroke-width: 0.8;
    }
    .level-marker-dashed {
      stroke: #333333;
      stroke-width: 0.5;
      stroke-dasharray: 6 3;
    }
    .level-text {
      font-family: Arial, Helvetica, sans-serif;
      font-size: 9px;
      fill: #000000;
    }
  ]]></style><rect class="sky" x="0" y="0" width="1200" height="801.2904866594336"/><rect fill="#D5E8D4" x="0" y="801.2904866594336" width="1200" height="80"/><line stroke="#8BAA84" stroke-width="0.5" x1="0" y1="801.2904866594336" x2="2" y2="796.4395649836154"/><line stroke="#8BAA84" stroke-width="0.5" x1="12" y1="801.2904866594336" x2="14" y2="794.7022960710832"/><line stroke="#8BAA84" stroke-width="0.5" x1="24" y1="801.2904866594336" x2="26" y2="797.1101345222733"/><line stroke="#8BAA84" stroke-width="0.5" x1="36" y1="801.2904866594336" x2="38" y2="796.5085605711271"/><line stroke="#8BAA84" stroke-width="0.5" x1="48" y1="801.2904866594336" x2="50" y2="796.92452204015"/><line stroke="#8BAA84" stroke-width="0.5" x1="60" y1="801.2904866594336" x2="62" y2="797.3377015966364"/><line stroke="#8BAA84" stroke-width="0.5" x1="72" y1="801.2904866594336" x2="74" y2="795.2877454795588"/><line stroke="#8BAA84" stroke-width="0.5" x1="84" y1="801.2904866594336" x2="86" y2="794.923164133807"/><line stroke="#8BAA84" stroke-width="0.5" x1="96" y1="801.2904866594336" x2="98" y2="794.7335480334872"/><line stroke="#8BAA84" stroke-width="0.5" x1="108" y1="801.2904866594336" x2="110" y2="796.4301163750905"/><line stroke="#8BAA84" stroke-width="0.5" x1="120" y1="801.2904866594336" x2="122" y2="794.825532146387"/><line stroke="#8BAA84" stroke-width="0.5" x1="132" y1="801.2904866594336" x2="134" y2="797.53872684198"/><line stroke="#8BAA84" stroke-width="0.5" x1="144" y1="801.2904866594336" x2="146" y2="797.1744542179349"/><line stroke="#8BAA84" stroke-width="0.5" x1="156" y1="801.2904866594336" x2="158" y2="795.6312717507003"/><line stroke="#8BAA84" stroke-width="0.5" x1="168" y1="801.2904866594336" x2="170" y2="795.7841884503966"/><line stroke="#8BAA84" stroke-width="0.5" x1="180" y1="801.2904866594336" x2="182" y2="795.8345335463996"/><line stroke="#8BAA84" stroke-width="0.5" x1="192" y1="801.2904866594336" x2="194" y2="794.5259200384121"/><line stroke="#8BAA84" stroke-width="0.5" x1="204" y1="801.2904866594336" x2="206" y2="796.6965382732639"/><line stroke="#8BAA84" stroke-width="0.5" x1="216" y1="801.2904866594336" x2="218" y2="796.7253225948668"/><line stroke="#8BAA84" stroke-width="0.5" x1="228" y1="801.2904866594336" x2="230" y2="797.8311126501619"/><line stroke="#8BAA84" stroke-width="0.5" x1="240" y1="801.2904866594336" x2="242" y2="794.4762373575126"/><line stroke="#8BAA84" stroke-width="0.5" x1="252" y1="801.2904866594336" x2="254" y2="796.4317469861633"/><line stroke="#8BAA84" stroke-width="0.5" x1="264" y1="801.2904866594336" x2="266" y2="795.3340570589554"/><line stroke="#8BAA84" stroke-width="0.5" x1="276" y1="801.2904866594336" x2="278" y2="794.794224548656"/><line stroke="#8BAA84" stroke-width="0.5" x1="288" y1="801.2904866594336" x2="290" y2="797.2425725681264"/><line stroke="#8BAA84" stroke-width="0.5" x1="300" y1="801.2904866594336" x2="302" y2="796.9248146453283"/><line stroke="#8BAA84" stroke-width="0.5" x1="312" y1="801.2904866594336" x2="314" y2="796.4930745480175"/><line stroke="#8BAA84" stroke-width="0.5" x1="324" y1="801.2904866594336" x2="326" y2="796.8403078115502"/><line stroke="#8BAA84" stroke-width="0.5" x1="336" y1="801.2904866594336" x2="338" y2="796.8963976926643"/><line stroke="#8BAA84" stroke-width="0.5" x1="348" y1="801.2904866594336" x2="350" y2="798.1550987370489"/><line stroke="#8BAA84" stroke-width="0.5" x1="360" y1="801.2904866594336" x2="362" y2="798.1510841032504"/><line stroke="#8BAA84" stroke-width="0.5" x1="372" y1="801.2904866594336" x2="374" y2="795.5671133990085"/><line stroke="#8BAA84" stroke-width="0.5" x1="384" y1="801.2904866594336" x2="386" y2="797.8818673812738"/><line stroke="#8BAA84" stroke-width="0.5" x1="396" y1="801.2904866594336" x2="398" y2="797.9567857022607"/><line stroke="#8BAA84" stroke-width="0.5" x1="408" y1="801.2904866594336" x2="410" y2="797.4075872707854"/><line stroke="#8BAA84" stroke-width="0.5" x1="420" y1="801.2904866594336" x2="422" y2="796.2130823220946"/><line stroke="#8BAA84" stroke-width="0.5" x1="432" y1="801.2904866594336" x2="434" y2="797.2819727375727"/><line stroke="#8BAA84" stroke-width="0.5" x1="444" y1="801.2904866594336" x2="446" y2="794.3717667741203"/><line stroke="#8BAA84" stroke-width="0.5" x1="456" y1="801.2904866594336" x2="458" y2="797.5115943591222"/><line stroke="#8BAA84" stroke-width="0.5" x1="468" y1="801.2904866594336" x2="470" y2="796.7110519404969"/><line stroke="#8BAA84" stroke-width="0.5" x1="480" y1="801.2904866594336" x2="482" y2="796.1177524589297"/><line stroke="#8BAA84" stroke-width="0.5" x1="492" y1="801.2904866594336" x2="494" y2="795.4178091660377"/><line stroke="#8BAA84" stroke-width="0.5" x1="504" y1="801.2904866594336" x2="506" y2="796.1386685229774"/><line stroke="#8BAA84" stroke-width="0.5" x1="516" y1="801.2904866594336" x2="518" y2="797.0875793606046"/><line stroke="#8BAA84" stroke-width="0.5" x1="528" y1="801.2904866594336" x2="530" y2="795.807969246257"/><line stroke="#8BAA84" stroke-width="0.5" x1="540" y1="801.2904866594336" x2="542" y2="794.9283717434495"/><line stroke="#8BAA84" stroke-width="0.5" x1="552" y1="801.2904866594336" x2="554" y2="796.1117844193037"/><line stroke="#8BAA84" stroke-width="0.5" x1="564" y1="801.2904866594336" x2="566" y2="794.7662439047708"/><line stroke="#8BAA84" stroke-width="0.5" x1="576" y1="801.2904866594336" x2="578" y2="795.0020804203687"/><line stroke="#8BAA84" stroke-width="0.5" x1="588" y1="801.2904866594336" x2="590" y2="796.3868762917793"/><line stroke="#8BAA84" stroke-width="0.5" x1="600" y1="801.2904866594336" x2="602" y2="798.2042403214253"/><line stroke="#8BAA84" stroke-width="0.5" x1="612" y1="801.2904866594336" x2="614" y2="796.9070117639709"/><line stroke="#8BAA84" stroke-width="0.5" x1="624" y1="801.2904866594336" x2="626" y2="795.0350204118271"/><line stroke="#8BAA84" stroke-width="0.5" x1="636" y1="801.2904866594336" x2="638" y2="795.4481107900771"/><line stroke="#8BAA84" stroke-width="0.5" x1="648" y1="801.2904866594336" x2="650" y2="797.7028357639887"/><line stroke="#8BAA84" stroke-width="0.5" x1="660" y1="801.2904866594336" x2="662" y2="794.9304763791647"/><line stroke="#8BAA84" stroke-width="0.5" x1="672" y1="801.2904866594336" x2="674" y2="796.6719222530197"/><line stroke="#8BAA84" stroke-width="0.5" x1="684" y1="801.2904866594336" x2="686" y2="794.829255224538"/><line stroke="#8BAA84" stroke-width="0.5" x1="696" y1="801.2904866594336" x2="698" y2="795.7414582159023"/><line stroke="#8BAA84" stroke-width="0.5" x1="708" y1="801.2904866594336" x2="710" y2="795.420609900222"/><line stroke="#8BAA84" stroke-width="0.5" x1="720" y1="801.2904866594336" x2="722" y2="797.5248091373837"/><line stroke="#8BAA84" stroke-width="0.5" x1="732" y1="801.2904866594336" x2="734" y2="795.7337653799358"/><line stroke="#8BAA84" stroke-width="0.5" x1="744" y1="801.2904866594336" x2="746" y2="796.0492527782078"/><line stroke="#8BAA84" stroke-width="0.5" x1="756" y1="801.2904866594336" x2="758" y2="795.6487470418413"/><line stroke="#8BAA84" stroke-width="0.5" x1="768" y1="801.2904866594336" x2="770" y2="796.9520803577897"/><line stroke="#8BAA84" stroke-width="0.5" x1="780" y1="801.2904866594336" x2="782" y2="796.4495106420753"/><line stroke="#8BAA84" stroke-width="0.5" x1="792" y1="801.2904866594336" x2="794" y2="796.0710015284075"/><line stroke="#8BAA84" stroke-width="0.5" x1="804" y1="801.2904866594336" x2="806" y2="795.1545927419327"/><line stroke="#8BAA84" stroke-width="0.5" x1="816" y1="801.2904866594336" x2="818" y2="794.3551425643029"/><line stroke="#8BAA84" stroke-width="0.5" x1="828" y1="801.2904866594336" x2="830" y2="796.3685643176436"/><line stroke="#8BAA84" stroke-width="0.5" x1="840" y1="801.2904866594336" x2="842" y2="794.6435362175878"/><line stroke="#8BAA84" stroke-width="0.5" x1="852" y1="801.2904866594336" x2="854" y2="794.5308248005804"/><line stroke="#8BAA84" stroke-width="0.5" x1="864" y1="801.2904866594336" x2="866" y2="797.9156873817614"/><line stroke="#8BAA84" stroke-width="0.5" x1="876" y1="801.2904866594336" x2="878" y2="797.3748101290341"/><line stroke="#8BAA84" stroke-width="0.5" x1="888" y1="801.2904866594336" x2="890" y2="794.4916762398551"/><line stroke="#8BAA84" stroke-width="0.5" x1="900" y1="801.2904866594336" x2="902" y2="794.4711992439956"/><line stroke="#8BAA84" stroke-width="0.5" x1="912" y1="801.2904866594336" x2="914" y2="797.3479959715976"/><line stroke="#8BAA84" stroke-width="0.5" x1="924" y1="801.2904866594336" x2="926" y2="796.7283391989873"/><line stroke="#8BAA84" stroke-width="0.5" x1="936" y1="801.2904866594336" x2="938" y2="795.9150580877415"/><line stroke="#8BAA84" stroke-width="0.5" x1="948" y1="801.2904866594336" x2="950" y2="795.0287323402129"/><line stroke="#8BAA84" stroke-width="0.5" x1="960" y1="801.2904866594336" x2="962" y2="797.8129537490687"/><line stroke="#8BAA84" stroke-width="0.5" x1="972" y1="801.2904866594336" x2="974" y2="796.0342828326061"/><line stroke="#8BAA84" stroke-width="0.5" x1="984" y1="801.2904866594336" x2="986" y2="794.759569761733"/><line stroke="#8BAA84" stroke-width="0.5" x1="996" y1="801.2904866594336" x2="998" y2="794.6487102903799"/><line stroke="#8BAA84" stroke-width="0.5" x1="1008" y1="801.2904866594336" x2="1010" y2="796.4888573626552"/><line stroke="#8BAA84" stroke-width="0.5" x1="1020" y1="801.2904866594336" x2="1022" y2="796.5124691765642"/><line stroke="#8BAA84" stroke-width="0.5" x1="1032" y1="801.2904866594336" x2="1034" y2="796.4362326741333"/><line stroke="#8BAA84" stroke-width="0.5" x1="1044" y1="801.2904866594336" x2="1046" y2="797.5370848001144"/><line stroke="#8BAA84" stroke-width="0.5" x1="1056" y1="801.2904866594336" x2="1058" y2="795.5269607147203"/><line stroke="#8BAA84" stroke-width="0.5" x1="1068" y1="801.2904866594336" x2="1070" y2="794.8422557441547"/><line stroke="#8BAA84" stroke-width="0.5" x1="1080" y1="801.2904866594336" x2="1082" y2="797.5917422417249"/><line stroke="#8BAA84" stroke-width="0.5" x1="1092" y1="801.2904866594336" x2="1094" y2="797.6655525376311"/><line stroke="#8BAA84" stroke-width="0.5" x1="1104" y1="801.2904866594336" x2="1106" y2="797.0489804327088"/><line stroke="#8BAA84" stroke-width="0.5" x1="1116" y1="801.2904866594336" x2="1118" y2="796.9138719983576"/><line stroke="#8BAA84" stroke-width="0.5" x1="1128" y1="801.2904866594336" x2="1130" y2="796.3869806510082"/><line stroke="#8BAA84" stroke-width="0.5" x1="1140" y1="801.2904866594336" x2="1142" y2="797.3095143116439"/><line stroke="#8BAA84" stroke-width="0.5" x1="1152" y1="801.2904866594336" x2="1154" y2="797.5829545323705"/><line stroke="#8BAA84" stroke-width="0.5" x1="1164" y1="801.2904866594336" x2="1166" y2="798.0170033793357"/><line stroke="#8BAA84" stroke-width="0.5" x1="1176" y1="801.2904866594336" x2="1178" y2="797.3756464263555"/><line stroke="#8BAA84" stroke-width="0.5" x1="1188" y1="801.2904866594336" x2="1190" y2="795.2149580678451"/><line class="ground-line" x1="0" y1="801.2904866594336" x2="1200" y2="801.2904866594336" stroke="#333" stroke-width="1.5"/><text class="title" x="600" y="30">South Elevation</text><defs><pattern id="mat-brick" patternUnits="userSpaceOnUse" width="20" height="8">
        <rect width="20" height="8" fill="#C4956A"/>
        <line x1="0" y1="4" x2="20" y2="4" stroke="rgba(0,0,0,0.25)" stroke-width="0.6"/>
        <line x1="10" y1="0" x2="10" y2="4" stroke="rgba(0,0,0,0.18)" stroke-width="0.5"/>
        <line x1="0" y1="0" x2="0" y2="4" stroke="rgba(0,0,0,0.18)" stroke-width="0.5"/>
      </pattern></defs><rect fill="url(#mat-brick)" stroke="#333" stroke-width="1.5" x="164" y="345.29048665943355" width="872" height="456"/><line stroke="#555" stroke-width="2.5" x1="164" y1="801.2904866594336" x2="1036" y2="801.2904866594336"/><line stroke="rgba(0,0,0,0.08)" stroke-width="6" x1="167" y1="804.2904866594336" x2="1039" y2="804.2904866594336"/><line stroke="#666" stroke-width="0.8" stroke-dasharray="6 3" x1="164" y1="789.2904866594336" x2="1036" y2="789.2904866594336"/><text x="159" y="792.2904866594336" text-anchor="end" font-family="Arial" font-size="7" fill="#888">DPC</text><path class="roof" d="M 140 345.29048665943355 L 600 40 L 1060 345.29048665943355 Z"/><rect fill="#8B7D6B" stroke="#555" stroke-width="0.8" x="140" y="345.29048665943355" width="920" height="12"/><line stroke="#666" stroke-width="0.5" x1="140" y1="357.29048665943355" x2="1060" y2="357.29048665943355"/><g id="elevation-openings"><rect class="window" x="195.2" y="609.2904866594336" width="112" height="128"/><line class="window-glazing-bar" x1="223.2" y1="609.2904866594336" x2="223.2" y2="737.2904866594336"/><line class="window-glazing-bar" x1="251.2" y1="609.2904866594336" x2="251.2" y2="737.2904866594336"/><line class="window-glazing-bar" x1="279.2" y1="609.2904866594336" x2="279.2" y2="737.2904866594336"/><line class="window-glazing-bar" x1="195.2" y1="641.2904866594336" x2="307.2" y2="641.2904866594336"/><line class="window-glazing-bar" x1="195.2" y1="673.2904866594336" x2="307.2" y2="673.2904866594336"/><line class="window-glazing-bar" x1="195.2" y1="705.2904866594336" x2="307.2" y2="705.2904866594336"/><line stroke="#333" stroke-width="2" x1="190.2" y1="737.2904866594336" x2="312.2" y2="737.2904866594336"/><line stroke="#555" stroke-width="1.5" x1="192.2" y1="609.2904866594336" x2="310.2" y2="609.2904866594336"/><line stroke="#888" stroke-width="0.5" x1="192.2" y1="606.2904866594336" x2="310.2" y2="606.2904866594336"/><line stroke="rgba(0,0,0,0.2)" stroke-width="1.5" x1="197.2" y1="737.2904866594336" x2="309.2" y2="737.2904866594336"/><line stroke="rgba(0,0,0,0.15)" stroke-width="1" x1="307.2" y1="611.2904866594336" x2="307.2" y2="739.2904866594336"/><rect class="window" x="369.6" y="609.2904866594336" width="112" height="128"/><line class="window-glazing-bar" x1="397.6" y1="609.2904866594336" x2="397.6" y2="737.2904866594336"/><line class="window-glazing-bar" x1="425.6" y1="609.2904866594336" x2="425.6" y2="737.2904866594336"/><line class="window-glazing-bar" x1="453.6" y1="609.2904866594336" x2="453.6" y2="737.2904866594336"/><line class="window-glazing-bar" x1="369.6" y1="641.2904866594336" x2="481.6" y2="641.2904866594336"/><line class="window-glazing-bar" x1="369.6" y1="673.2904866594336" x2="481.6" y2="673.2904866594336"/><line class="window-glazing-bar" x1="369.6" y1="705.2904866594336" x2="481.6" y2="705.2904866594336"/><line stroke="#333" stroke-width="2" x1="364.6" y1="737.2904866594336" x2="486.6" y2="737.2904866594336"/><line stroke="#555" stroke-width="1.5" x1="366.6" y1="609.2904866594336" x2="484.6" y2="609.2904866594336"/><line stroke="#888" stroke-width="0.5" x1="366.6" y1="606.2904866594336" x2="484.6" y2="606.2904866594336"/><line stroke="rgba(0,0,0,0.2)" stroke-width="1.5" x1="371.6" y1="737.2904866594336" x2="483.6" y2="737.2904866594336"/><line stroke="rgba(0,0,0,0.15)" stroke-width="1" x1="481.6" y1="611.2904866594336" x2="481.6" y2="739.2904866594336"/><rect class="window" x="532.8" y="583.6904866594335" width="134.4" height="153.6"/><line class="window-glazing-bar" x1="566.4" y1="583.6904866594335" x2="566.4" y2="737.2904866594336"/><line class="window-glazing-bar" x1="600" y1="583.6904866594335" x2="600" y2="737.2904866594336"/><line class="window-glazing-bar" x1="633.5999999999999" y1="583.6904866594335" x2="633.5999999999999" y2="737.2904866594336"/><line class="window-glazing-bar" x1="532.8" y1="614.4104866594336" x2="667.1999999999999" y2="614.4104866594336"/><line class="window-glazing-bar" x1="532.8" y1="645.1304866594335" x2="667.1999999999999" y2="645.1304866594335"/><line class="window-glazing-bar" x1="532.8" y1="675.8504866594335" x2="667.1999999999999" y2="675.8504866594335"/><line class="window-glazing-bar" x1="532.8" y1="706.5704866594335" x2="667.1999999999999" y2="706.5704866594335"/><line stroke="#333" stroke-width="2" x1="527.8" y1="737.2904866594336" x2="672.1999999999999" y2="737.2904866594336"/><line stroke="#555" stroke-width="1.5" x1="529.8" y1="583.6904866594335" x2="670.1999999999999" y2="583.6904866594335"/><line stroke="#888" stroke-width="0.5" x1="529.8" y1="580.6904866594335" x2="670.1999999999999" y2="580.6904866594335"/><line stroke="rgba(0,0,0,0.2)" stroke-width="1.5" x1="534.8" y1="737.2904866594336" x2="669.1999999999999" y2="737.2904866594336"/><line stroke="rgba(0,0,0,0.15)" stroke-width="1" x1="667.1999999999999" y1="585.6904866594335" x2="667.1999999999999" y2="739.2904866594336"/><rect class="window" x="707.1999999999998" y="583.6904866594335" width="134.4" height="153.6"/><line class="window-glazing-bar" x1="740.7999999999998" y1="583.6904866594335" x2="740.7999999999998" y2="737.2904866594336"/><line class="window-glazing-bar" x1="774.3999999999999" y1="583.6904866594335" x2="774.3999999999999" y2="737.2904866594336"/><line class="window-glazing-bar" x1="807.9999999999998" y1="583.6904866594335" x2="807.9999999999998" y2="737.2904866594336"/><line class="window-glazing-bar" x1="707.1999999999998" y1="614.4104866594336" x2="841.5999999999998" y2="614.4104866594336"/><line class="window-glazing-bar" x1="707.1999999999998" y1="645.1304866594335" x2="841.5999999999998" y2="645.1304866594335"/><line class="window-glazing-bar" x1="707.1999999999998" y1="675.8504866594335" x2="841.5999999999998" y2="675.8504866594335"/><line class="window-glazing-bar" x1="707.1999999999998" y1="706.5704866594335" x2="841.5999999999998" y2="706.5704866594335"/><line stroke="#333" stroke-width="2" x1="702.1999999999998" y1="737.2904866594336" x2="846.5999999999998" y2="737.2904866594336"/><line stroke="#555" stroke-width="1.5" x1="704.1999999999998" y1="583.6904866594335" x2="844.5999999999998" y2="583.6904866594335"/><line stroke="#888" stroke-width="0.5" x1="704.1999999999998" y1="580.6904866594335" x2="844.5999999999998" y2="580.6904866594335"/><line stroke="rgba(0,0,0,0.2)" stroke-width="1.5" x1="709.1999999999998" y1="737.2904866594336" x2="843.5999999999998" y2="737.2904866594336"/><line stroke="rgba(0,0,0,0.15)" stroke-width="1" x1="841.5999999999998" y1="585.6904866594335" x2="841.5999999999998" y2="739.2904866594336"/><rect class="window" x="881.5999999999999" y="583.6904866594335" width="134.4" height="153.6"/><line class="window-glazing-bar" x1="915.1999999999999" y1="583.6904866594335" x2="915.1999999999999" y2="737.2904866594336"/><line class="window-glazing-bar" x1="948.8" y1="583.6904866594335" x2="948.8" y2="737.2904866594336"/><line class="window-glazing-bar" x1="982.3999999999999" y1="583.6904866594335" x2="982.3999999999999" y2="737.2904866594336"/><line class="window-glazing-bar" x1="881.5999999999999" y1="614.4104866594336" x2="1015.9999999999999" y2="614.4104866594336"/><line class="window-glazing-bar" x1="881.5999999999999" y1="645.1304866594335" x2="1015.9999999999999" y2="645.1304866594335"/><line class="window-glazing-bar" x1="881.5999999999999" y1="675.8504866594335" x2="1015.9999999999999" y2="675.8504866594335"/><line class="window-glazing-bar" x1="881.5999999999999" y1="706.5704866594335" x2="1015.9999999999999" y2="706.5704866594335"/><line stroke="#333" stroke-width="2" x1="876.5999999999999" y1="737.2904866594336" x2="1020.9999999999999" y2="737.2904866594336"/><line stroke="#555" stroke-width="1.5" x1="878.5999999999999" y1="583.6904866594335" x2="1018.9999999999999" y2="583.6904866594335"/><line stroke="#888" stroke-width="0.5" x1="878.5999999999999" y1="580.6904866594335" x2="1018.9999999999999" y2="580.6904866594335"/><line stroke="rgba(0,0,0,0.2)" stroke-width="1.5" x1="883.5999999999999" y1="737.2904866594336" x2="1017.9999999999999" y2="737.2904866594336"/><line stroke="rgba(0,0,0,0.15)" stroke-width="1" x1="1015.9999999999999" y1="585.6904866594335" x2="1015.9999999999999" y2="739.2904866594336"/><rect class="door" x="560" y="633.2904866594336" width="80" height="168"/><circle cx="628" cy="725.6904866594335" r="4" fill="#C0A060" stroke="#333" stroke-width="0.5"/><rect fill="none" stroke="#4A2F1A" stroke-width="0.8" x="568" y="650.0904866594335" width="24" height="58.8"/><rect fill="none" stroke="#4A2F1A" stroke-width="0.8" x="568" y="725.6904866594335" width="24" height="58.8"/><rect class="window" x="195.2" y="369.29048665943355" width="112" height="128"/><line class="window-glazing-bar" x1="223.2" y1="369.29048665943355" x2="223.2" y2="497.29048665943355"/><line class="window-glazing-bar" x1="251.2" y1="369.29048665943355" x2="251.2" y2="497.29048665943355"/><line class="window-glazing-bar" x1="279.2" y1="369.29048665943355" x2="279.2" y2="497.29048665943355"/><line class="window-glazing-bar" x1="195.2" y1="401.29048665943355" x2="307.2" y2="401.29048665943355"/><line class="window-glazing-bar" x1="195.2" y1="433.29048665943355" x2="307.2" y2="433.29048665943355"/><line class="window-glazing-bar" x1="195.2" y1="465.29048665943355" x2="307.2" y2="465.29048665943355"/><line stroke="#333" stroke-width="2" x1="190.2" y1="497.29048665943355" x2="312.2" y2="497.29048665943355"/><line stroke="#555" stroke-width="1.5" x1="192.2" y1="369.29048665943355" x2="310.2" y2="369.29048665943355"/><line stroke="#888" stroke-width="0.5" x1="192.2" y1="366.29048665943355" x2="310.2" y2="366.29048665943355"/><line stroke="rgba(0,0,0,0.2)" stroke-width="1.5" x1="197.2" y1="497.29048665943355" x2="309.2" y2="497.29048665943355"/><line stroke="rgba(0,0,0,0.15)" stroke-width="1" x1="307.2" y1="371.29048665943355" x2="307.2" y2="499.29048665943355"/><rect class="window" x="369.6" y="369.29048665943355" width="112" height="128"/><line class="window-glazing-bar" x1="397.6" y1="369.29048665943355" x2="397.6" y2="497.29048665943355"/><line class="window-glazing-bar" x1="425.6" y1="369.29048665943355" x2="425.6" y2="497.29048665943355"/><line class="window-glazing-bar" x1="453.6" y1="369.29048665943355" x2="453.6" y2="497.29048665943355"/><line class="window-glazing-bar" x1="369.6" y1="401.29048665943355" x2="481.6" y2="401.29048665943355"/><line class="window-glazing-bar" x1="369.6" y1="433.29048665943355" x2="481.6" y2="433.29048665943355"/><line class="window-glazing-bar" x1="369.6" y1="465.29048665943355" x2="481.6" y2="465.29048665943355"/><line stroke="#333" stroke-width="2" x1="364.6" y1="497.29048665943355" x2="486.6" y2="497.29048665943355"/><line stroke="#555" stroke-width="1.5" x1="366.6" y1="369.29048665943355" x2="484.6" y2="369.29048665943355"/><line stroke="#888" stroke-width="0.5" x1="366.6" y1="366.29048665943355" x2="484.6" y2="366.29048665943355"/><line stroke="rgba(0,0,0,0.2)" stroke-width="1.5" x1="371.6" y1="497.29048665943355" x2="483.6" y2="497.29048665943355"/><line stroke="rgba(0,0,0,0.15)" stroke-width="1" x1="481.6" y1="371.29048665943355" x2="481.6" y2="499.29048665943355"/><rect class="window" x="538.4" y="356.49048665943354" width="123.2" height="140.8"/><line class="window-glazing-bar" x1="569.1999999999999" y1="356.49048665943354" x2="569.1999999999999" y2="497.29048665943355"/><line class="window-glazing-bar" x1="600" y1="356.49048665943354" x2="600" y2="497.29048665943355"/><line class="window-glazing-bar" x1="630.8" y1="356.49048665943354" x2="630.8" y2="497.29048665943355"/><line class="window-glazing-bar" x1="538.4" y1="384.65048665943357" x2="661.6" y2="384.65048665943357"/><line class="window-glazing-bar" x1="538.4" y1="412.81048665943354" x2="661.6" y2="412.81048665943354"/><line class="window-glazing-bar" x1="538.4" y1="440.97048665943356" x2="661.6" y2="440.97048665943356"/><line class="window-glazing-bar" x1="538.4" y1="469.1304866594336" x2="661.6" y2="469.1304866594336"/><line stroke="#333" stroke-width="2" x1="533.4" y1="497.29048665943355" x2="666.6" y2="497.29048665943355"/><line stroke="#555" stroke-width="1.5" x1="535.4" y1="356.49048665943354" x2="664.6" y2="356.49048665943354"/><line stroke="#888" stroke-width="0.5" x1="535.4" y1="353.49048665943354" x2="664.6" y2="353.49048665943354"/><line stroke="rgba(0,0,0,0.2)" stroke-width="1.5" x1="540.4" y1="497.29048665943355" x2="663.6" y2="497.29048665943355"/><line stroke="rgba(0,0,0,0.15)" stroke-width="1" x1="661.6" y1="358.49048665943354" x2="661.6" y2="499.29048665943355"/><rect class="window" x="712.7999999999998" y="356.49048665943354" width="123.2" height="140.8"/><line class="window-glazing-bar" x1="743.5999999999998" y1="356.49048665943354" x2="743.5999999999998" y2="497.29048665943355"/><line class="window-glazing-bar" x1="774.3999999999999" y1="356.49048665943354" x2="774.3999999999999" y2="497.29048665943355"/><line class="window-glazing-bar" x1="805.1999999999998" y1="356.49048665943354" x2="805.1999999999998" y2="497.29048665943355"/><line class="window-glazing-bar" x1="712.7999999999998" y1="384.65048665943357" x2="835.9999999999999" y2="384.65048665943357"/><line class="window-glazing-bar" x1="712.7999999999998" y1="412.81048665943354" x2="835.9999999999999" y2="412.81048665943354"/><line class="window-glazing-bar" x1="712.7999999999998" y1="440.97048665943356" x2="835.9999999999999" y2="440.97048665943356"/><line class="window-glazing-bar" x1="712.7999999999998" y1="469.1304866594336" x2="835.9999999999999" y2="469.1304866594336"/><line stroke="#333" stroke-width="2" x1="707.7999999999998" y1="497.29048665943355" x2="840.9999999999999" y2="497.29048665943355"/><line stroke="#555" stroke-width="1.5" x1="709.7999999999998" y1="356.49048665943354" x2="838.9999999999999" y2="356.49048665943354"/><line stroke="#888" stroke-width="0.5" x1="709.7999999999998" y1="353.49048665943354" x2="838.9999999999999" y2="353.49048665943354"/><line stroke="rgba(0,0,0,0.2)" stroke-width="1.5" x1="714.7999999999998" y1="497.29048665943355" x2="837.9999999999999" y2="497.29048665943355"/><line stroke="rgba(0,0,0,0.15)" stroke-width="1" x1="835.9999999999999" y1="358.49048665943354" x2="835.9999999999999" y2="499.29048665943355"/><rect class="window" x="892.8" y="369.29048665943355" width="112" height="128"/><line class="window-glazing-bar" x1="920.8" y1="369.29048665943355" x2="920.8" y2="497.29048665943355"/><line class="window-glazing-bar" x1="948.8" y1="369.29048665943355" x2="948.8" y2="497.29048665943355"/><line class="window-glazing-bar" x1="976.8" y1="369.29048665943355" x2="976.8" y2="497.29048665943355"/><line class="window-glazing-bar" x1="892.8" y1="401.29048665943355" x2="1004.8" y2="401.29048665943355"/><line class="window-glazing-bar" x1="892.8" y1="433.29048665943355" x2="1004.8" y2="433.29048665943355"/><line class="window-glazing-bar" x1="892.8" y1="465.29048665943355" x2="1004.8" y2="465.29048665943355"/><line stroke="#333" stroke-width="2" x1="887.8" y1="497.29048665943355" x2="1009.8" y2="497.29048665943355"/><line stroke="#555" stroke-width="1.5" x1="889.8" y1="369.29048665943355" x2="1007.8" y2="369.29048665943355"/><line stroke="#888" stroke-width="0.5" x1="889.8" y1="366.29048665943355" x2="1007.8" y2="366.29048665943355"/><line stroke="rgba(0,0,0,0.2)" stroke-width="1.5" x1="894.8" y1="497.29048665943355" x2="1006.8" y2="497.29048665943355"/><line stroke="rgba(0,0,0,0.15)" stroke-width="1" x1="1004.8" y1="371.29048665943355" x2="1004.8" y2="499.29048665943355"/></g><g id="level-markers"><g id="ground-level"><polygon fill="#333" points="114,801.2904866594336 106,805.2904866594336 106,797.2904866594336"/><line class="level-marker" x1="106" y1="801.2904866594336" x2="76" y2="801.2904866594336"/><text class="level-text" x="72" y="805.2904866594336" text-anchor="end">±0.00</text></g><g id="floor-0-level"><polygon fill="#333" points="114,561.2904866594336 106,565.2904866594336 106,557.2904866594336"/><line class="level-marker" x1="106" y1="561.2904866594336" x2="76" y2="561.2904866594336"/><text class="level-text" x="72" y="565.2904866594336" text-anchor="end">+3.00</text></g><line class="level-marker-dashed" x1="164" y1="561.2904866594336" x2="1036" y2="561.2904866594336"/><g id="floor-1-level"><polygon fill="#333" points="114,345.29048665943355 106,349.29048665943355 106,341.29048665943355"/><line class="level-marker" x1="106" y1="345.29048665943355" x2="76" y2="345.29048665943355"/><text class="level-text" x="72" y="349.29048665943355" text-anchor="end">+5.70</text></g><line class="level-marker-dashed" x1="164" y1="345.29048665943355" x2="1036" y2="345.29048665943355"/><g id="ridge-level"><polygon fill="#333" points="114,40 106,44 106,36"/><line class="level-marker-dashed" x1="106" y1="40" x2="76" y2="40"/><text class="level-text" x="72" y="44" text-anchor="end">+9.52</text></g></g><g id="elevation-dimensions"><g class="dimension" id="elev-dim-height"><line stroke="#999" stroke-width="0.3" x1="1064" y1="801.2904866594336" x2="1074" y2="801.2904866594336"/><line stroke="#999" stroke-width="0.3" x1="1064" y1="345.29048665943355" x2="1074" y2="345.29048665943355"/><line x1="1076" y1="801.2904866594336" x2="1076" y2="345.29048665943355"/><polygon fill="#444" points="1076,801.2904866594336 1073,807.2904866594336 1079,807.2904866594336"/><polygon fill="#444" points="1076,345.29048665943355 1073,339.29048665943355 1079,339.29048665943355"/><text class="dimension-text" x="1091" y="573.2904866594336" transform="rotate(-90, 1091, 573.2904866594336)">5.70 m</text></g><g class="dimension" id="elev-dim-width"><line stroke="#999" stroke-width="0.3" x1="164" y1="843.2904866594336" x2="164" y2="833.2904866594336"/><line stroke="#999" stroke-width="0.3" x1="1036" y1="843.2904866594336" x2="1036" y2="833.2904866594336"/><line x1="164" y1="831.2904866594336" x2="1036" y2="831.2904866594336"/><polygon fill="#444" points="164,831.2904866594336 170,828.2904866594336 170,834.2904866594336"/><polygon fill="#444" points="1036,831.2904866594336 1030,828.2904866594336 1030,834.2904866594336"/><text class="dimension-text" x="600" y="823.2904866594336">10.90 m</text></g></g><g id="title-block"><rect x="1010" y="831.2904866594336" width="180" height="40" fill="#ffffff" stroke="#333" stroke-width="1"/><line x1="1010" y1="851.2904866594336" x2="1190" y2="851.2904866594336" stroke="#333" stroke-width="0.5"/><text x="1015" y="845.2904866594336" font-family="Arial, sans-serif" font-size="9" font-weight="700" fill="#333">South Elevation</text><text x="1015" y="864.2904866594336" font-family="Arial, sans-serif" font-size="7" fill="#666">Dwg: A-201</text><text x="1185" y="864.2904866594336" font-family="Arial, sans-serif" font-size="7" fill="#666" text-anchor="end">Scale 1:12.5</text></g></svg>