<svg xmlns="http://www.w3.org/2000/svg" viewBox="0 0 1200 881.2904866594336" width="1200" height="881.2904866594336"><style><![CDATA[
    /* --- Text --- */
    .title {
      font-family: Arial, Helvetica, sans-serif;
      font-size: 16px;
      font-weight: bold;
      fill: #000000;
      text-anchor: middle;
    }
    .room-label {
      font-family: Arial, Helvetica, sans-serif;
      font-size: 10px;
      font-weight: bold;
      fill: #000000;
      text-anchor: middle;
    }
    .area-label {
      font-family: Arial, Helvetica, sans-serif;
      font-size: 9px;
      fill: #333333;
      text-anchor: middle;
    }

    /* --- Rooms --- */
    .room-fill {
      fill: #FFFFFF;
      stroke: none;
    }
    .circulation-fill {
      fill: #F5F5F5;
      stroke: none;
    }

    /* --- Walls --- */
    .wall-external-cut {
      fill: #1A1A1A;
      stroke: #000000;
      stroke-width: 3;
    }
    .wall-internal-fill {
      fill: #1A1A1A;
      stroke: #000000;
      stroke-width: 1.8;
    }
    .wall-poche line {
      stroke: #444444;
      stroke-width: 0.3;
    }

    /* --- Windows --- */
    .window {
      fill: #D6EAF8;
      stroke: #333333;
      stroke-width: 1.2;
    }
    .window-frame {
      fill: #333333;
      stroke: #000000;
      stroke-width: 0.8;
    }
    .window-glazing-bar {
      stroke: #333333;
      stroke-width: 0.5;
    }

    /* --- Doors --- */
    .door {
      fill: #6B4226;
      stroke: #000000;
      stroke-width: 1;
    }
    .door-opening {
      fill: #FFFFFF;
      stroke: none;
    }
    .door-swing {
      fill: none;
      stroke: #999999;
      stroke-width: 0.5;
      stroke-dasharray: 4 2;
    }

    /* --- Stairs --- */
    .stair-cut {
      fill: #F0F0F0;
      stroke: #000000;
      stroke-width: 1;
    }

    /* --- Elevation / Section backgrounds --- */
    .sky {
      fill: #E8F4FD;
    }
    .ground {
      fill: #D5E8D4;
    }
    .ground-line {
      stroke: #333333;
      stroke-width: 1.5;
    }

    /* --- Roof --- */
    .roof {
      fill: #C0C0C0;
      stroke: #222222;
      stroke-width: 2;
    }

    /* --- Slabs and Foundation --- */
    .slab-cut {
      fill: #D0D0D0;
      stroke: #000000;
      stroke-width: 1;
    }
    .foundation {
      fill: #C8B8A0;
      stroke: #000000;
      stroke-width: 1.2;
    }

    /* --- Hatching --- */
    .hatch {
      stroke: #666666;
      stroke-width: 0.3;
    }
    .hatch-slab {
      stroke: #666666;
      stroke-width: 0.24;
    }

    /* --- Dimensions --- */
    .dimension line {
      stroke: #333333;
      stroke-width: 0.5;
    }
    .dimension-text {
      font-family: Arial, Helvetica, sans-serif;
      font-size: 10px;
      fill: #333333;
      text-anchor: middle;
    }

    /* --- Level markers --- */
    .level-marker {
      stroke: #333333;
      stroke-width: 0.8;
    }
    .level-marker-dashed {
      stroke: #333333;
      stroke-width: 0.5;
      stroke-dasharray: 6 3;
    }
    .level-text {
      font-family: Arial, Helvetica, sans-serif;
      font-size: 9px;
      fill: #000000;
    }
  ]]></style><rect class="sky" x="0" y="0" width="1200" height="801.2904866594336"/><rect fill="#D5E8D4" x="0" y="801.2904866594336" width="1200" height="80"/><line stroke="#8BAA84" stroke-width="0.5" x1="0" y1="801.2904866594336" x2="2" y2="796.5449948829375"/><line stroke="#8BAA84" stroke-width="0.5" x1="12" y1="801.2904866594336" x2="14" y2="797.6159501923069"/><line stroke="#8BAA84" stroke-width="0.5" x1="24" y1="801.2904866594336" x2="26" y2="794.4816183865495"/><line stroke="#8BAA84" stroke-width="0.5" x1="36" y1="801.2904866594336" x2="38" y2="797.5128558959906"/><line stroke="#8BAA84" stroke-width="0.5" x1="48" y1="801.2904866594336" x2="50" y2="797.2856016968543"/><line stroke="#8BAA84" stroke-width="0.5" x1="60" y1="801.2904866594336" x2="62" y2="795.0037665552883"/><line stroke="#8BAA84" stroke-width="0.5" x1="72" y1="801.2904866594336" x2="74" y2="797.1629819043831"/><line stroke="#8BAA84" stroke-width="0.5" x1="84" y1="801.2904866594336" x2="86" y2="797.8461337830341"/><line stroke="#8BAA84" stroke-width="0.5" x1="96" y1="801.2904866594336" x2="98" y2="797.8856703640502"/><line stroke="#8BAA84" stroke-width="0.5" x1="108" y1="801.2904866594336" x2="110" y2="797.2374941833051"/><line stroke="#8BAA84" stroke-width="0.5" x1="120" y1="801.2904866594336" x2="122" y2="795.3000630286302"/><line stroke="#8BAA84" stroke-width="0.5" x1="132" y1="801.2904866594336" x2="134" y2="797.5066222540961"/><line stroke="#8BAA84" stroke-width="0.5" x1="144" y1="801.2904866594336" x2="146" y2="796.5874122605856"/><line stroke="#8BAA84" stroke-width="0.5" x1="156" y1="801.2904866594336" x2="158" y2="797.0890195883483"/><line stroke="#8BAA84" stroke-width="0.5" x1="168" y1="801.2904866594336" x2="170" y2="795.8256468477347"/><line stroke="#8BAA84" stroke-width="0.5" x1="180" y1="801.2904866594336" x2="182" y2="795.450651304575"/><line stroke="#8BAA84" stroke-width="0.5" x1="192" y1="801.2904866594336" x2="194" y2="797.8597795855425"/><line stroke="#8BAA84" stroke-width="0.5" x1="204" y1="801.2904866594336" x2="206" y2="795.4222557917817"/><line stroke="#8BAA84" stroke-width="0.5" x1="216" y1="801.2904866594336" x2="218" y2="798.2739033712412"/><line stroke="#8BAA84" stroke-width="0.5" x1="228" y1="801.2904866594336" x2="230" y2="798.0924043423915"/><line stroke="#8BAA84" stroke-width="0.5" x1="240" y1="801.2904866594336" x2="242" y2="794.8670629692102"/><line stroke="#8BAA84" stroke-width="0.5" x1="252" y1="801.2904866594336" x2="254" y2="798.1384686524335"/><line stroke="#8BAA84" stroke-width="0.5" x1="264" y1="801.2904866594336" x2="266" y2="796.8345890607974"/><line stroke="#8BAA84" stroke-width="0.5" x1="276" y1="801.2904866594336" x2="278" y2="796.6788718590016"/><line stroke="#8BAA84" stroke-width="0.5" x1="288" y1="801.2904866594336" x2="290" y2="794.693310174307"/><line stroke="#8BAA84" stroke-width="0.5" x1="300" y1="801.2904866594336" x2="302" y2="795.5342032840416"/><line stroke="#8BAA84" stroke-width="0.5" x1="312" y1="801.2904866594336" x2="314" y2="797.1429608139894"/><line stroke="#8BAA84" stroke-width="0.5" x1="324" y1="801.2904866594336" x2="326" y2="795.1397898142715"/><line stroke="#8BAA84" stroke-width="0.5" x1="336" y1="801.2904866594336" x2="338" y2="798.1077461882946"/><line stroke="#8BAA84" stroke-width="0.5" x1="348" y1="801.2904866594336" x2="350" y2="795.6605759924208"/><line stroke="#8BAA84" stroke-width="0.5" x1="360" y1="801.2904866594336" x2="362" y2="797.9273319112132"/><line stroke="#8BAA84" stroke-width="0.5" x1="372" y1="801.2904866594336" x2="374" y2="797.2904785542648"/><line stroke="#8BAA84" stroke-width="0.5" x1="384" y1="801.2904866594336" x2="386" y2="795.4312299713654"/><line stroke="#8BAA84" stroke-width="0.5" x1="396" y1="801.2904866594336" x2="398" y2="795.0182240124817"/><line stroke="#8BAA84" stroke-width="0.5" x1="408" y1="801.2904866594336" x2="410" y2="795.9445990250981"/><line stroke="#8BAA84" stroke-width="0.5" x1="420" y1="801.2904866594336" x2="422" y2="796.0286072906517"/><line stroke="#8BAA84" stroke-width="0.5" x1="432" y1="801.2904866594336" x2="434" y2="796.1191125543534"/><line stroke="#8BAA84" stroke-width="0.5" x1="444" y1="801.2904866594336" x2="446" y2="797.1040036006302"/><line stroke="#8BAA84" stroke-width="0.5" x1="456" y1="801.2904866594336" x2="458" y2="798.1020397556613"/><line stroke="#8BAA84" stroke-width="0.5" x1="468" y1="801.2904866594336" x2="470" y2="796.0609955274782"/><line stroke="#8BAA84" stroke-width="0.5" x1="480" y1="801.2904866594336" x2="482" y2="797.9569192338753"/><line stroke="#8BAA84" stroke-width="0.5" x1="492" y1="801.2904866594336" x2="494" y2="796.783789966568"/><line stroke="#8BAA84" stroke-width="0.5" x1="504" y1="801.2904866594336" x2="506" y2="798.1832786684192"/><line stroke="#8BAA84" stroke-width="0.5" x1="516" y1="801.2904866594336" x2="518" y2="795.1089944343371"/><line stroke="#8BAA84" stroke-width="0.5" x1="528" y1="801.2904866594336" x2="530" y2="795.4689843214056"/><line stroke="#8BAA84" stroke-width="0.5" x1="540" y1="801.2904866594336" x2="542" y2="797.2029258966347"/><line stroke="#8BAA84" stroke-width="0.5" x1="552" y1="801.2904866594336" x2="554" y2="797.4339026918916"/><line stroke="#8BAA84" stroke-width="0.5" x1="564" y1="801.2904866594336" x2="566" y2="794.3931832977146"/><line stroke="#8BAA84" stroke-width="0.5" x1="576" y1="801.2904866594336" x2="578" y2="794.9947755643113"/><line stroke="#8BAA84" stroke-width="0.5" x1="588" y1="801.2904866594336" x2="590" y2="794.4565128365638"/><line stroke="#8BAA84" stroke-width="0.5" x1="600" y1="801.2904866594336" x2="602" y2="797.2099715679803"/><line stroke="#8BAA84" stroke-width="0.5" x1="612" y1="801.2904866594336" x2="614" y2="795.1717525532307"/><line stroke="#8BAA84" stroke-width="0.5" x1="624" y1="801.2904866594336" x2="626" y2="797.2539133669131"/><line stroke="#8BAA84" stroke-width="0.5" x1="636" y1="801.2904866594336" x2="638" y2="795.3470589892742"/><line stroke="#8BAA84" stroke-width="0.5" x1="648" y1="801.2904866594336" x2="650" y2="797.3812951627167"/><line stroke="#8BAA84" stroke-width="0.5" x1="660" y1="801.2904866594336" x2="662" y2="798.0520206181369"/><line stroke="#8BAA84" stroke-width="0.5" x1="672" y1="801.2904866594336" x2="674" y2="797.8959076433838"/><line stroke="#8BAA84" stroke-width="0.5" x1="684" y1="801.2904866594336" x2="686" y2="795.0249375827342"/><line stroke="#8BAA84" stroke-width="0.5" x1="696" y1="801.2904866594336" x2="698" y2="797.2793107717055"/><line stroke="#8BAA84" stroke-width="0.5" x1="708" y1="801.2904866594336" x2="710" y2="794.7412520541612"/><line stroke="#8BAA84" stroke-width="0.5" x1="720" y1="801.2904866594336" x2="722" y2="796.2644717908281"/><line stroke="#8BAA84" stroke-width="0.5" x1="732" y1="801.2904866594336" x2="734" y2="795.5327066682679"/><line stroke="#8BAA84" stroke-width="0.5" x1="744" y1="801.2904866594336" x2="746" y2="797.5985772910695"/><line stroke="#8BAA84" stroke-width="0.5" x1="756" y1="801.2904866594336" x2="758" y2="795.0482160338416"/><line stroke="#8BAA84" stroke-width="0.5" x1="768" y1="801.2904866594336" x2="770" y2="794.5201252014492"/><line stroke="#8BAA84" stroke-width="0.5" x1="780" y1="801.2904866594336" x2="782" y2="796.9076858890696"/><line stroke="#8BAA84" stroke-width="0.5" x1="792" y1="801.2904866594336" x2="794" y2="795.7002161160426"/><line stroke="#8BAA84" stroke-width="0.5" x1="804" y1="801.2904866594336" x2="806" y2="796.0020075998536"/><line stroke="#8BAA84" stroke-width="0.5" x1="816" y1="801.2904866594336" x2="818" y2="795.4912873081603"/><line stroke="#8BAA84" stroke-width="0.5" x1="828" y1="801.2904866594336" x2="830" y2="794.4419840996304"/><line stroke="#8BAA84" stroke-width="0.5" x1="840" y1="801.2904866594336" x2="842" y2="798.2623374035995"/><line stroke="#8BAA84" stroke-width="0.5" x1="852" y1="801.2904866594336" x2="854" y2="796.6589417715618"/><line stroke="#8BAA84" stroke-width="0.5" x1="864" y1="801.2904866594336" x2="866" y2="797.6485526209203"/><line stroke="#8BAA84" stroke-width="0.5" x1="876" y1="801.2904866594336" x2="878" y2="796.1696738731195"/><line stroke="#8BAA84" stroke-width="0.5" x1="888" y1="801.2904866594336" x2="890" y2="797.4866113959083"/><line stroke="#8BAA84" stroke-width="0.5" x1="900" y1="801.2904866594336" x2="902" y2="794.5633246070194"/><line stroke="#8BAA84" stroke-width="0.5" x1="912" y1="801.2904866594336" x2="914" y2="794.7267029059011"/><line stroke="#8BAA84" stroke-width="0.5" x1="924" y1="801.2904866594336" x2="926" y2="794.3640006704867"/><line stroke="#8BAA84" stroke-width="0.5" x1="936" y1="801.2904866594336" x2="938" y2="797.6349737478358"/><line stroke="#8BAA84" stroke-width="0.5" x1="948" y1="801.2904866594336" x2="950" y2="796.4423608943353"/><line stroke="#8BAA84" stroke-width="0.5" x1="960" y1="801.2904866594336" x2="962" y2="795.6977504257452"/><line stroke="#8BAA84" stroke-width="0.5" x1="972" y1="801.2904866594336" x2="974" y2="798.2540387432713"/><line stroke="#8BAA84" stroke-width="0.5" x1="984" y1="801.2904866594336" x2="986" y2="796.9090555570064"/><line stroke="#8BAA84" stroke-width="0.5" x1="996" y1="801.2904866594336" x2="998" y2="794.635537136224"/><line stroke="#8BAA84" stroke-width="0.5" x1="1008" y1="801.2904866594336" x2="1010" y2="795.289611451737"/><line stroke="#8BAA84" stroke-width="0.5" x1="1020" y1="801.2904866594336" x2="1022" y2="796.7194182283533"/><line stroke="#8BAA84" stroke-width="0.5" x1="1032" y1="801.2904866594336" x2="1034" y2="798.1531991986187"/><line stroke="#8BAA84" stroke-width="0.5" x1="1044" y1="801.2904866594336" x2="1046" y2="796.2141655778881"/><line stroke="#8BAA84" stroke-width="0.5" x1="1056" y1="801.2904866594336" x2="1058" y2="795.2824136635098"/><line stroke="#8BAA84" stroke-width="0.5" x1="1068" y1="801.2904866594336" x2="1070" y2="795.2128587611102"/><line stroke="#8BAA84" stroke-width="0.5" x1="1080" y1="801.2904866594336" x2="1082" y2="796.8695317791039"/><line stroke="#8BAA84" stroke-width="0.5" x1="1092" y1="801.2904866594336" x2="1094" y2="795.9438102945975"/><line stroke="#8BAA84" stroke-width="0.5" x1="1104" y1="801.2904866594336" x2="1106" y2="795.4138222802568"/><line stroke="#8BAA84" stroke-width="0.5" x1="1116" y1="801.2904866594336" x2="1118" y2="796.5981771560306"/><line stroke="#8BAA84" stroke-width="0.5" x1="1128" y1="801.2904866594336" x2="1130" y2="798.2536372388113"/><line stroke="#8BAA84" stroke-width="0.5" x1="1140" y1="801.2904866594336" x2="1142" y2="795.7442497627732"/><line stroke="#8BAA84" stroke-width="0.5" x1="1152" y1="801.2904866594336" x2="1154" y2="796.9823297163198"/><line stroke="#8BAA84" stroke-width="0.5" x1="1164" y1="801.2904866594336" x2="1166" y2="797.0363397835121"/><line stroke="#8BAA84" stroke-width="0.5" x1="1176" y1="801.2904866594336" x2="1178" y2="797.9383790946038"/><line stroke="#8BAA84" stroke-width="0.5" x1="1188" y1="801.2904866594336" x2="1190" y2="795.0925956431682"/><line class="ground-line" x1="0" y1="801.2904866594336" x2="1200" y2="801.2904866594336" stroke="#333" stroke-width="1.5"/><text class="title" x="600" y="30">East Elevation</text><defs><pattern id="mat-brick" patternUnits="userSpaceOnUse" width="20" height="8">
        <rect width="20" height="8" fill="#C4956A"/>
        <line x1="0" y1="4" x2="20" y2="4" stroke="rgba(0,0,0,0.25)" stroke-width="0.6"/>
        <line x1="10" y1="0" x2="10" y2="4" stroke="rgba(0,0,0,0.18)" stroke-width="0.5"/>
        <line x1="0" y1="0" x2="0" y2="4" stroke="rgba(0,0,0,0.18)" stroke-width="0.5"/>
      </pattern></defs><rect fill="url(#mat-brick)" stroke="#333" stroke-width="1.5" x="312" y="345.29048665943355" width="576" height="456"/><line stroke="#555" stroke-width="2.5" x1="312" y1="801.2904866594336" x2="888" y2="801.2904866594336"/><line stroke="rgba(0,0,0,0.08)" stroke-width="6" x1="315" y1="804.2904866594336" x2="891" y2="804.2904866594336"/><line stroke="#666" stroke-width="0.8" stroke-dasharray="6 3" x1="312" y1="789.2904866594336" x2="888" y2="789.2904866594336"/><text x="307" y="792.2904866594336" text-anchor="end" font-family="Arial" font-size="7" fill="#888">DPC</text><path class="roof" d="M 288 345.29048665943355 L 912 345.29048665943355 Z"/><rect fill="#8B7D6B" stroke="#555" stroke-width="0.8" x="288" y="345.29048665943355" width="624" height="12"/><line stroke="#666" stroke-width="0.5" x1="288" y1="357.29048665943355" x2="912" y2="357.29048665943355"/><g id="elevation-openings"><rect class="window" x="398.4" y="594.8904866594336" width="115.2" height="134.4"/><line class="window-glazing-bar" x1="427.2" y1="594.8904866594336" x2="427.2" y2="729.2904866594336"/><line class="window-glazing-bar" x1="456" y1="594.8904866594336" x2="456" y2="729.2904866594336"/><line class="window-glazing-bar" x1="484.79999999999995" y1="594.8904866594336" x2="484.79999999999995" y2="729.2904866594336"/><line class="window-glazing-bar" x1="398.4" y1="628.4904866594336" x2="513.6" y2="628.4904866594336"/><line class="window-glazing-bar" x1="398.4" y1="662.0904866594336" x2="513.6" y2="662.0904866594336"/><line class="window-glazing-bar" x1="398.4" y1="695.6904866594336" x2="513.6" y2="695.6904866594336"/><line stroke="#333" stroke-width="2" x1="393.4" y1="729.2904866594336" x2="518.6" y2="729.2904866594336"/><line stroke="#555" stroke-width="1.5" x1="395.4" y1="594.8904866594336" x2="516.6" y2="594.8904866594336"/><line stroke="#888" stroke-width="0.5" x1="395.4" y1="591.8904866594336" x2="516.6" y2="591.8904866594336"/><line stroke="rgba(0,0,0,0.2)" stroke-width="1.5" x1="400.4" y1="729.2904866594336" x2="515.6" y2="729.2904866594336"/><line stroke="rgba(0,0,0,0.15)" stroke-width="1" x1="513.6" y1="596.8904866594336" x2="513.6" y2="731.2904866594336"/><rect class="window" x="696" y="617.2904866594336" width="96" height="112"/><line class="window-glazing-bar" x1="728" y1="617.2904866594336" x2="728" y2="729.2904866594336"/><line class="window-glazing-bar" x1="760" y1="617.2904866594336" x2="760" y2="729.2904866594336"/><line class="window-glazing-bar" x1="696" y1="645.2904866594336" x2="792" y2="645.2904866594336"/><line class="window-glazing-bar" x1="696" y1="673.2904866594336" x2="792" y2="673.2904866594336"/><line class="window-glazing-bar" x1="696" y1="701.2904866594336" x2="792" y2="701.2904866594336"/><line stroke="#333" stroke-width="2" x1="691" y1="729.2904866594336" x2="797" y2="729.2904866594336"/><line stroke="#555" stroke-width="1.5" x1="693" y1="617.2904866594336" x2="795" y2="617.2904866594336"/><line stroke="#888" stroke-width="0.5" x1="693" y1="614.2904866594336" x2="795" y2="614.2904866594336"/><line stroke="rgba(0,0,0,0.2)" stroke-width="1.5" x1="698" y1="729.2904866594336" x2="794" y2="729.2904866594336"/><line stroke="rgba(0,0,0,0.15)" stroke-width="1" x1="792" y1="619.2904866594336" x2="792" y2="731.2904866594336"/><rect class="window" x="408" y="377.29048665943355" width="96" height="112"/><line class="window-glazing-bar" x1="440" y1="377.29048665943355" x2="440" y2="489.29048665943355"/><line class="window-glazing-bar" x1="472" y1="377.29048665943355" x2="472" y2="489.29048665943355"/><line class="window-glazing-bar" x1="408" y1="405.29048665943355" x2="504" y2="405.29048665943355"/><line class="window-glazing-bar" x1="408" y1="433.29048665943355" x2="504" y2="433.29048665943355"/><line class="window-glazing-bar" x1="408" y1="461.29048665943355" x2="504" y2="461.29048665943355"/><line stroke="#333" stroke-width="2" x1="403" y1="489.29048665943355" x2="509" y2="489.29048665943355"/><line stroke="#555" stroke-width="1.5" x1="405" y1="377.29048665943355" x2="507" y2="377.29048665943355"/><line stroke="#888" stroke-width="0.5" x1="405" y1="374.29048665943355" x2="507" y2="374.29048665943355"/><line stroke="rgba(0,0,0,0.2)" stroke-width="1.5" x1="410" y1="489.29048665943355" x2="506" y2="489.29048665943355"/><line stroke="rgba(0,0,0,0.15)" stroke-width="1" x1="504" y1="379.29048665943355" x2="504" y2="491.29048665943355"/><rect class="window" x="696" y="377.29048665943355" width="96" height="112"/><line class="window-glazing-bar" x1="728" y1="377.29048665943355" x2="728" y2="489.29048665943355"/><line class="window-glazing-bar" x1="760" y1="377.29048665943355" x2="760" y2="489.29048665943355"/><line class="window-glazing-bar" x1="696" y1="405.29048665943355" x2="792" y2="405.29048665943355"/><line class="window-glazing-bar" x1="696" y1="433.29048665943355" x2="792" y2="433.29048665943355"/><line class="window-glazing-bar" x1="696" y1="461.29048665943355" x2="792" y2="461.29048665943355"/><line stroke="#333" stroke-width="2" x1="691" y1="489.29048665943355" x2="797" y2="489.29048665943355"/><line stroke="#555" stroke-width="1.5" x1="693" y1="377.29048665943355" x2="795" y2="377.29048665943355"/><line stroke="#888" stroke-width="0.5" x1="693" y1="374.29048665943355" x2="795" y2="374.29048665943355"/><line stroke="rgba(0,0,0,0.2)" stroke-width="1.5" x1="698" y1="489.29048665943355" x2="794" y2="489.29048665943355"/><line stroke="rgba(0,0,0,0.15)" stroke-width="1" x1="792" y1="379.29048665943355" x2="792" y2="491.29048665943355"/></g><g id="level-markers"><g id="ground-level"><polygon fill="#333" points="262,801.2904866594336 254,805.2904866594336 254,797.2904866594336"/><line class="level-marker" x1="254" y1="801.2904866594336" x2="224" y2="801.2904866594336"/><text class="level-text" x="220" y="805.2904866594336" text-anchor="end">±0.00</text></g><g id="floor-0-level"><polygon fill="#333" points="262,561.2904866594336 254,565.2904866594336 254,557.2904866594336"/><line class="level-marker" x1="254" y1="561.2904866594336" x2="224" y2="561.2904866594336"/><text class="level-text" x="220" y="565.2904866594336" text-anchor="end">+3.00</text></g><line class="level-marker-dashed" x1="312" y1="561.2904866594336" x2="888" y2="561.2904866594336"/><g id="floor-1-level"><polygon fill="#333" points="262,345.29048665943355 254,349.29048665943355 254,341.29048665943355"/><line class="level-marker" x1="254" y1="345.29048665943355" x2="224" y2="345.29048665943355"/><text class="level-text" x="220" y="349.29048665943355" text-anchor="end">+5.70</text></g><line class="level-marker-dashed" x1="312" y1="345.29048665943355" x2="888" y2="345.29048665943355"/><g id="ridge-level"><polygon fill="#333" points="262,40 254,44 254,36"/><line class="level-marker-dashed" x1="254" y1="40" x2="224" y2="40"/><text class="level-text" x="220" y="44" text-anchor="end">+9.52</text></g></g><g id="elevation-dimensions"><g class="dimension" id="elev-dim-height"><line stroke="#999" stroke-width="0.3" x1="916" y1="801.2904866594336" x2="926" y2="801.2904866594336"/><line stroke="#999" stroke-width="0.3" x1="916" y1="345.29048665943355" x2="926" y2="345.29048665943355"/><line x1="928" y1="801.2904866594336" x2="928" y2="345.29048665943355"/><polygon fill="#444" points="928,801.2904866594336 925,807.2904866594336 931,807.2904866594336"/><polygon fill="#444" points="928,345.29048665943355 925,339.29048665943355 931,339.29048665943355"/><text class="dimension-text" x="943" y="573.2904866594336" transform="rotate(-90, 943, 573.2904866594336)">5.70 m</text></g><g class="dimension" id="elev-dim-width"><line stroke="#999" stroke-width="0.3" x1="312" y1="843.2904866594336" x2="312" y2="833.2904866594336"/><line stroke="#999" stroke-width="0.3" x1="888" y1="843.2904866594336" x2="888" y2="833.2904866594336"/><line x1="312" y1="831.2904866594336" x2="888" y2="831.2904866594336"/><polygon fill="#444" points="312,831.2904866594336 318,828.2904866594336 318,834.2904866594336"/><polygon fill="#444" points="888,831.2904866594336 882,828.2904866594336 882,834.2904866594336"/><text class="dimension-text" x="600" y="823.2904866594336">7.20 m</text></g></g><g id="title-block"><rect x="1010" y="831.2904866594336" width="180" height="40" fill="#ffffff" stroke="#333" stroke-width="1"/><line x1="1010" y1="851.2904866594336" x2="1190" y2="851.2904866594336" stroke="#333" stroke-width="0.5"/><text x="1015" y="845.2904866594336" font-family="Arial, sans-serif" font-size="9" font-weight="700" fill="#333">East Elevation</text><text x="1015" y="864.2904866594336" font-family="Arial, sans-serif" font-size="7" fill="#666">Dwg: A-202</text><text x="1185" y="864.2904866594336" font-family="Arial, sans-serif" font-size="7" fill="#666" text-anchor="end">Scale 1:12.5</text></g></svg>