<svg xmlns="http://www.w3.org/2000/svg" viewBox="0 0 1200 951.2904866594336" width="1200" height="951.2904866594336"><style><![CDATA[
    /* --- Text --- */
    .title {
      font-family: Arial, Helvetica, sans-serif;
      font-size: 16px;
      font-weight: bold;
      fill: #000000;
      text-anchor: middle;
    }
    .room-label {
      font-family: Arial, Helvetica, sans-serif;
      font-size: 10px;
      font-weight: bold;
      fill: #000000;
      text-anchor: middle;
    }
    .area-label {
      font-family: Arial, Helvetica, sans-serif;
      font-size: 9px;
      fill: #333333;
      text-anchor: middle;
    }

    /* --- Rooms --- */
    .room-fill {
      fill: #FFFFFF;
      stroke: none;
    }
    .circulation-fill {
      fill: #F5F5F5;
      stroke: none;
    }

    /* --- Walls --- */
    .wall-external-cut {
      fill: #1A1A1A;
      stroke: #000000;
      stroke-width: 3;
    }
    .wall-internal-fill {
      fill: #1A1A1A;
      stroke: #000000;
      stroke-width: 1.8;
    }
    .wall-poche line {
      stroke: #444444;
      stroke-width: 0.3;
    }

    /* --- Windows --- */
    .window {
      fill: #D6EAF8;
      stroke: #333333;
      stroke-width: 1.2;
    }
    .window-frame {
      fill: #333333;
      stroke: #000000;
      stroke-width: 0.8;
    }
    .window-glazing-bar {
      stroke: #333333;
      stroke-width: 0.5;
    }

    /* --- Doors --- */
    .door {
      fill: #6B4226;
      stroke: #000000;
      stroke-width: 1;
    }
    .door-opening {
      fill: #FFFFFF;
      stroke: none;
    }
    .door-swing {
      fill: none;
      stroke: #999999;
      stroke-width: 0.5;
      stroke-dasharray: 4 2;
    }

    /* --- Stairs --- */
    .stair-cut {
      fill: #F0F0F0;
      stroke: #000000;
      stroke-width: 1;
    }

    /* --- Elevation / Section backgrounds --- */
    .sky {
      fill: #E8F4FD;
    }
    .ground {
      fill: #D5E8D4;
    }
    .ground-line {
      stroke: #333333;
      stroke-width: 1.5;
    }

    /* --- Roof --- */
    .roof {
      fill: #C0C0C0;
      stroke: #222222;
      stroke-width: 2;
    }

    /* --- Slabs and Foundation --- */
    .slab-cut {
      fill: #D0D0D0;
      stroke: #000000;
      stroke-width: 1;
    }
    .foundation {
      fill: #C8B8A0;
      stroke: #000000;
      stroke-width: 1.2;
    }

    /* --- Hatching --- */
    .hatch {
      stroke: #666666;
      stroke-width: 0.3;
    }
    .hatch-slab {
      stroke: #666666;
      stroke-width: 0.24;
    }

    /* --- Dimensions --- */
    .dimension line {
      stroke: #333333;
      stroke-width: 0.5;
    }
    .dimension-text {
      font-family: Arial, Helvetica, sans-serif;
      font-size: 10px;
      fill: #333333;
      text-anchor: middle;
    }

    /* --- Level markers --- */
    .level-marker {
      stroke: #333333;
      stroke-width: 0.8;
    }
    .level-marker-dashed {
      stroke: #333333;
      stroke-width: 0.5;
      stroke-dasharray: 6 3;
    }
    .level-text {
      font-family: Arial, Helvetica, sans-serif;
      font-size: 9px;
      fill: #000000;
    }
  ]]></style>
  <defs>
    <pattern id="wall-hatch" patternUnits="userSpaceOnUse" width="6" height="6" patternTransform="rotate(45)">
      <line x1="0" y1="0" x2="0" y2="6" stroke="#444444" stroke-width="0.5"/>
    </pattern>
  </defs>
  
  <defs>
    <pattern id="slab-hatch" patternUnits="userSpaceOnUse" width="12" height="12" patternTransform="rotate(45)">
      <line x1="0" y1="0" x2="0" y2="12" stroke="#444444" stroke-width="0.5"/>
    </pattern>
  </defs>
  <rect class="ground" x="0" y="811.2904866594336" width="1200" height="140"/><line class="ground-line" x1="0" y1="811.2904866594336" x2="1200" y2="811.2904866594336"/><text class="title" x="600" y="30">Section A-A</text><g id="foundation"><rect class="foundation" x="154" y="811.2904866594336" width="892" height="72"/><line class="hatch" x1="164" y1="811.2904866594336" x2="176" y2="883.2904866594336"/><line class="hatch" x1="172" y1="811.2904866594336" x2="184" y2="883.2904866594336"/><line class="hatch" x1="180" y1="811.2904866594336" x2="192" y2="883.2904866594336"/><line class="hatch" x1="188" y1="811.2904866594336" x2="200" y2="883.2904866594336"/><line class="hatch" x1="196" y1="811.2904866594336" x2="208" y2="883.2904866594336"/><line class="hatch" x1="204" y1="811.2904866594336" x2="216" y2="883.2904866594336"/><line class="hatch" x1="212" y1="811.2904866594336" x2="224" y2="883.2904866594336"/><line class="hatch" x1="220" y1="811.2904866594336" x2="232" y2="883.2904866594336"/><line class="hatch" x1="228" y1="811.2904866594336" x2="240" y2="883.2904866594336"/><line class="hatch" x1="236" y1="811.2904866594336" x2="248" y2="883.2904866594336"/><line class="hatch" x1="244" y1="811.2904866594336" x2="256" y2="883.2904866594336"/><line class="hatch" x1="252" y1="811.2904866594336" x2="264" y2="883.2904866594336"/><line class="hatch" x1="260" y1="811.2904866594336" x2="272" y2="883.2904866594336"/><line class="hatch" x1="268" y1="811.2904866594336" x2="280" y2="883.2904866594336"/><line class="hatch" x1="276" y1="811.2904866594336" x2="288" y2="883.2904866594336"/><line class="hatch" x1="284" y1="811.2904866594336" x2="296" y2="883.2904866594336"/><line class="hatch" x1="292" y1="811.2904866594336" x2="304" y2="883.2904866594336"/><line class="hatch" x1="300" y1="811.2904866594336" x2="312" y2="883.2904866594336"/><line class="hatch" x1="308" y1="811.2904866594336" x2="320" y2="883.2904866594336"/><line class="hatch" x1="316" y1="811.2904866594336" x2="328" y2="883.2904866594336"/><line class="hatch" x1="324" y1="811.2904866594336" x2="336" y2="883.2904866594336"/><line class="hatch" x1="332" y1="811.2904866594336" x2="344" y2="883.2904866594336"/><line class="hatch" x1="340" y1="811.2904866594336" x2="352" y2="883.2904866594336"/><line class="hatch" x1="348" y1="811.2904866594336" x2="360" y2="883.2904866594336"/><line class="hatch" x1="356" y1="811.2904866594336" x2="368" y2="883.2904866594336"/><line class="hatch" x1="364" y1="811.2904866594336" x2="376" y2="883.2904866594336"/><line class="hatch" x1="372" y1="811.2904866594336" x2="384" y2="883.2904866594336"/><line class="hatch" x1="380" y1="811.2904866594336" x2="392" y2="883.2904866594336"/><line class="hatch" x1="388" y1="811.2904866594336" x2="400" y2="883.2904866594336"/><line class="hatch" x1="396" y1="811.2904866594336" x2="408" y2="883.2904866594336"/><line class="hatch" x1="404" y1="811.2904866594336" x2="416" y2="883.2904866594336"/><line class="hatch" x1="412" y1="811.2904866594336" x2="424" y2="883.2904866594336"/><line class="hatch" x1="420" y1="811.2904866594336" x2="432" y2="883.2904866594336"/><line class="hatch" x1="428" y1="811.2904866594336" x2="440" y2="883.2904866594336"/><line class="hatch" x1="436" y1="811.2904866594336" x2="448" y2="883.2904866594336"/><line class="hatch" x1="444" y1="811.2904866594336" x2="456" y2="883.2904866594336"/><line class="hatch" x1="452" y1="811.2904866594336" x2="464" y2="883.2904866594336"/><line class="hatch" x1="460" y1="811.2904866594336" x2="472" y2="883.2904866594336"/><line class="hatch" x1="468" y1="811.2904866594336" x2="480" y2="883.2904866594336"/><line class="hatch" x1="476" y1="811.2904866594336" x2="488" y2="883.2904866594336"/><line class="hatch" x1="484" y1="811.2904866594336" x2="496" y2="883.2904866594336"/><line class="hatch" x1="492" y1="811.2904866594336" x2="504" y2="883.2904866594336"/><line class="hatch" x1="500" y1="811.2904866594336" x2="512" y2="883.2904866594336"/><line class="hatch" x1="508" y1="811.2904866594336" x2="520" y2="883.2904866594336"/><line class="hatch" x1="516" y1="811.2904866594336" x2="528" y2="883.2904866594336"/><line class="hatch" x1="524" y1="811.2904866594336" x2="536" y2="883.2904866594336"/><line class="hatch" x1="532" y1="811.2904866594336" x2="544" y2="883.2904866594336"/><line class="hatch" x1="540" y1="811.2904866594336" x2="552" y2="883.2904866594336"/><line class="hatch" x1="548" y1="811.2904866594336" x2="560" y2="883.2904866594336"/><line class="hatch" x1="556" y1="811.2904866594336" x2="568" y2="883.2904866594336"/><line class="hatch" x1="564" y1="811.2904866594336" x2="576" y2="883.2904866594336"/><line class="hatch" x1="572" y1="811.2904866594336" x2="584" y2="883.2904866594336"/><line class="hatch" x1="580" y1="811.2904866594336" x2="592" y2="883.2904866594336"/><line class="hatch" x1="588" y1="811.2904866594336" x2="600" y2="883.2904866594336"/><line class="hatch" x1="596" y1="811.2904866594336" x2="608" y2="883.2904866594336"/><line class="hatch" x1="604" y1="811.2904866594336" x2="616" y2="883.2904866594336"/><line class="hatch" x1="612" y1="811.2904866594336" x2="624" y2="883.2904866594336"/><line class="hatch" x1="620" y1="811.2904866594336" x2="632" y2="883.2904866594336"/><line class="hatch" x1="628" y1="811.2904866594336" x2="640" y2="883.2904866594336"/><line class="hatch" x1="636" y1="811.2904866594336" x2="648" y2="883.2904866594336"/><line class="hatch" x1="644" y1="811.2904866594336" x2="656" y2="883.2904866594336"/><line class="hatch" x1="652" y1="811.2904866594336" x2="664" y2="883.2904866594336"/><line class="hatch" x1="660" y1="811.2904866594336" x2="672" y2="883.2904866594336"/><line class="hatch" x1="668" y1="811.2904866594336" x2="680" y2="883.2904866594336"/><line class="hatch" x1="676" y1="811.2904866594336" x2="688" y2="883.2904866594336"/><line class="hatch" x1="684" y1="811.2904866594336" x2="696" y2="883.2904866594336"/><line class="hatch" x1="692" y1="811.2904866594336" x2="704" y2="883.2904866594336"/><line class="hatch" x1="700" y1="811.2904866594336" x2="712" y2="883.2904866594336"/><line class="hatch" x1="708" y1="811.2904866594336" x2="720" y2="883.2904866594336"/><line class="hatch" x1="716" y1="811.2904866594336" x2="728" y2="883.2904866594336"/><line class="hatch" x1="724" y1="811.2904866594336" x2="736" y2="883.2904866594336"/><line class="hatch" x1="732" y1="811.2904866594336" x2="744" y2="883.2904866594336"/><line class="hatch" x1="740" y1="811.2904866594336" x2="752" y2="883.2904866594336"/><line class="hatch" x1="748" y1="811.2904866594336" x2="760" y2="883.2904866594336"/><line class="hatch" x1="756" y1="811.2904866594336" x2="768" y2="883.2904866594336"/><line class="hatch" x1="764" y1="811.2904866594336" x2="776" y2="883.2904866594336"/><line class="hatch" x1="772" y1="811.2904866594336" x2="784" y2="883.2904866594336"/><line class="hatch" x1="780" y1="811.2904866594336" x2="792" y2="883.2904866594336"/><line class="hatch" x1="788" y1="811.2904866594336" x2="800" y2="883.2904866594336"/><line class="hatch" x1="796" y1="811.2904866594336" x2="808" y2="883.2904866594336"/><line class="hatch" x1="804" y1="811.2904866594336" x2="816" y2="883.2904866594336"/><line class="hatch" x1="812" y1="811.2904866594336" x2="824" y2="883.2904866594336"/><line class="hatch" x1="820" y1="811.2904866594336" x2="832" y2="883.2904866594336"/><line class="hatch" x1="828" y1="811.2904866594336" x2="840" y2="883.2904866594336"/><line class="hatch" x1="836" y1="811.2904866594336" x2="848" y2="883.2904866594336"/><line class="hatch" x1="844" y1="811.2904866594336" x2="856" y2="883.2904866594336"/><line class="hatch" x1="852" y1="811.2904866594336" x2="864" y2="883.2904866594336"/><line class="hatch" x1="860" y1="811.2904866594336" x2="872" y2="883.2904866594336"/><line class="hatch" x1="868" y1="811.2904866594336" x2="880" y2="883.2904866594336"/><line class="hatch" x1="876" y1="811.2904866594336" x2="888" y2="883.2904866594336"/><line class="hatch" x1="884" y1="811.2904866594336" x2="896" y2="883.2904866594336"/><line class="hatch" x1="892" y1="811.2904866594336" x2="904" y2="883.2904866594336"/><line class="hatch" x1="900" y1="811.2904866594336" x2="912" y2="883.2904866594336"/><line class="hatch" x1="908" y1="811.2904866594336" x2="920" y2="883.2904866594336"/><line class="hatch" x1="916" y1="811.2904866594336" x2="928" y2="883.2904866594336"/><line class="hatch" x1="924" y1="811.2904866594336" x2="936" y2="883.2904866594336"/><line class="hatch" x1="932" y1="811.2904866594336" x2="944" y2="883.2904866594336"/><line class="hatch" x1="940" y1="811.2904866594336" x2="952" y2="883.2904866594336"/><line class="hatch" x1="948" y1="811.2904866594336" x2="960" y2="883.2904866594336"/><line class="hatch" x1="956" y1="811.2904866594336" x2="968" y2="883.2904866594336"/><line class="hatch" x1="964" y1="811.2904866594336" x2="976" y2="883.2904866594336"/><line class="hatch" x1="972" y1="811.2904866594336" x2="984" y2="883.2904866594336"/><line class="hatch" x1="980" y1="811.2904866594336" x2="992" y2="883.2904866594336"/><line class="hatch" x1="988" y1="811.2904866594336" x2="1000" y2="883.2904866594336"/><line class="hatch" x1="996" y1="811.2904866594336" x2="1008" y2="883.2904866594336"/><line class="hatch" x1="1004" y1="811.2904866594336" x2="1016" y2="883.2904866594336"/><line class="hatch" x1="1012" y1="811.2904866594336" x2="1024" y2="883.2904866594336"/><line class="hatch" x1="1020" y1="811.2904866594336" x2="1032" y2="883.2904866594336"/><line class="hatch" x1="1028" y1="811.2904866594336" x2="1040" y2="883.2904866594336"/></g><g id="section-floors"><rect class="room-fill" x="164" y="571.2904866594336" width="872" height="216"/><rect class="slab-cut" x="164" y="787.2904866594336" width="872" height="24"/><line class="hatch-slab" x1="164" y1="787.2904866594336" x2="172" y2="811.2904866594336"/><line class="hatch-slab" x1="170" y1="787.2904866594336" x2="178" y2="811.2904866594336"/><line class="hatch-slab" x1="176" y1="787.2904866594336" x2="184" y2="811.2904866594336"/><line class="hatch-slab" x1="182" y1="787.2904866594336" x2="190" y2="811.2904866594336"/><line class="hatch-slab" x1="188" y1="787.2904866594336" x2="196" y2="811.2904866594336"/><line class="hatch-slab" x1="194" y1="787.2904866594336" x2="202" y2="811.2904866594336"/><line class="hatch-slab" x1="200" y1="787.2904866594336" x2="208" y2="811.2904866594336"/><line class="hatch-slab" x1="206" y1="787.2904866594336" x2="214" y2="811.2904866594336"/><line class="hatch-slab" x1="212" y1="787.2904866594336" x2="220" y2="811.2904866594336"/><line class="hatch-slab" x1="218" y1="787.2904866594336" x2="226" y2="811.2904866594336"/><line class="hatch-slab" x1="224" y1="787.2904866594336" x2="232" y2="811.2904866594336"/><line class="hatch-slab" x1="230" y1="787.2904866594336" x2="238" y2="811.2904866594336"/><line class="hatch-slab" x1="236" y1="787.2904866594336" x2="244" y2="811.2904866594336"/><line class="hatch-slab" x1="242" y1="787.2904866594336" x2="250" y2="811.2904866594336"/><line class="hatch-slab" x1="248" y1="787.2904866594336" x2="256" y2="811.2904866594336"/><line class="hatch-slab" x1="254" y1="787.2904866594336" x2="262" y2="811.2904866594336"/><line class="hatch-slab" x1="260" y1="787.2904866594336" x2="268" y2="811.2904866594336"/><line class="hatch-slab" x1="266" y1="787.2904866594336" x2="274" y2="811.2904866594336"/><line class="hatch-slab" x1="272" y1="787.2904866594336" x2="280" y2="811.2904866594336"/><line class="hatch-slab" x1="278" y1="787.2904866594336" x2="286" y2="811.2904866594336"/><line class="hatch-slab" x1="284" y1="787.2904866594336" x2="292" y2="811.2904866594336"/><line class="hatch-slab" x1="290" y1="787.2904866594336" x2="298" y2="811.2904866594336"/><line class="hatch-slab" x1="296" y1="787.2904866594336" x2="304" y2="811.2904866594336"/><line class="hatch-slab" x1="302" y1="787.2904866594336" x2="310" y2="811.2904866594336"/><line class="hatch-slab" x1="308" y1="787.2904866594336" x2="316" y2="811.2904866594336"/><line class="hatch-slab" x1="314" y1="787.2904866594336" x2="322" y2="811.2904866594336"/><line class="hatch-slab" x1="320" y1="787.2904866594336" x2="328" y2="811.2904866594336"/><line class="hatch-slab" x1="326" y1="787.2904866594336" x2="334" y2="811.2904866594336"/><line class="hatch-slab" x1="332" y1="787.2904866594336" x2="340" y2="811.2904866594336"/><line class="hatch-slab" x1="338" y1="787.2904866594336" x2="346" y2="811.2904866594336"/><line class="hatch-slab" x1="344" y1="787.2904866594336" x2="352" y2="811.2904866594336"/><line class="hatch-slab" x1="350" y1="787.2904866594336" x2="358" y2="811.2904866594336"/><line class="hatch-slab" x1="356" y1="787.2904866594336" x2="364" y2="811.2904866594336"/><line class="hatch-slab" x1="362" y1="787.2904866594336" x2="370" y2="811.2904866594336"/><line class="hatch-slab" x1="368" y1="787.2904866594336" x2="376" y2="811.2904866594336"/><line class="hatch-slab" x1="374" y1="787.2904866594336" x2="382" y2="811.2904866594336"/><line class="hatch-slab" x1="380" y1="787.2904866594336" x2="388" y2="811.2904866594336"/><line class="hatch-slab" x1="386" y1="787.2904866594336" x2="394" y2="811.2904866594336"/><line class="hatch-slab" x1="392" y1="787.2904866594336" x2="400" y2="811.2904866594336"/><line class="hatch-slab" x1="398" y1="787.2904866594336" x2="406" y2="811.2904866594336"/><line class="hatch-slab" x1="404" y1="787.2904866594336" x2="412" y2="811.2904866594336"/><line class="hatch-slab" x1="410" y1="787.2904866594336" x2="418" y2="811.2904866594336"/><line class="hatch-slab" x1="416" y1="787.2904866594336" x2="424" y2="811.2904866594336"/><line class="hatch-slab" x1="422" y1="787.2904866594336" x2="430" y2="811.2904866594336"/><line class="hatch-slab" x1="428" y1="787.2904866594336" x2="436" y2="811.2904866594336"/><line class="hatch-slab" x1="434" y1="787.2904866594336" x2="442" y2="811.2904866594336"/><line class="hatch-slab" x1="440" y1="787.2904866594336" x2="448" y2="811.2904866594336"/><line class="hatch-slab" x1="446" y1="787.2904866594336" x2="454" y2="811.2904866594336"/><line class="hatch-slab" x1="452" y1="787.2904866594336" x2="460" y2="811.2904866594336"/><line class="hatch-slab" x1="458" y1="787.2904866594336" x2="466" y2="811.2904866594336"/><line class="hatch-slab" x1="464" y1="787.2904866594336" x2="472" y2="811.2904866594336"/><line class="hatch-slab" x1="470" y1="787.2904866594336" x2="478" y2="811.2904866594336"/><line class="hatch-slab" x1="476" y1="787.2904866594336" x2="484" y2="811.2904866594336"/><line class="hatch-slab" x1="482" y1="787.2904866594336" x2="490" y2="811.2904866594336"/><line class="hatch-slab" x1="488" y1="787.2904866594336" x2="496" y2="811.2904866594336"/><line class="hatch-slab" x1="494" y1="787.2904866594336" x2="502" y2="811.2904866594336"/><line class="hatch-slab" x1="500" y1="787.2904866594336" x2="508" y2="811.2904866594336"/><line class="hatch-slab" x1="506" y1="787.2904866594336" x2="514" y2="811.2904866594336"/><line class="hatch-slab" x1="512" y1="787.2904866594336" x2="520" y2="811.2904866594336"/><line class="hatch-slab" x1="518" y1="787.2904866594336" x2="526" y2="811.2904866594336"/><line class="hatch-slab" x1="524" y1="787.2904866594336" x2="532" y2="811.2904866594336"/><line class="hatch-slab" x1="530" y1="787.2904866594336" x2="538" y2="811.2904866594336"/><line class="hatch-slab" x1="536" y1="787.2904866594336" x2="544" y2="811.2904866594336"/><line class="hatch-slab" x1="542" y1="787.2904866594336" x2="550" y2="811.2904866594336"/><line class="hatch-slab" x1="548" y1="787.2904866594336" x2="556" y2="811.2904866594336"/><line class="hatch-slab" x1="554" y1="787.2904866594336" x2="562" y2="811.2904866594336"/><line class="hatch-slab" x1="560" y1="787.2904866594336" x2="568" y2="811.2904866594336"/><line class="hatch-slab" x1="566" y1="787.2904866594336" x2="574" y2="811.2904866594336"/><line class="hatch-slab" x1="572" y1="787.2904866594336" x2="580" y2="811.2904866594336"/><line class="hatch-slab" x1="578" y1="787.2904866594336" x2="586" y2="811.2904866594336"/><line class="hatch-slab" x1="584" y1="787.2904866594336" x2="592" y2="811.2904866594336"/><line class="hatch-slab" x1="590" y1="787.2904866594336" x2="598" y2="811.2904866594336"/><line class="hatch-slab" x1="596" y1="787.2904866594336" x2="604" y2="811.2904866594336"/><line class="hatch-slab" x1="602" y1="787.2904866594336" x2="610" y2="811.2904866594336"/><line class="hatch-slab" x1="608" y1="787.2904866594336" x2="616" y2="811.2904866594336"/><line class="hatch-slab" x1="614" y1="787.2904866594336" x2="622" y2="811.2904866594336"/><line class="hatch-slab" x1="620" y1="787.2904866594336" x2="628" y2="811.2904866594336"/><line class="hatch-slab" x1="626" y1="787.2904866594336" x2="634" y2="811.2904866594336"/><line class="hatch-slab" x1="632" y1="787.2904866594336" x2="640" y2="811.2904866594336"/><line class="hatch-slab" x1="638" y1="787.2904866594336" x2="646" y2="811.2904866594336"/><line class="hatch-slab" x1="644" y1="787.2904866594336" x2="652" y2="811.2904866594336"/><line class="hatch-slab" x1="650" y1="787.2904866594336" x2="658" y2="811.2904866594336"/><line class="hatch-slab" x1="656" y1="787.2904866594336" x2="664" y2="811.2904866594336"/><line class="hatch-slab" x1="662" y1="787.2904866594336" x2="670" y2="811.2904866594336"/><line class="hatch-slab" x1="668" y1="787.2904866594336" x2="676" y2="811.2904866594336"/><line class="hatch-slab" x1="674" y1="787.2904866594336" x2="682" y2="811.2904866594336"/><line class="hatch-slab" x1="680" y1="787.2904866594336" x2="688" y2="811.2904866594336"/><line class="hatch-slab" x1="686" y1="787.2904866594336" x2="694" y2="811.2904866594336"/><line class="hatch-slab" x1="692" y1="787.2904866594336" x2="700" y2="811.2904866594336"/><line class="hatch-slab" x1="698" y1="787.2904866594336" x2="706" y2="811.2904866594336"/><line class="hatch-slab" x1="704" y1="787.2904866594336" x2="712" y2="811.2904866594336"/><line class="hatch-slab" x1="710" y1="787.2904866594336" x2="718" y2="811.2904866594336"/><line class="hatch-slab" x1="716" y1="787.2904866594336" x2="724" y2="811.2904866594336"/><line class="hatch-slab" x1="722" y1="787.2904866594336" x2="730" y2="811.2904866594336"/><line class="hatch-slab" x1="728" y1="787.2904866594336" x2="736" y2="811.2904866594336"/><line class="hatch-slab" x1="734" y1="787.2904866594336" x2="742" y2="811.2904866594336"/><line class="hatch-slab" x1="740" y1="787.2904866594336" x2="748" y2="811.2904866594336"/><line class="hatch-slab" x1="746" y1="787.2904866594336" x2="754" y2="811.2904866594336"/><line class="hatch-slab" x1="752" y1="787.2904866594336" x2="760" y2="811.2904866594336"/><line class="hatch-slab" x1="758" y1="787.2904866594336" x2="766" y2="811.2904866594336"/><line class="hatch-slab" x1="764" y1="787.2904866594336" x2="772" y2="811.2904866594336"/><line class="hatch-slab" x1="770" y1="787.2904866594336" x2="778" y2="811.2904866594336"/><line class="hatch-slab" x1="776" y1="787.2904866594336" x2="784" y2="811.2904866594336"/><line class="hatch-slab" x1="782" y1="787.2904866594336" x2="790" y2="811.2904866594336"/><line class="hatch-slab" x1="788" y1="787.2904866594336" x2="796" y2="811.2904866594336"/><line class="hatch-slab" x1="794" y1="787.2904866594336" x2="802" y2="811.2904866594336"/><line class="hatch-slab" x1="800" y1="787.2904866594336" x2="808" y2="811.2904866594336"/><line class="hatch-slab" x1="806" y1="787.2904866594336" x2="814" y2="811.2904866594336"/><line class="hatch-slab" x1="812" y1="787.2904866594336" x2="820" y2="811.2904866594336"/><line class="hatch-slab" x1="818" y1="787.2904866594336" x2="826" y2="811.2904866594336"/><line class="hatch-slab" x1="824" y1="787.2904866594336" x2="832" y2="811.2904866594336"/><line class="hatch-slab" x1="830" y1="787.2904866594336" x2="838" y2="811.2904866594336"/><line class="hatch-slab" x1="836" y1="787.2904866594336" x2="844" y2="811.2904866594336"/><line class="hatch-slab" x1="842" y1="787.2904866594336" x2="850" y2="811.2904866594336"/><line class="hatch-slab" x1="848" y1="787.2904866594336" x2="856" y2="811.2904866594336"/><line class="hatch-slab" x1="854" y1="787.2904866594336" x2="862" y2="811.2904866594336"/><line class="hatch-slab" x1="860" y1="787.2904866594336" x2="868" y2="811.2904866594336"/><line class="hatch-slab" x1="866" y1="787.2904866594336" x2="874" y2="811.2904866594336"/><line class="hatch-slab" x1="872" y1="787.2904866594336" x2="880" y2="811.2904866594336"/><line class="hatch-slab" x1="878" y1="787.2904866594336" x2="886" y2="811.2904866594336"/><line class="hatch-slab" x1="884" y1="787.2904866594336" x2="892" y2="811.2904866594336"/><line class="hatch-slab" x1="890" y1="787.2904866594336" x2="898" y2="811.2904866594336"/><line class="hatch-slab" x1="896" y1="787.2904866594336" x2="904" y2="811.2904866594336"/><line class="hatch-slab" x1="902" y1="787.2904866594336" x2="910" y2="811.2904866594336"/><line class="hatch-slab" x1="908" y1="787.2904866594336" x2="916" y2="811.2904866594336"/><line class="hatch-slab" x1="914" y1="787.2904866594336" x2="922" y2="811.2904866594336"/><line class="hatch-slab" x1="920" y1="787.2904866594336" x2="928" y2="811.2904866594336"/><line class="hatch-slab" x1="926" y1="787.2904866594336" x2="934" y2="811.2904866594336"/><line class="hatch-slab" x1="932" y1="787.2904866594336" x2="940" y2="811.2904866594336"/><line class="hatch-slab" x1="938" y1="787.2904866594336" x2="946" y2="811.2904866594336"/><line class="hatch-slab" x1="944" y1="787.2904866594336" x2="952" y2="811.2904866594336"/><line class="hatch-slab" x1="950" y1="787.2904866594336" x2="958" y2="811.2904866594336"/><line class="hatch-slab" x1="956" y1="787.2904866594336" x2="964" y2="811.2904866594336"/><line class="hatch-slab" x1="962" y1="787.2904866594336" x2="970" y2="811.2904866594336"/><line class="hatch-slab" x1="968" y1="787.2904866594336" x2="976" y2="811.2904866594336"/><line class="hatch-slab" x1="974" y1="787.2904866594336" x2="982" y2="811.2904866594336"/><line class="hatch-slab" x1="980" y1="787.2904866594336" x2="988" y2="811.2904866594336"/><line class="hatch-slab" x1="986" y1="787.2904866594336" x2="994" y2="811.2904866594336"/><line class="hatch-slab" x1="992" y1="787.2904866594336" x2="1000" y2="811.2904866594336"/><line class="hatch-slab" x1="998" y1="787.2904866594336" x2="1006" y2="811.2904866594336"/><line class="hatch-slab" x1="1004" y1="787.2904866594336" x2="1012" y2="811.2904866594336"/><line class="hatch-slab" x1="1010" y1="787.2904866594336" x2="1018" y2="811.2904866594336"/><line class="hatch-slab" x1="1016" y1="787.2904866594336" x2="1024" y2="811.2904866594336"/><line class="hatch-slab" x1="1022" y1="787.2904866594336" x2="1030" y2="811.2904866594336"/><line class="hatch-slab" x1="1028" y1="787.2904866594336" x2="1036" y2="811.2904866594336"/><line class="hatch-slab" x1="1034" y1="787.2904866594336" x2="1042" y2="811.2904866594336"/><text class="room-label" x="-16.403727602650747" y="691.2904866594336">Kitchen-Dining</text><text class="room-label" x="793.7544286504449" y="691.2904866594336">Living Room</text><text class="room-label" x="276.9865469793489" y="691.2904866594336">Hallway</text><rect class="room-fill" x="164" y="355.29048665943355" width="872" height="196"/><rect class="slab-cut" x="164" y="551.2904866594336" width="872" height="20"/><line class="hatch-slab" x1="164" y1="551.2904866594336" x2="172" y2="571.2904866594336"/><line class="hatch-slab" x1="170" y1="551.2904866594336" x2="178" y2="571.2904866594336"/><line class="hatch-slab" x1="176" y1="551.2904866594336" x2="184" y2="571.2904866594336"/><line class="hatch-slab" x1="182" y1="551.2904866594336" x2="190" y2="571.2904866594336"/><line class="hatch-slab" x1="188" y1="551.2904866594336" x2="196" y2="571.2904866594336"/><line class="hatch-slab" x1="194" y1="551.2904866594336" x2="202" y2="571.2904866594336"/><line class="hatch-slab" x1="200" y1="551.2904866594336" x2="208" y2="571.2904866594336"/><line class="hatch-slab" x1="206" y1="551.2904866594336" x2="214" y2="571.2904866594336"/><line class="hatch-slab" x1="212" y1="551.2904866594336" x2="220" y2="571.2904866594336"/><line class="hatch-slab" x1="218" y1="551.2904866594336" x2="226" y2="571.2904866594336"/><line class="hatch-slab" x1="224" y1="551.2904866594336" x2="232" y2="571.2904866594336"/><line class="hatch-slab" x1="230" y1="551.2904866594336" x2="238" y2="571.2904866594336"/><line class="hatch-slab" x1="236" y1="551.2904866594336" x2="244" y2="571.2904866594336"/><line class="hatch-slab" x1="242" y1="551.2904866594336" x2="250" y2="571.2904866594336"/><line class="hatch-slab" x1="248" y1="551.2904866594336" x2="256" y2="571.2904866594336"/><line class="hatch-slab" x1="254" y1="551.2904866594336" x2="262" y2="571.2904866594336"/><line class="hatch-slab" x1="260" y1="551.2904866594336" x2="268" y2="571.2904866594336"/><line class="hatch-slab" x1="266" y1="551.2904866594336" x2="274" y2="571.2904866594336"/><line class="hatch-slab" x1="272" y1="551.2904866594336" x2="280" y2="571.2904866594336"/><line class="hatch-slab" x1="278" y1="551.2904866594336" x2="286" y2="571.2904866594336"/><line class="hatch-slab" x1="284" y1="551.2904866594336" x2="292" y2="571.2904866594336"/><line class="hatch-slab" x1="290" y1="551.2904866594336" x2="298" y2="571.2904866594336"/><line class="hatch-slab" x1="296" y1="551.2904866594336" x2="304" y2="571.2904866594336"/><line class="hatch-slab" x1="302" y1="551.2904866594336" x2="310" y2="571.2904866594336"/><line class="hatch-slab" x1="308" y1="551.2904866594336" x2="316" y2="571.2904866594336"/><line class="hatch-slab" x1="314" y1="551.2904866594336" x2="322" y2="571.2904866594336"/><line class="hatch-slab" x1="320" y1="551.2904866594336" x2="328" y2="571.2904866594336"/><line class="hatch-slab" x1="326" y1="551.2904866594336" x2="334" y2="571.2904866594336"/><line class="hatch-slab" x1="332" y1="551.2904866594336" x2="340" y2="571.2904866594336"/><line class="hatch-slab" x1="338" y1="551.2904866594336" x2="346" y2="571.2904866594336"/><line class="hatch-slab" x1="344" y1="551.2904866594336" x2="352" y2="571.2904866594336"/><line class="hatch-slab" x1="350" y1="551.2904866594336" x2="358" y2="571.2904866594336"/><line class="hatch-slab" x1="356" y1="551.2904866594336" x2="364" y2="571.2904866594336"/><line class="hatch-slab" x1="362" y1="551.2904866594336" x2="370" y2="571.2904866594336"/><line class="hatch-slab" x1="368" y1="551.2904866594336" x2="376" y2="571.2904866594336"/><line class="hatch-slab" x1="374" y1="551.2904866594336" x2="382" y2="571.2904866594336"/><line class="hatch-slab" x1="380" y1="551.2904866594336" x2="388" y2="571.2904866594336"/><line class="hatch-slab" x1="386" y1="551.2904866594336" x2="394" y2="571.2904866594336"/><line class="hatch-slab" x1="392" y1="551.2904866594336" x2="400" y2="571.2904866594336"/><line class="hatch-slab" x1="398" y1="551.2904866594336" x2="406" y2="571.2904866594336"/><line class="hatch-slab" x1="404" y1="551.2904866594336" x2="412" y2="571.2904866594336"/><line class="hatch-slab" x1="410" y1="551.2904866594336" x2="418" y2="571.2904866594336"/><line class="hatch-slab" x1="416" y1="551.2904866594336" x2="424" y2="571.2904866594336"/><line class="hatch-slab" x1="422" y1="551.2904866594336" x2="430" y2="571.2904866594336"/><line class="hatch-slab" x1="428" y1="551.2904866594336" x2="436" y2="571.2904866594336"/><line class="hatch-slab" x1="434" y1="551.2904866594336" x2="442" y2="571.2904866594336"/><line class="hatch-slab" x1="440" y1="551.2904866594336" x2="448" y2="571.2904866594336"/><line class="hatch-slab" x1="446" y1="551.2904866594336" x2="454" y2="571.2904866594336"/><line class="hatch-slab" x1="452" y1="551.2904866594336" x2="460" y2="571.2904866594336"/><line class="hatch-slab" x1="458" y1="551.2904866594336" x2="466" y2="571.2904866594336"/><line class="hatch-slab" x1="464" y1="551.2904866594336" x2="472" y2="571.2904866594336"/><line class="hatch-slab" x1="470" y1="551.2904866594336" x2="478" y2="571.2904866594336"/><line class="hatch-slab" x1="476" y1="551.2904866594336" x2="484" y2="571.2904866594336"/><line class="hatch-slab" x1="482" y1="551.2904866594336" x2="490" y2="571.2904866594336"/><line class="hatch-slab" x1="488" y1="551.2904866594336" x2="496" y2="571.2904866594336"/><line class="hatch-slab" x1="494" y1="551.2904866594336" x2="502" y2="571.2904866594336"/><line class="hatch-slab" x1="500" y1="551.2904866594336" x2="508" y2="571.2904866594336"/><line class="hatch-slab" x1="506" y1="551.2904866594336" x2="514" y2="571.2904866594336"/><line class="hatch-slab" x1="512" y1="551.2904866594336" x2="520" y2="571.2904866594336"/><line class="hatch-slab" x1="518" y1="551.2904866594336" x2="526" y2="571.2904866594336"/><line class="hatch-slab" x1="524" y1="551.2904866594336" x2="532" y2="571.2904866594336"/><line class="hatch-slab" x1="530" y1="551.2904866594336" x2="538" y2="571.2904866594336"/><line class="hatch-slab" x1="536" y1="551.2904866594336" x2="544" y2="571.2904866594336"/><line class="hatch-slab" x1="542" y1="551.2904866594336" x2="550" y2="571.2904866594336"/><line class="hatch-slab" x1="548" y1="551.2904866594336" x2="556" y2="571.2904866594336"/><line class="hatch-slab" x1="554" y1="551.2904866594336" x2="562" y2="571.2904866594336"/><line class="hatch-slab" x1="560" y1="551.2904866594336" x2="568" y2="571.2904866594336"/><line class="hatch-slab" x1="566" y1="551.2904866594336" x2="574" y2="571.2904866594336"/><line class="hatch-slab" x1="572" y1="551.2904866594336" x2="580" y2="571.2904866594336"/><line class="hatch-slab" x1="578" y1="551.2904866594336" x2="586" y2="571.2904866594336"/><line class="hatch-slab" x1="584" y1="551.2904866594336" x2="592" y2="571.2904866594336"/><line class="hatch-slab" x1="590" y1="551.2904866594336" x2="598" y2="571.2904866594336"/><line class="hatch-slab" x1="596" y1="551.2904866594336" x2="604" y2="571.2904866594336"/><line class="hatch-slab" x1="602" y1="551.2904866594336" x2="610" y2="571.2904866594336"/><line class="hatch-slab" x1="608" y1="551.2904866594336" x2="616" y2="571.2904866594336"/><line class="hatch-slab" x1="614" y1="551.2904866594336" x2="622" y2="571.2904866594336"/><line class="hatch-slab" x1="620" y1="551.2904866594336" x2="628" y2="571.2904866594336"/><line class="hatch-slab" x1="626" y1="551.2904866594336" x2="634" y2="571.2904866594336"/><line class="hatch-slab" x1="632" y1="551.2904866594336" x2="640" y2="571.2904866594336"/><line class="hatch-slab" x1="638" y1="551.2904866594336" x2="646" y2="571.2904866594336"/><line class="hatch-slab" x1="644" y1="551.2904866594336" x2="652" y2="571.2904866594336"/><line class="hatch-slab" x1="650" y1="551.2904866594336" x2="658" y2="571.2904866594336"/><line class="hatch-slab" x1="656" y1="551.2904866594336" x2="664" y2="571.2904866594336"/><line class="hatch-slab" x1="662" y1="551.2904866594336" x2="670" y2="571.2904866594336"/><line class="hatch-slab" x1="668" y1="551.2904866594336" x2="676" y2="571.2904866594336"/><line class="hatch-slab" x1="674" y1="551.2904866594336" x2="682" y2="571.2904866594336"/><line class="hatch-slab" x1="680" y1="551.2904866594336" x2="688" y2="571.2904866594336"/><line class="hatch-slab" x1="686" y1="551.2904866594336" x2="694" y2="571.2904866594336"/><line class="hatch-slab" x1="692" y1="551.2904866594336" x2="700" y2="571.2904866594336"/><line class="hatch-slab" x1="698" y1="551.2904866594336" x2="706" y2="571.2904866594336"/><line class="hatch-slab" x1="704" y1="551.2904866594336" x2="712" y2="571.2904866594336"/><line class="hatch-slab" x1="710" y1="551.2904866594336" x2="718" y2="571.2904866594336"/><line class="hatch-slab" x1="716" y1="551.2904866594336" x2="724" y2="571.2904866594336"/><line class="hatch-slab" x1="722" y1="551.2904866594336" x2="730" y2="571.2904866594336"/><line class="hatch-slab" x1="728" y1="551.2904866594336" x2="736" y2="571.2904866594336"/><line class="hatch-slab" x1="734" y1="551.2904866594336" x2="742" y2="571.2904866594336"/><line class="hatch-slab" x1="740" y1="551.2904866594336" x2="748" y2="571.2904866594336"/><line class="hatch-slab" x1="746" y1="551.2904866594336" x2="754" y2="571.2904866594336"/><line class="hatch-slab" x1="752" y1="551.2904866594336" x2="760" y2="571.2904866594336"/><line class="hatch-slab" x1="758" y1="551.2904866594336" x2="766" y2="571.2904866594336"/><line class="hatch-slab" x1="764" y1="551.2904866594336" x2="772" y2="571.2904866594336"/><line class="hatch-slab" x1="770" y1="551.2904866594336" x2="778" y2="571.2904866594336"/><line class="hatch-slab" x1="776" y1="551.2904866594336" x2="784" y2="571.2904866594336"/><line class="hatch-slab" x1="782" y1="551.2904866594336" x2="790" y2="571.2904866594336"/><line class="hatch-slab" x1="788" y1="551.2904866594336" x2="796" y2="571.2904866594336"/><line class="hatch-slab" x1="794" y1="551.2904866594336" x2="802" y2="571.2904866594336"/><line class="hatch-slab" x1="800" y1="551.2904866594336" x2="808" y2="571.2904866594336"/><line class="hatch-slab" x1="806" y1="551.2904866594336" x2="814" y2="571.2904866594336"/><line class="hatch-slab" x1="812" y1="551.2904866594336" x2="820" y2="571.2904866594336"/><line class="hatch-slab" x1="818" y1="551.2904866594336" x2="826" y2="571.2904866594336"/><line class="hatch-slab" x1="824" y1="551.2904866594336" x2="832" y2="571.2904866594336"/><line class="hatch-slab" x1="830" y1="551.2904866594336" x2="838" y2="571.2904866594336"/><line class="hatch-slab" x1="836" y1="551.2904866594336" x2="844" y2="571.2904866594336"/><line class="hatch-slab" x1="842" y1="551.2904866594336" x2="850" y2="571.2904866594336"/><line class="hatch-slab" x1="848" y1="551.2904866594336" x2="856" y2="571.2904866594336"/><line class="hatch-slab" x1="854" y1="551.2904866594336" x2="862" y2="571.2904866594336"/><line class="hatch-slab" x1="860" y1="551.2904866594336" x2="868" y2="571.2904866594336"/><line class="hatch-slab" x1="866" y1="551.2904866594336" x2="874" y2="571.2904866594336"/><line class="hatch-slab" x1="872" y1="551.2904866594336" x2="880" y2="571.2904866594336"/><line class="hatch-slab" x1="878" y1="551.2904866594336" x2="886" y2="571.2904866594336"/><line class="hatch-slab" x1="884" y1="551.2904866594336" x2="892" y2="571.2904866594336"/><line class="hatch-slab" x1="890" y1="551.2904866594336" x2="898" y2="571.2904866594336"/><line class="hatch-slab" x1="896" y1="551.2904866594336" x2="904" y2="571.2904866594336"/><line class="hatch-slab" x1="902" y1="551.2904866594336" x2="910" y2="571.2904866594336"/><line class="hatch-slab" x1="908" y1="551.2904866594336" x2="916" y2="571.2904866594336"/><line class="hatch-slab" x1="914" y1="551.2904866594336" x2="922" y2="571.2904866594336"/><line class="hatch-slab" x1="920" y1="551.2904866594336" x2="928" y2="571.2904866594336"/><line class="hatch-slab" x1="926" y1="551.2904866594336" x2="934" y2="571.2904866594336"/><line class="hatch-slab" x1="932" y1="551.2904866594336" x2="940" y2="571.2904866594336"/><line class="hatch-slab" x1="938" y1="551.2904866594336" x2="946" y2="571.2904866594336"/><line class="hatch-slab" x1="944" y1="551.2904866594336" x2="952" y2="571.2904866594336"/><line class="hatch-slab" x1="950" y1="551.2904866594336" x2="958" y2="571.2904866594336"/><line class="hatch-slab" x1="956" y1="551.2904866594336" x2="964" y2="571.2904866594336"/><line class="hatch-slab" x1="962" y1="551.2904866594336" x2="970" y2="571.2904866594336"/><line class="hatch-slab" x1="968" y1="551.2904866594336" x2="976" y2="571.2904866594336"/><line class="hatch-slab" x1="974" y1="551.2904866594336" x2="982" y2="571.2904866594336"/><line class="hatch-slab" x1="980" y1="551.2904866594336" x2="988" y2="571.2904866594336"/><line class="hatch-slab" x1="986" y1="551.2904866594336" x2="994" y2="571.2904866594336"/><line class="hatch-slab" x1="992" y1="551.2904866594336" x2="1000" y2="571.2904866594336"/><line class="hatch-slab" x1="998" y1="551.2904866594336" x2="1006" y2="571.2904866594336"/><line class="hatch-slab" x1="1004" y1="551.2904866594336" x2="1012" y2="571.2904866594336"/><line class="hatch-slab" x1="1010" y1="551.2904866594336" x2="1018" y2="571.2904866594336"/><line class="hatch-slab" x1="1016" y1="551.2904866594336" x2="1024" y2="571.2904866594336"/><line class="hatch-slab" x1="1022" y1="551.2904866594336" x2="1030" y2="571.2904866594336"/><line class="hatch-slab" x1="1028" y1="551.2904866594336" x2="1036" y2="571.2904866594336"/><line class="hatch-slab" x1="1034" y1="551.2904866594336" x2="1042" y2="571.2904866594336"/><text class="room-label" x="603.0287711364022" y="463.29048665943355">Master Bedroom</text><text class="room-label" x="896.015253162974" y="463.29048665943355">Bedroom 2</text><text class="room-label" x="292.37447862990086" y="463.29048665943355">Bedroom 3</text><text class="room-label" x="515.3545769568652" y="463.29048665943355">Bathroom</text><text class="room-label" x="724.2693069679733" y="463.29048665943355">En-suite</text></g><g id="cut-walls"><rect class="wall-external-cut" x="140" y="355.29048665943355" width="24" height="456"/><rect class="wall-external-cut" x="1036" y="355.29048665943355" width="24" height="456"/><line class="hatch" x1="140" y1="811.2904866594336" x2="164" y2="805.2904866594336"/><line class="hatch" x1="1036" y1="811.2904866594336" x2="1060" y2="805.2904866594336"/><line class="hatch" x1="140" y1="807.2904866594336" x2="164" y2="801.2904866594336"/><line class="hatch" x1="1036" y1="807.2904866594336" x2="1060" y2="801.2904866594336"/><line class="hatch" x1="140" y1="803.2904866594336" x2="164" y2="797.2904866594336"/><line class="hatch" x1="1036" y1="803.2904866594336" x2="1060" y2="797.2904866594336"/><line class="hatch" x1="140" y1="799.2904866594336" x2="164" y2="793.2904866594336"/><line class="hatch" x1="1036" y1="799.2904866594336" x2="1060" y2="793.2904866594336"/><line class="hatch" x1="140" y1="795.2904866594336" x2="164" y2="789.2904866594336"/><line class="hatch" x1="1036" y1="795.2904866594336" x2="1060" y2="789.2904866594336"/><line class="hatch" x1="140" y1="791.2904866594336" x2="164" y2="785.2904866594336"/><line class="hatch" x1="1036" y1="791.2904866594336" x2="1060" y2="785.2904866594336"/><line class="hatch" x1="140" y1="787.2904866594336" x2="164" y2="781.2904866594336"/><line class="hatch" x1="1036" y1="787.2904866594336" x2="1060" y2="781.2904866594336"/><line class="hatch" x1="140" y1="783.2904866594336" x2="164" y2="777.2904866594336"/><line class="hatch" x1="1036" y1="783.2904866594336" x2="1060" y2="777.2904866594336"/><line class="hatch" x1="140" y1="779.2904866594336" x2="164" y2="773.2904866594336"/><line class="hatch" x1="1036" y1="779.2904866594336" x2="1060" y2="773.2904866594336"/><line class="hatch" x1="140" y1="775.2904866594336" x2="164" y2="769.2904866594336"/><line class="hatch" x1="1036" y1="775.2904866594336" x2="1060" y2="769.2904866594336"/><line class="hatch" x1="140" y1="771.2904866594336" x2="164" y2="765.2904866594336"/><line class="hatch" x1="1036" y1="771.2904866594336" x2="1060" y2="765.2904866594336"/><line class="hatch" x1="140" y1="767.2904866594336" x2="164" y2="761.2904866594336"/><line class="hatch" x1="1036" y1="767.2904866594336" x2="1060" y2="761.2904866594336"/><line class="hatch" x1="140" y1="763.2904866594336" x2="164" y2="757.2904866594336"/><line class="hatch" x1="1036" y1="763.2904866594336" x2="1060" y2="757.2904866594336"/><line class="hatch" x1="140" y1="759.2904866594336" x2="164" y2="753.2904866594336"/><line class="hatch" x1="1036" y1="759.2904866594336" x2="1060" y2="753.2904866594336"/><line class="hatch" x1="140" y1="755.2904866594336" x2="164" y2="749.2904866594336"/><line class="hatch" x1="1036" y1="755.2904866594336" x2="1060" y2="749.2904866594336"/><line class="hatch" x1="140" y1="751.2904866594336" x2="164" y2="745.2904866594336"/><line class="hatch" x1="1036" y1="751.2904866594336" x2="1060" y2="745.2904866594336"/><line class="hatch" x1="140" y1="747.2904866594336" x2="164" y2="741.2904866594336"/><line class="hatch" x1="1036" y1="747.2904866594336" x2="1060" y2="741.2904866594336"/><line class="hatch" x1="140" y1="743.2904866594336" x2="164" y2="737.2904866594336"/><line class="hatch" x1="1036" y1="743.2904866594336" x2="1060" y2="737.2904866594336"/><line class="hatch" x1="140" y1="739.2904866594336" x2="164" y2="733.2904866594336"/><line class="hatch" x1="1036" y1="739.2904866594336" x2="1060" y2="733.2904866594336"/><line class="hatch" x1="140" y1="735.2904866594336" x2="164" y2="729.2904866594336"/><line class="hatch" x1="1036" y1="735.2904866594336" x2="1060" y2="729.2904866594336"/><line class="hatch" x1="140" y1="731.2904866594336" x2="164" y2="725.2904866594336"/><line class="hatch" x1="1036" y1="731.2904866594336" x2="1060" y2="725.2904866594336"/><line class="hatch" x1="140" y1="727.2904866594336" x2="164" y2="721.2904866594336"/><line class="hatch" x1="1036" y1="727.2904866594336" x2="1060" y2="721.2904866594336"/><line class="hatch" x1="140" y1="723.2904866594336" x2="164" y2="717.2904866594336"/><line class="hatch" x1="1036" y1="723.2904866594336" x2="1060" y2="717.2904866594336"/><line class="hatch" x1="140" y1="719.2904866594336" x2="164" y2="713.2904866594336"/><line class="hatch" x1="1036" y1="719.2904866594336" x2="1060" y2="713.2904866594336"/><line class="hatch" x1="140" y1="715.2904866594336" x2="164" y2="709.2904866594336"/><line class="hatch" x1="1036" y1="715.2904866594336" x2="1060" y2="709.2904866594336"/><line class="hatch" x1="140" y1="711.2904866594336" x2="164" y2="705.2904866594336"/><line class="hatch" x1="1036" y1="711.2904866594336" x2="1060" y2="705.2904866594336"/><line class="hatch" x1="140" y1="707.2904866594336" x2="164" y2="701.2904866594336"/><line class="hatch" x1="1036" y1="707.2904866594336" x2="1060" y2="701.2904866594336"/><line class="hatch" x1="140" y1="703.2904866594336" x2="164" y2="697.2904866594336"/><line class="hatch" x1="1036" y1="703.2904866594336" x2="1060" y2="697.2904866594336"/><line class="hatch" x1="140" y1="699.2904866594336" x2="164" y2="693.2904866594336"/><line class="hatch" x1="1036" y1="699.2904866594336" x2="1060" y2="693.2904866594336"/><line class="hatch" x1="140" y1="695.2904866594336" x2="164" y2="689.2904866594336"/><line class="hatch" x1="1036" y1="695.2904866594336" x2="1060" y2="689.2904866594336"/><line class="hatch" x1="140" y1="691.2904866594336" x2="164" y2="685.2904866594336"/><line class="hatch" x1="1036" y1="691.2904866594336" x2="1060" y2="685.2904866594336"/><line class="hatch" x1="140" y1="687.2904866594336" x2="164" y2="681.2904866594336"/><line class="hatch" x1="1036" y1="687.2904866594336" x2="1060" y2="681.2904866594336"/><line class="hatch" x1="140" y1="683.2904866594336" x2="164" y2="677.2904866594336"/><line class="hatch" x1="1036" y1="683.2904866594336" x2="1060" y2="677.2904866594336"/><line class="hatch" x1="140" y1="679.2904866594336" x2="164" y2="673.2904866594336"/><line class="hatch" x1="1036" y1="679.2904866594336" x2="1060" y2="673.2904866594336"/><line class="hatch" x1="140" y1="675.2904866594336" x2="164" y2="669.2904866594336"/><line class="hatch" x1="1036" y1="675.2904866594336" x2="1060" y2="669.2904866594336"/><line class="hatch" x1="140" y1="671.2904866594336" x2="164" y2="665.2904866594336"/><line class="hatch" x1="1036" y1="671.2904866594336" x2="1060" y2="665.2904866594336"/><line class="hatch" x1="140" y1="667.2904866594336" x2="164" y2="661.2904866594336"/><line class="hatch" x1="1036" y1="667.2904866594336" x2="1060" y2="661.2904866594336"/><line class="hatch" x1="140" y1="663.2904866594336" x2="164" y2="657.2904866594336"/><line class="hatch" x1="1036" y1="663.2904866594336" x2="1060" y2="657.2904866594336"/><line class="hatch" x1="140" y1="659.2904866594336" x2="164" y2="653.2904866594336"/><line class="hatch" x1="1036" y1="659.2904866594336" x2="1060" y2="653.2904866594336"/><line class="hatch" x1="140" y1="655.2904866594336" x2="164" y2="649.2904866594336"/><line class="hatch" x1="1036" y1="655.2904866594336" x2="1060" y2="649.2904866594336"/><line class="hatch" x1="140" y1="651.2904866594336" x2="164" y2="645.2904866594336"/><line class="hatch" x1="1036" y1="651.2904866594336" x2="1060" y2="645.2904866594336"/><line class="hatch" x1="140" y1="647.2904866594336" x2="164" y2="641.2904866594336"/><line class="hatch" x1="1036" y1="647.2904866594336" x2="1060" y2="641.2904866594336"/><line class="hatch" x1="140" y1="643.2904866594336" x2="164" y2="637.2904866594336"/><line class="hatch" x1="1036" y1="643.2904866594336" x2="1060" y2="637.2904866594336"/><line class="hatch" x1="140" y1="639.2904866594336" x2="164" y2="633.2904866594336"/><line class="hatch" x1="1036" y1="639.2904866594336" x2="1060" y2="633.2904866594336"/><line class="hatch" x1="140" y1="635.2904866594336" x2="164" y2="629.2904866594336"/><line class="hatch" x1="1036" y1="635.2904866594336" x2="1060" y2="629.2904866594336"/><line class="hatch" x1="140" y1="631.2904866594336" x2="164" y2="625.2904866594336"/><line class="hatch" x1="1036" y1="631.2904866594336" x2="1060" y2="625.2904866594336"/><line class="hatch" x1="140" y1="627.2904866594336" x2="164" y2="621.2904866594336"/><line class="hatch" x1="1036" y1="627.2904866594336" x2="1060" y2="621.2904866594336"/><line class="hatch" x1="140" y1="623.2904866594336" x2="164" y2="617.2904866594336"/><line class="hatch" x1="1036" y1="623.2904866594336" x2="1060" y2="617.2904866594336"/><line class="hatch" x1="140" y1="619.2904866594336" x2="164" y2="613.2904866594336"/><line class="hatch" x1="1036" y1="619.2904866594336" x2="1060" y2="613.2904866594336"/><line class="hatch" x1="140" y1="615.2904866594336" x2="164" y2="609.2904866594336"/><line class="hatch" x1="1036" y1="615.2904866594336" x2="1060" y2="609.2904866594336"/><line class="hatch" x1="140" y1="611.2904866594336" x2="164" y2="605.2904866594336"/><line class="hatch" x1="1036" y1="611.2904866594336" x2="1060" y2="605.2904866594336"/><line class="hatch" x1="140" y1="607.2904866594336" x2="164" y2="601.2904866594336"/><line class="hatch" x1="1036" y1="607.2904866594336" x2="1060" y2="601.2904866594336"/><line class="hatch" x1="140" y1="603.2904866594336" x2="164" y2="597.2904866594336"/><line class="hatch" x1="1036" y1="603.2904866594336" x2="1060" y2="597.2904866594336"/><line class="hatch" x1="140" y1="599.2904866594336" x2="164" y2="593.2904866594336"/><line class="hatch" x1="1036" y1="599.2904866594336" x2="1060" y2="593.2904866594336"/><line class="hatch" x1="140" y1="595.2904866594336" x2="164" y2="589.2904866594336"/><line class="hatch" x1="1036" y1="595.2904866594336" x2="1060" y2="589.2904866594336"/><line class="hatch" x1="140" y1="591.2904866594336" x2="164" y2="585.2904866594336"/><line class="hatch" x1="1036" y1="591.2904866594336" x2="1060" y2="585.2904866594336"/><line class="hatch" x1="140" y1="587.2904866594336" x2="164" y2="581.2904866594336"/><line class="hatch" x1="1036" y1="587.2904866594336" x2="1060" y2="581.2904866594336"/><line class="hatch" x1="140" y1="583.2904866594336" x2="164" y2="577.2904866594336"/><line class="hatch" x1="1036" y1="583.2904866594336" x2="1060" y2="577.2904866594336"/><line class="hatch" x1="140" y1="579.2904866594336" x2="164" y2="573.2904866594336"/><line class="hatch" x1="1036" y1="579.2904866594336" x2="1060" y2="573.2904866594336"/><line class="hatch" x1="140" y1="575.2904866594336" x2="164" y2="569.2904866594336"/><line class="hatch" x1="1036" y1="575.2904866594336" x2="1060" y2="569.2904866594336"/><line class="hatch" x1="140" y1="571.2904866594336" x2="164" y2="565.2904866594336"/><line class="hatch" x1="1036" y1="571.2904866594336" x2="1060" y2="565.2904866594336"/><line class="hatch" x1="140" y1="567.2904866594336" x2="164" y2="561.2904866594336"/><line class="hatch" x1="1036" y1="567.2904866594336" x2="1060" y2="561.2904866594336"/><line class="hatch" x1="140" y1="563.2904866594336" x2="164" y2="557.2904866594336"/><line class="hatch" x1="1036" y1="563.2904866594336" x2="1060" y2="557.2904866594336"/><line class="hatch" x1="140" y1="559.2904866594336" x2="164" y2="553.2904866594336"/><line class="hatch" x1="1036" y1="559.2904866594336" x2="1060" y2="553.2904866594336"/><line class="hatch" x1="140" y1="555.2904866594336" x2="164" y2="549.2904866594336"/><line class="hatch" x1="1036" y1="555.2904866594336" x2="1060" y2="549.2904866594336"/><line class="hatch" x1="140" y1="551.2904866594336" x2="164" y2="545.2904866594336"/><line class="hatch" x1="1036" y1="551.2904866594336" x2="1060" y2="545.2904866594336"/><line class="hatch" x1="140" y1="547.2904866594336" x2="164" y2="541.2904866594336"/><line class="hatch" x1="1036" y1="547.2904866594336" x2="1060" y2="541.2904866594336"/><line class="hatch" x1="140" y1="543.2904866594336" x2="164" y2="537.2904866594336"/><line class="hatch" x1="1036" y1="543.2904866594336" x2="1060" y2="537.2904866594336"/><line class="hatch" x1="140" y1="539.2904866594336" x2="164" y2="533.2904866594336"/><line class="hatch" x1="1036" y1="539.2904866594336" x2="1060" y2="533.2904866594336"/><line class="hatch" x1="140" y1="535.2904866594336" x2="164" y2="529.2904866594336"/><line class="hatch" x1="1036" y1="535.2904866594336" x2="1060" y2="529.2904866594336"/><line class="hatch" x1="140" y1="531.2904866594336" x2="164" y2="525.2904866594336"/><line class="hatch" x1="1036" y1="531.2904866594336" x2="1060" y2="525.2904866594336"/><line class="hatch" x1="140" y1="527.2904866594336" x2="164" y2="521.2904866594336"/><line class="hatch" x1="1036" y1="527.2904866594336" x2="1060" y2="521.2904866594336"/><line class="hatch" x1="140" y1="523.2904866594336" x2="164" y2="517.2904866594336"/><line class="hatch" x1="1036" y1="523.2904866594336" x2="1060" y2="517.2904866594336"/><line class="hatch" x1="140" y1="519.2904866594336" x2="164" y2="513.2904866594336"/><line class="hatch" x1="1036" y1="519.2904866594336" x2="1060" y2="513.2904866594336"/><line class="hatch" x1="140" y1="515.2904866594336" x2="164" y2="509.29048665943355"/><line class="hatch" x1="1036" y1="515.2904866594336" x2="1060" y2="509.29048665943355"/><line class="hatch" x1="140" y1="511.29048665943355" x2="164" y2="505.29048665943355"/><line class="hatch" x1="1036" y1="511.29048665943355" x2="1060" y2="505.29048665943355"/><line class="hatch" x1="140" y1="507.29048665943355" x2="164" y2="501.29048665943355"/><line class="hatch" x1="1036" y1="507.29048665943355" x2="1060" y2="501.29048665943355"/><line class="hatch" x1="140" y1="503.29048665943355" x2="164" y2="497.29048665943355"/><line class="hatch" x1="1036" y1="503.29048665943355" x2="1060" y2="497.29048665943355"/><line class="hatch" x1="140" y1="499.29048665943355" x2="164" y2="493.29048665943355"/><line class="hatch" x1="1036" y1="499.29048665943355" x2="1060" y2="493.29048665943355"/><line class="hatch" x1="140" y1="495.29048665943355" x2="164" y2="489.29048665943355"/><line class="hatch" x1="1036" y1="495.29048665943355" x2="1060" y2="489.29048665943355"/><line class="hatch" x1="140" y1="491.29048665943355" x2="164" y2="485.29048665943355"/><line class="hatch" x1="1036" y1="491.29048665943355" x2="1060" y2="485.29048665943355"/><line class="hatch" x1="140" y1="487.29048665943355" x2="164" y2="481.29048665943355"/><line class="hatch" x1="1036" y1="487.29048665943355" x2="1060" y2="481.29048665943355"/><line class="hatch" x1="140" y1="483.29048665943355" x2="164" y2="477.29048665943355"/><line class="hatch" x1="1036" y1="483.29048665943355" x2="1060" y2="477.29048665943355"/><line class="hatch" x1="140" y1="479.29048665943355" x2="164" y2="473.29048665943355"/><line class="hatch" x1="1036" y1="479.29048665943355" x2="1060" y2="473.29048665943355"/><line class="hatch" x1="140" y1="475.29048665943355" x2="164" y2="469.29048665943355"/><line class="hatch" x1="1036" y1="475.29048665943355" x2="1060" y2="469.29048665943355"/><line class="hatch" x1="140" y1="471.29048665943355" x2="164" y2="465.29048665943355"/><line class="hatch" x1="1036" y1="471.29048665943355" x2="1060" y2="465.29048665943355"/><line class="hatch" x1="140" y1="467.29048665943355" x2="164" y2="461.29048665943355"/><line class="hatch" x1="1036" y1="467.29048665943355" x2="1060" y2="461.29048665943355"/><line class="hatch" x1="140" y1="463.29048665943355" x2="164" y2="457.29048665943355"/><line class="hatch" x1="1036" y1="463.29048665943355" x2="1060" y2="457.29048665943355"/><line class="hatch" x1="140" y1="459.29048665943355" x2="164" y2="453.29048665943355"/><line class="hatch" x1="1036" y1="459.29048665943355" x2="1060" y2="453.29048665943355"/><line class="hatch" x1="140" y1="455.29048665943355" x2="164" y2="449.29048665943355"/><line class="hatch" x1="1036" y1="455.29048665943355" x2="1060" y2="449.29048665943355"/><line class="hatch" x1="140" y1="451.29048665943355" x2="164" y2="445.29048665943355"/><line class="hatch" x1="1036" y1="451.29048665943355" x2="1060" y2="445.29048665943355"/><line class="hatch" x1="140" y1="447.29048665943355" x2="164" y2="441.29048665943355"/><line class="hatch" x1="1036" y1="447.29048665943355" x2="1060" y2="441.29048665943355"/><line class="hatch" x1="140" y1="443.29048665943355" x2="164" y2="437.29048665943355"/><line class="hatch" x1="1036" y1="443.29048665943355" x2="1060" y2="437.29048665943355"/><line class="hatch" x1="140" y1="439.29048665943355" x2="164" y2="433.29048665943355"/><line class="hatch" x1="1036" y1="439.29048665943355" x2="1060" y2="433.29048665943355"/><line class="hatch" x1="140" y1="435.29048665943355" x2="164" y2="429.29048665943355"/><line class="hatch" x1="1036" y1="435.29048665943355" x2="1060" y2="429.29048665943355"/><line class="hatch" x1="140" y1="431.29048665943355" x2="164" y2="425.29048665943355"/><line class="hatch" x1="1036" y1="431.29048665943355" x2="1060" y2="425.29048665943355"/><line class="hatch" x1="140" y1="427.29048665943355" x2="164" y2="421.29048665943355"/><line class="hatch" x1="1036" y1="427.29048665943355" x2="1060" y2="421.29048665943355"/><line class="hatch" x1="140" y1="423.29048665943355" x2="164" y2="417.29048665943355"/><line class="hatch" x1="1036" y1="423.29048665943355" x2="1060" y2="417.29048665943355"/><line class="hatch" x1="140" y1="419.29048665943355" x2="164" y2="413.29048665943355"/><line class="hatch" x1="1036" y1="419.29048665943355" x2="1060" y2="413.29048665943355"/><line class="hatch" x1="140" y1="415.29048665943355" x2="164" y2="409.29048665943355"/><line class="hatch" x1="1036" y1="415.29048665943355" x2="1060" y2="409.29048665943355"/><line class="hatch" x1="140" y1="411.29048665943355" x2="164" y2="405.29048665943355"/><line class="hatch" x1="1036" y1="411.29048665943355" x2="1060" y2="405.29048665943355"/><line class="hatch" x1="140" y1="407.29048665943355" x2="164" y2="401.29048665943355"/><line class="hatch" x1="1036" y1="407.29048665943355" x2="1060" y2="401.29048665943355"/><line class="hatch" x1="140" y1="403.29048665943355" x2="164" y2="397.29048665943355"/><line class="hatch" x1="1036" y1="403.29048665943355" x2="1060" y2="397.29048665943355"/><line class="hatch" x1="140" y1="399.29048665943355" x2="164" y2="393.29048665943355"/><line class="hatch" x1="1036" y1="399.29048665943355" x2="1060" y2="393.29048665943355"/><line class="hatch" x1="140" y1="395.29048665943355" x2="164" y2="389.29048665943355"/><line class="hatch" x1="1036" y1="395.29048665943355" x2="1060" y2="389.29048665943355"/><line class="hatch" x1="140" y1="391.29048665943355" x2="164" y2="385.29048665943355"/><line class="hatch" x1="1036" y1="391.29048665943355" x2="1060" y2="385.29048665943355"/><line class="hatch" x1="140" y1="387.29048665943355" x2="164" y2="381.29048665943355"/><line class="hatch" x1="1036" y1="387.29048665943355" x2="1060" y2="381.29048665943355"/><line class="hatch" x1="140" y1="383.29048665943355" x2="164" y2="377.29048665943355"/><line class="hatch" x1="1036" y1="383.29048665943355" x2="1060" y2="377.29048665943355"/><line class="hatch" x1="140" y1="379.29048665943355" x2="164" y2="373.29048665943355"/><line class="hatch" x1="1036" y1="379.29048665943355" x2="1060" y2="373.29048665943355"/><line class="hatch" x1="140" y1="375.29048665943355" x2="164" y2="369.29048665943355"/><line class="hatch" x1="1036" y1="375.29048665943355" x2="1060" y2="369.29048665943355"/><line class="hatch" x1="140" y1="371.29048665943355" x2="164" y2="365.29048665943355"/><line class="hatch" x1="1036" y1="371.29048665943355" x2="1060" y2="365.29048665943355"/><line class="hatch" x1="140" y1="367.29048665943355" x2="164" y2="361.29048665943355"/><line class="hatch" x1="1036" y1="367.29048665943355" x2="1060" y2="361.29048665943355"/><line class="hatch" x1="140" y1="363.29048665943355" x2="164" y2="357.29048665943355"/><line class="hatch" x1="1036" y1="363.29048665943355" x2="1060" y2="357.29048665943355"/><line class="hatch" x1="140" y1="359.29048665943355" x2="164" y2="353.29048665943355"/><line class="hatch" x1="1036" y1="359.29048665943355" x2="1060" y2="353.29048665943355"/></g><g id="section-stairs"><line stroke="#666" stroke-width="1" x1="NaN" y1="NaN" x2="800" y2="NaN"/><path stroke="#333" stroke-width="1.5" fill="none" d="M 560 571.2904866594336 L 800 571.2904866594336 L 800 571.2904866594336 Z"/><text class="room-label" x="680" y="691.2904866594336">STAIR</text></g><g id="section-level-markers"><line stroke="#333" stroke-width="1" x1="84" y1="831.2904866594336" x2="84" y2="305.29048665943355"/><g id="section-ground-level"><polygon fill="#333" points="84,811.2904866594336 76,815.2904866594336 76,807.2904866594336"/><line class="level-marker" x1="76" y1="811.2904866594336" x2="46" y2="811.2904866594336"/><text class="level-text" x="42" y="815.2904866594336" text-anchor="end">±0.00</text></g><g id="section-floor-0-level"><polygon fill="#333" points="84,571.2904866594336 76,575.2904866594336 76,567.2904866594336"/><line class="level-marker" x1="76" y1="571.2904866594336" x2="46" y2="571.2904866594336"/><text class="level-text" x="42" y="575.2904866594336" text-anchor="end">+3.00</text></g><g id="section-floor-1-level"><polygon fill="#333" points="84,355.29048665943355 76,359.29048665943355 76,351.29048665943355"/><line class="level-marker" x1="76" y1="355.29048665943355" x2="46" y2="355.29048665943355"/><text class="level-text" x="42" y="359.29048665943355" text-anchor="end">+5.70</text></g><g id="section-ridge-level"><polygon fill="#333" points="84,50 76,54 76,46"/><line class="level-marker-dashed" x1="76" y1="50" x2="46" y2="50"/><text class="level-text" x="42" y="54" text-anchor="end">+9.52</text></g></g><path class="roof" d="M 164 355.29048665943355 L 600 50 L 1036 355.29048665943355 Z"/><g id="section-dimensions"><g class="dimension" id="section-dim-total-height"><line stroke="#999" stroke-width="0.3" x1="1084" y1="811.2904866594336" x2="1094" y2="811.2904866594336"/><line stroke="#999" stroke-width="0.3" x1="1084" y1="50" x2="1094" y2="50"/><line x1="1096" y1="811.2904866594336" x2="1096" y2="50"/><polygon fill="#444" points="1096,811.2904866594336 1093,817.2904866594336 1099,817.2904866594336"/><polygon fill="#444" points="1096,50 1093,44 1099,44"/><text class="dimension-text" x="1111" y="430.6452433297168" transform="rotate(-90, 1111, 430.6452433297168)">9.52 m</text></g><g class="dimension" id="section-dim-floor-0"><line stroke="#999" stroke-width="0.3" x1="1054" y1="811.2904866594336" x2="1064" y2="811.2904866594336"/><line stroke="#999" stroke-width="0.3" x1="1054" y1="571.2904866594336" x2="1064" y2="571.2904866594336"/><line x1="1066" y1="811.2904866594336" x2="1066" y2="571.2904866594336"/><polygon fill="#444" points="1066,811.2904866594336 1063,817.2904866594336 1069,817.2904866594336"/><polygon fill="#444" points="1066,571.2904866594336 1063,565.2904866594336 1069,565.2904866594336"/><text class="dimension-text" x="1081" y="691.2904866594336" transform="rotate(-90, 1081, 691.2904866594336)">3.00 m</text></g><g class="dimension" id="section-dim-floor-1"><line stroke="#999" stroke-width="0.3" x1="1054" y1="571.2904866594336" x2="1064" y2="571.2904866594336"/><line stroke="#999" stroke-width="0.3" x1="1054" y1="355.29048665943355" x2="1064" y2="355.29048665943355"/><line x1="1066" y1="571.2904866594336" x2="1066" y2="355.29048665943355"/><polygon fill="#444" points="1066,571.2904866594336 1063,577.2904866594336 1069,577.2904866594336"/><polygon fill="#444" points="1066,355.29048665943355 1063,349.29048665943355 1069,349.29048665943355"/><text class="dimension-text" x="1081" y="463.29048665943355" transform="rotate(-90, 1081, 463.29048665943355)">2.70 m</text></g></g><g id="title-block"><rect x="1010" y="901.2904866594336" width="180" height="40" fill="#ffffff" stroke="#333" stroke-width="1"/><line x1="1010" y1="921.2904866594336" x2="1190" y2="921.2904866594336" stroke="#333" stroke-width="0.5"/><text x="1015" y="915.2904866594336" font-family="Arial, sans-serif" font-size="9" font-weight="700" fill="#333">Section A-A</text><text x="1015" y="934.2904866594336" font-family="Arial, sans-serif" font-size="7" fill="#666">Dwg: A-300</text><text x="1185" y="934.2904866594336" font-family="Arial, sans-serif" font-size="7" fill="#666" text-anchor="end">Scale 1:12.5</text></g></svg>