<svg xmlns="http://www.w3.org/2000/svg" viewBox="0 0 1200 951.2904866594336" width="1200" height="951.2904866594336"><style><![CDATA[
    /* --- Text --- */
    .title {
      font-family: Arial, Helvetica, sans-serif;
      font-size: 16px;
      font-weight: bold;
      fill: #000000;
      text-anchor: middle;
    }
    .room-label {
      font-family: Arial, Helvetica, sans-serif;
      font-size: 10px;
      font-weight: bold;
      fill: #000000;
      text-anchor: middle;
    }
    .area-label {
      font-family: Arial, Helvetica, sans-serif;
      font-size: 9px;
      fill: #333333;
      text-anchor: middle;
    }

    /* --- Rooms --- */
    .room-fill {
      fill: #FFFFFF;
      stroke: none;
    }
    .circulation-fill {
      fill: #F5F5F5;
      stroke: none;
    }

    /* --- Walls --- */
    .wall-external-cut {
      fill: #1A1A1A;
      stroke: #000000;
      stroke-width: 3;
    }
    .wall-internal-fill {
      fill: #1A1A1A;
      stroke: #000000;
      stroke-width: 1.8;
    }
    .wall-poche line {
      stroke: #444444;
      stroke-width: 0.3;
    }

    /* --- Windows --- */
    .window {
      fill: #D6EAF8;
      stroke: #333333;
      stroke-width: 1.2;
    }
    .window-frame {
      fill: #333333;
      stroke: #000000;
      stroke-width: 0.8;
    }
    .window-glazing-bar {
      stroke: #333333;
      stroke-width: 0.5;
    }

    /* --- Doors --- */
    .door {
      fill: #6B4226;
      stroke: #000000;
      stroke-width: 1;
    }
    .door-opening {
      fill: #FFFFFF;
      stroke: none;
    }
    .door-swing {
      fill: none;
      stroke: #999999;
      stroke-width: 0.5;
      stroke-dasharray: 4 2;
    }

    /* --- Stairs --- */
    .stair-cut {
      fill: #F0F0F0;
      stroke: #000000;
      stroke-width: 1;
    }

    /* --- Elevation / Section backgrounds --- */
    .sky {
      fill: #E8F4FD;
    }
    .ground {
      fill: #D5E8D4;
    }
    .ground-line {
      stroke: #333333;
      stroke-width: 1.5;
    }

    /* --- Roof --- */
    .roof {
      fill: #C0C0C0;
      stroke: #222222;
      stroke-width: 2;
    }

    /* --- Slabs and Foundation --- */
    .slab-cut {
      fill: #D0D0D0;
      stroke: #000000;
      stroke-width: 1;
    }
    .foundation {
      fill: #C8B8A0;
      stroke: #000000;
      stroke-width: 1.2;
    }

    /* --- Hatching --- */
    .hatch {
      stroke: #666666;
      stroke-width: 0.3;
    }
    .hatch-slab {
      stroke: #666666;
      stroke-width: 0.24;
    }

    /* --- Dimensions --- */
    .dimension line {
      stroke: #333333;
      stroke-width: 0.5;
    }
    .dimension-text {
      font-family: Arial, Helvetica, sans-serif;
      font-size: 10px;
      fill: #333333;
      text-anchor: middle;
    }

    /* --- Level markers --- */
    .level-marker {
      stroke: #333333;
      stroke-width: 0.8;
    }
    .level-marker-dashed {
      stroke: #333333;
      stroke-width: 0.5;
      stroke-dasharray: 6 3;
    }
    .level-text {
      font-family: Arial, Helvetica, sans-serif;
      font-size: 9px;
      fill: #000000;
    }
  ]]></style>
  <defs>
    <pattern id="wall-hatch" patternUnits="userSpaceOnUse" width="6" height="6" patternTransform="rotate(45)">
      <line x1="0" y1="0" x2="0" y2="6" stroke="#444444" stroke-width="0.5"/>
    </pattern>
  </defs>
  
  <defs>
    <pattern id="slab-hatch" patternUnits="userSpaceOnUse" width="12" height="12" patternTransform="rotate(45)">
      <line x1="0" y1="0" x2="0" y2="12" stroke="#444444" stroke-width="0.5"/>
    </pattern>
  </defs>
  <rect class="ground" x="0" y="811.2904866594336" width="1200" height="140"/><line class="ground-line" x1="0" y1="811.2904866594336" x2="1200" y2="811.2904866594336"/><text class="title" x="600" y="30">Section B-B</text><g id="foundation"><rect class="foundation" x="302" y="811.2904866594336" width="596" height="72"/><line class="hatch" x1="312" y1="811.2904866594336" x2="324" y2="883.2904866594336"/><line class="hatch" x1="320" y1="811.2904866594336" x2="332" y2="883.2904866594336"/><line class="hatch" x1="328" y1="811.2904866594336" x2="340" y2="883.2904866594336"/><line class="hatch" x1="336" y1="811.2904866594336" x2="348" y2="883.2904866594336"/><line class="hatch" x1="344" y1="811.2904866594336" x2="356" y2="883.2904866594336"/><line class="hatch" x1="352" y1="811.2904866594336" x2="364" y2="883.2904866594336"/><line class="hatch" x1="360" y1="811.2904866594336" x2="372" y2="883.2904866594336"/><line class="hatch" x1="368" y1="811.2904866594336" x2="380" y2="883.2904866594336"/><line class="hatch" x1="376" y1="811.2904866594336" x2="388" y2="883.2904866594336"/><line class="hatch" x1="384" y1="811.2904866594336" x2="396" y2="883.2904866594336"/><line class="hatch" x1="392" y1="811.2904866594336" x2="404" y2="883.2904866594336"/><line class="hatch" x1="400" y1="811.2904866594336" x2="412" y2="883.2904866594336"/><line class="hatch" x1="408" y1="811.2904866594336" x2="420" y2="883.2904866594336"/><line class="hatch" x1="416" y1="811.2904866594336" x2="428" y2="883.2904866594336"/><line class="hatch" x1="424" y1="811.2904866594336" x2="436" y2="883.2904866594336"/><line class="hatch" x1="432" y1="811.2904866594336" x2="444" y2="883.2904866594336"/><line class="hatch" x1="440" y1="811.2904866594336" x2="452" y2="883.2904866594336"/><line class="hatch" x1="448" y1="811.2904866594336" x2="460" y2="883.2904866594336"/><line class="hatch" x1="456" y1="811.2904866594336" x2="468" y2="883.2904866594336"/><line class="hatch" x1="464" y1="811.2904866594336" x2="476" y2="883.2904866594336"/><line class="hatch" x1="472" y1="811.2904866594336" x2="484" y2="883.2904866594336"/><line class="hatch" x1="480" y1="811.2904866594336" x2="492" y2="883.2904866594336"/><line class="hatch" x1="488" y1="811.2904866594336" x2="500" y2="883.2904866594336"/><line class="hatch" x1="496" y1="811.2904866594336" x2="508" y2="883.2904866594336"/><line class="hatch" x1="504" y1="811.2904866594336" x2="516" y2="883.2904866594336"/><line class="hatch" x1="512" y1="811.2904866594336" x2="524" y2="883.2904866594336"/><line class="hatch" x1="520" y1="811.2904866594336" x2="532" y2="883.2904866594336"/><line class="hatch" x1="528" y1="811.2904866594336" x2="540" y2="883.2904866594336"/><line class="hatch" x1="536" y1="811.2904866594336" x2="548" y2="883.2904866594336"/><line class="hatch" x1="544" y1="811.2904866594336" x2="556" y2="883.2904866594336"/><line class="hatch" x1="552" y1="811.2904866594336" x2="564" y2="883.2904866594336"/><line class="hatch" x1="560" y1="811.2904866594336" x2="572" y2="883.2904866594336"/><line class="hatch" x1="568" y1="811.2904866594336" x2="580" y2="883.2904866594336"/><line class="hatch" x1="576" y1="811.2904866594336" x2="588" y2="883.2904866594336"/><line class="hatch" x1="584" y1="811.2904866594336" x2="596" y2="883.2904866594336"/><line class="hatch" x1="592" y1="811.2904866594336" x2="604" y2="883.2904866594336"/><line class="hatch" x1="600" y1="811.2904866594336" x2="612" y2="883.2904866594336"/><line class="hatch" x1="608" y1="811.2904866594336" x2="620" y2="883.2904866594336"/><line class="hatch" x1="616" y1="811.2904866594336" x2="628" y2="883.2904866594336"/><line class="hatch" x1="624" y1="811.2904866594336" x2="636" y2="883.2904866594336"/><line class="hatch" x1="632" y1="811.2904866594336" x2="644" y2="883.2904866594336"/><line class="hatch" x1="640" y1="811.2904866594336" x2="652" y2="883.2904866594336"/><line class="hatch" x1="648" y1="811.2904866594336" x2="660" y2="883.2904866594336"/><line class="hatch" x1="656" y1="811.2904866594336" x2="668" y2="883.2904866594336"/><line class="hatch" x1="664" y1="811.2904866594336" x2="676" y2="883.2904866594336"/><line class="hatch" x1="672" y1="811.2904866594336" x2="684" y2="883.2904866594336"/><line class="hatch" x1="680" y1="811.2904866594336" x2="692" y2="883.2904866594336"/><line class="hatch" x1="688" y1="811.2904866594336" x2="700" y2="883.2904866594336"/><line class="hatch" x1="696" y1="811.2904866594336" x2="708" y2="883.2904866594336"/><line class="hatch" x1="704" y1="811.2904866594336" x2="716" y2="883.2904866594336"/><line class="hatch" x1="712" y1="811.2904866594336" x2="724" y2="883.2904866594336"/><line class="hatch" x1="720" y1="811.2904866594336" x2="732" y2="883.2904866594336"/><line class="hatch" x1="728" y1="811.2904866594336" x2="740" y2="883.2904866594336"/><line class="hatch" x1="736" y1="811.2904866594336" x2="748" y2="883.2904866594336"/><line class="hatch" x1="744" y1="811.2904866594336" x2="756" y2="883.2904866594336"/><line class="hatch" x1="752" y1="811.2904866594336" x2="764" y2="883.2904866594336"/><line class="hatch" x1="760" y1="811.2904866594336" x2="772" y2="883.2904866594336"/><line class="hatch" x1="768" y1="811.2904866594336" x2="780" y2="883.2904866594336"/><line class="hatch" x1="776" y1="811.2904866594336" x2="788" y2="883.2904866594336"/><line class="hatch" x1="784" y1="811.2904866594336" x2="796" y2="883.2904866594336"/><line class="hatch" x1="792" y1="811.2904866594336" x2="804" y2="883.2904866594336"/><line class="hatch" x1="800" y1="811.2904866594336" x2="812" y2="883.2904866594336"/><line class="hatch" x1="808" y1="811.2904866594336" x2="820" y2="883.2904866594336"/><line class="hatch" x1="816" y1="811.2904866594336" x2="828" y2="883.2904866594336"/><line class="hatch" x1="824" y1="811.2904866594336" x2="836" y2="883.2904866594336"/><line class="hatch" x1="832" y1="811.2904866594336" x2="844" y2="883.2904866594336"/><line class="hatch" x1="840" y1="811.2904866594336" x2="852" y2="883.2904866594336"/><line class="hatch" x1="848" y1="811.2904866594336" x2="860" y2="883.2904866594336"/><line class="hatch" x1="856" y1="811.2904866594336" x2="868" y2="883.2904866594336"/><line class="hatch" x1="864" y1="811.2904866594336" x2="876" y2="883.2904866594336"/><line class="hatch" x1="872" y1="811.2904866594336" x2="884" y2="883.2904866594336"/><line class="hatch" x1="880" y1="811.2904866594336" x2="892" y2="883.2904866594336"/></g><g id="section-floors"><rect class="room-fill" x="312" y="571.2904866594336" width="576" height="216"/><rect class="slab-cut" x="312" y="787.2904866594336" width="576" height="24"/><line class="hatch-slab" x1="312" y1="787.2904866594336" x2="320" y2="811.2904866594336"/><line class="hatch-slab" x1="318" y1="787.2904866594336" x2="326" y2="811.2904866594336"/><line class="hatch-slab" x1="324" y1="787.2904866594336" x2="332" y2="811.2904866594336"/><line class="hatch-slab" x1="330" y1="787.2904866594336" x2="338" y2="811.2904866594336"/><line class="hatch-slab" x1="336" y1="787.2904866594336" x2="344" y2="811.2904866594336"/><line class="hatch-slab" x1="342" y1="787.2904866594336" x2="350" y2="811.2904866594336"/><line class="hatch-slab" x1="348" y1="787.2904866594336" x2="356" y2="811.2904866594336"/><line class="hatch-slab" x1="354" y1="787.2904866594336" x2="362" y2="811.2904866594336"/><line class="hatch-slab" x1="360" y1="787.2904866594336" x2="368" y2="811.2904866594336"/><line class="hatch-slab" x1="366" y1="787.2904866594336" x2="374" y2="811.2904866594336"/><line class="hatch-slab" x1="372" y1="787.2904866594336" x2="380" y2="811.2904866594336"/><line class="hatch-slab" x1="378" y1="787.2904866594336" x2="386" y2="811.2904866594336"/><line class="hatch-slab" x1="384" y1="787.2904866594336" x2="392" y2="811.2904866594336"/><line class="hatch-slab" x1="390" y1="787.2904866594336" x2="398" y2="811.2904866594336"/><line class="hatch-slab" x1="396" y1="787.2904866594336" x2="404" y2="811.2904866594336"/><line class="hatch-slab" x1="402" y1="787.2904866594336" x2="410" y2="811.2904866594336"/><line class="hatch-slab" x1="408" y1="787.2904866594336" x2="416" y2="811.2904866594336"/><line class="hatch-slab" x1="414" y1="787.2904866594336" x2="422" y2="811.2904866594336"/><line class="hatch-slab" x1="420" y1="787.2904866594336" x2="428" y2="811.2904866594336"/><line class="hatch-slab" x1="426" y1="787.2904866594336" x2="434" y2="811.2904866594336"/><line class="hatch-slab" x1="432" y1="787.2904866594336" x2="440" y2="811.2904866594336"/><line class="hatch-slab" x1="438" y1="787.2904866594336" x2="446" y2="811.2904866594336"/><line class="hatch-slab" x1="444" y1="787.2904866594336" x2="452" y2="811.2904866594336"/><line class="hatch-slab" x1="450" y1="787.2904866594336" x2="458" y2="811.2904866594336"/><line class="hatch-slab" x1="456" y1="787.2904866594336" x2="464" y2="811.2904866594336"/><line class="hatch-slab" x1="462" y1="787.2904866594336" x2="470" y2="811.2904866594336"/><line class="hatch-slab" x1="468" y1="787.2904866594336" x2="476" y2="811.2904866594336"/><line class="hatch-slab" x1="474" y1="787.2904866594336" x2="482" y2="811.2904866594336"/><line class="hatch-slab" x1="480" y1="787.2904866594336" x2="488" y2="811.2904866594336"/><line class="hatch-slab" x1="486" y1="787.2904866594336" x2="494" y2="811.2904866594336"/><line class="hatch-slab" x1="492" y1="787.2904866594336" x2="500" y2="811.2904866594336"/><line class="hatch-slab" x1="498" y1="787.2904866594336" x2="506" y2="811.2904866594336"/><line class="hatch-slab" x1="504" y1="787.2904866594336" x2="512" y2="811.2904866594336"/><line class="hatch-slab" x1="510" y1="787.2904866594336" x2="518" y2="811.2904866594336"/><line class="hatch-slab" x1="516" y1="787.2904866594336" x2="524" y2="811.2904866594336"/><line class="hatch-slab" x1="522" y1="787.2904866594336" x2="530" y2="811.2904866594336"/><line class="hatch-slab" x1="528" y1="787.2904866594336" x2="536" y2="811.2904866594336"/><line class="hatch-slab" x1="534" y1="787.2904866594336" x2="542" y2="811.2904866594336"/><line class="hatch-slab" x1="540" y1="787.2904866594336" x2="548" y2="811.2904866594336"/><line class="hatch-slab" x1="546" y1="787.2904866594336" x2="554" y2="811.2904866594336"/><line class="hatch-slab" x1="552" y1="787.2904866594336" x2="560" y2="811.2904866594336"/><line class="hatch-slab" x1="558" y1="787.2904866594336" x2="566" y2="811.2904866594336"/><line class="hatch-slab" x1="564" y1="787.2904866594336" x2="572" y2="811.2904866594336"/><line class="hatch-slab" x1="570" y1="787.2904866594336" x2="578" y2="811.2904866594336"/><line class="hatch-slab" x1="576" y1="787.2904866594336" x2="584" y2="811.2904866594336"/><line class="hatch-slab" x1="582" y1="787.2904866594336" x2="590" y2="811.2904866594336"/><line class="hatch-slab" x1="588" y1="787.2904866594336" x2="596" y2="811.2904866594336"/><line class="hatch-slab" x1="594" y1="787.2904866594336" x2="602" y2="811.2904866594336"/><line class="hatch-slab" x1="600" y1="787.2904866594336" x2="608" y2="811.2904866594336"/><line class="hatch-slab" x1="606" y1="787.2904866594336" x2="614" y2="811.2904866594336"/><line class="hatch-slab" x1="612" y1="787.2904866594336" x2="620" y2="811.2904866594336"/><line class="hatch-slab" x1="618" y1="787.2904866594336" x2="626" y2="811.2904866594336"/><line class="hatch-slab" x1="624" y1="787.2904866594336" x2="632" y2="811.2904866594336"/><line class="hatch-slab" x1="630" y1="787.2904866594336" x2="638" y2="811.2904866594336"/><line class="hatch-slab" x1="636" y1="787.2904866594336" x2="644" y2="811.2904866594336"/><line class="hatch-slab" x1="642" y1="787.2904866594336" x2="650" y2="811.2904866594336"/><line class="hatch-slab" x1="648" y1="787.2904866594336" x2="656" y2="811.2904866594336"/><line class="hatch-slab" x1="654" y1="787.2904866594336" x2="662" y2="811.2904866594336"/><line class="hatch-slab" x1="660" y1="787.2904866594336" x2="668" y2="811.2904866594336"/><line class="hatch-slab" x1="666" y1="787.2904866594336" x2="674" y2="811.2904866594336"/><line class="hatch-slab" x1="672" y1="787.2904866594336" x2="680" y2="811.2904866594336"/><line class="hatch-slab" x1="678" y1="787.2904866594336" x2="686" y2="811.2904866594336"/><line class="hatch-slab" x1="684" y1="787.2904866594336" x2="692" y2="811.2904866594336"/><line class="hatch-slab" x1="690" y1="787.2904866594336" x2="698" y2="811.2904866594336"/><line class="hatch-slab" x1="696" y1="787.2904866594336" x2="704" y2="811.2904866594336"/><line class="hatch-slab" x1="702" y1="787.2904866594336" x2="710" y2="811.2904866594336"/><line class="hatch-slab" x1="708" y1="787.2904866594336" x2="716" y2="811.2904866594336"/><line class="hatch-slab" x1="714" y1="787.2904866594336" x2="722" y2="811.2904866594336"/><line class="hatch-slab" x1="720" y1="787.2904866594336" x2="728" y2="811.2904866594336"/><line class="hatch-slab" x1="726" y1="787.2904866594336" x2="734" y2="811.2904866594336"/><line class="hatch-slab" x1="732" y1="787.2904866594336" x2="740" y2="811.2904866594336"/><line class="hatch-slab" x1="738" y1="787.2904866594336" x2="746" y2="811.2904866594336"/><line class="hatch-slab" x1="744" y1="787.2904866594336" x2="752" y2="811.2904866594336"/><line class="hatch-slab" x1="750" y1="787.2904866594336" x2="758" y2="811.2904866594336"/><line class="hatch-slab" x1="756" y1="787.2904866594336" x2="764" y2="811.2904866594336"/><line class="hatch-slab" x1="762" y1="787.2904866594336" x2="770" y2="811.2904866594336"/><line class="hatch-slab" x1="768" y1="787.2904866594336" x2="776" y2="811.2904866594336"/><line class="hatch-slab" x1="774" y1="787.2904866594336" x2="782" y2="811.2904866594336"/><line class="hatch-slab" x1="780" y1="787.2904866594336" x2="788" y2="811.2904866594336"/><line class="hatch-slab" x1="786" y1="787.2904866594336" x2="794" y2="811.2904866594336"/><line class="hatch-slab" x1="792" y1="787.2904866594336" x2="800" y2="811.2904866594336"/><line class="hatch-slab" x1="798" y1="787.2904866594336" x2="806" y2="811.2904866594336"/><line class="hatch-slab" x1="804" y1="787.2904866594336" x2="812" y2="811.2904866594336"/><line class="hatch-slab" x1="810" y1="787.2904866594336" x2="818" y2="811.2904866594336"/><line class="hatch-slab" x1="816" y1="787.2904866594336" x2="824" y2="811.2904866594336"/><line class="hatch-slab" x1="822" y1="787.2904866594336" x2="830" y2="811.2904866594336"/><line class="hatch-slab" x1="828" y1="787.2904866594336" x2="836" y2="811.2904866594336"/><line class="hatch-slab" x1="834" y1="787.2904866594336" x2="842" y2="811.2904866594336"/><line class="hatch-slab" x1="840" y1="787.2904866594336" x2="848" y2="811.2904866594336"/><line class="hatch-slab" x1="846" y1="787.2904866594336" x2="854" y2="811.2904866594336"/><line class="hatch-slab" x1="852" y1="787.2904866594336" x2="860" y2="811.2904866594336"/><line class="hatch-slab" x1="858" y1="787.2904866594336" x2="866" y2="811.2904866594336"/><line class="hatch-slab" x1="864" y1="787.2904866594336" x2="872" y2="811.2904866594336"/><line class="hatch-slab" x1="870" y1="787.2904866594336" x2="878" y2="811.2904866594336"/><line class="hatch-slab" x1="876" y1="787.2904866594336" x2="884" y2="811.2904866594336"/><line class="hatch-slab" x1="882" y1="787.2904866594336" x2="890" y2="811.2904866594336"/><text class="room-label" x="482.39069531795957" y="691.2904866594336">Living Room</text><text class="room-label" x="711.4302890216741" y="691.2904866594336">WC</text><rect class="room-fill" x="312" y="355.29048665943355" width="576" height="196"/><rect class="slab-cut" x="312" y="551.2904866594336" width="576" height="20"/><line class="hatch-slab" x1="312" y1="551.2904866594336" x2="320" y2="571.2904866594336"/><line class="hatch-slab" x1="318" y1="551.2904866594336" x2="326" y2="571.2904866594336"/><line class="hatch-slab" x1="324" y1="551.2904866594336" x2="332" y2="571.2904866594336"/><line class="hatch-slab" x1="330" y1="551.2904866594336" x2="338" y2="571.2904866594336"/><line class="hatch-slab" x1="336" y1="551.2904866594336" x2="344" y2="571.2904866594336"/><line class="hatch-slab" x1="342" y1="551.2904866594336" x2="350" y2="571.2904866594336"/><line class="hatch-slab" x1="348" y1="551.2904866594336" x2="356" y2="571.2904866594336"/><line class="hatch-slab" x1="354" y1="551.2904866594336" x2="362" y2="571.2904866594336"/><line class="hatch-slab" x1="360" y1="551.2904866594336" x2="368" y2="571.2904866594336"/><line class="hatch-slab" x1="366" y1="551.2904866594336" x2="374" y2="571.2904866594336"/><line class="hatch-slab" x1="372" y1="551.2904866594336" x2="380" y2="571.2904866594336"/><line class="hatch-slab" x1="378" y1="551.2904866594336" x2="386" y2="571.2904866594336"/><line class="hatch-slab" x1="384" y1="551.2904866594336" x2="392" y2="571.2904866594336"/><line class="hatch-slab" x1="390" y1="551.2904866594336" x2="398" y2="571.2904866594336"/><line class="hatch-slab" x1="396" y1="551.2904866594336" x2="404" y2="571.2904866594336"/><line class="hatch-slab" x1="402" y1="551.2904866594336" x2="410" y2="571.2904866594336"/><line class="hatch-slab" x1="408" y1="551.2904866594336" x2="416" y2="571.2904866594336"/><line class="hatch-slab" x1="414" y1="551.2904866594336" x2="422" y2="571.2904866594336"/><line class="hatch-slab" x1="420" y1="551.2904866594336" x2="428" y2="571.2904866594336"/><line class="hatch-slab" x1="426" y1="551.2904866594336" x2="434" y2="571.2904866594336"/><line class="hatch-slab" x1="432" y1="551.2904866594336" x2="440" y2="571.2904866594336"/><line class="hatch-slab" x1="438" y1="551.2904866594336" x2="446" y2="571.2904866594336"/><line class="hatch-slab" x1="444" y1="551.2904866594336" x2="452" y2="571.2904866594336"/><line class="hatch-slab" x1="450" y1="551.2904866594336" x2="458" y2="571.2904866594336"/><line class="hatch-slab" x1="456" y1="551.2904866594336" x2="464" y2="571.2904866594336"/><line class="hatch-slab" x1="462" y1="551.2904866594336" x2="470" y2="571.2904866594336"/><line class="hatch-slab" x1="468" y1="551.2904866594336" x2="476" y2="571.2904866594336"/><line class="hatch-slab" x1="474" y1="551.2904866594336" x2="482" y2="571.2904866594336"/><line class="hatch-slab" x1="480" y1="551.2904866594336" x2="488" y2="571.2904866594336"/><line class="hatch-slab" x1="486" y1="551.2904866594336" x2="494" y2="571.2904866594336"/><line class="hatch-slab" x1="492" y1="551.2904866594336" x2="500" y2="571.2904866594336"/><line class="hatch-slab" x1="498" y1="551.2904866594336" x2="506" y2="571.2904866594336"/><line class="hatch-slab" x1="504" y1="551.2904866594336" x2="512" y2="571.2904866594336"/><line class="hatch-slab" x1="510" y1="551.2904866594336" x2="518" y2="571.2904866594336"/><line class="hatch-slab" x1="516" y1="551.2904866594336" x2="524" y2="571.2904866594336"/><line class="hatch-slab" x1="522" y1="551.2904866594336" x2="530" y2="571.2904866594336"/><line class="hatch-slab" x1="528" y1="551.2904866594336" x2="536" y2="571.2904866594336"/><line class="hatch-slab" x1="534" y1="551.2904866594336" x2="542" y2="571.2904866594336"/><line class="hatch-slab" x1="540" y1="551.2904866594336" x2="548" y2="571.2904866594336"/><line class="hatch-slab" x1="546" y1="551.2904866594336" x2="554" y2="571.2904866594336"/><line class="hatch-slab" x1="552" y1="551.2904866594336" x2="560" y2="571.2904866594336"/><line class="hatch-slab" x1="558" y1="551.2904866594336" x2="566" y2="571.2904866594336"/><line class="hatch-slab" x1="564" y1="551.2904866594336" x2="572" y2="571.2904866594336"/><line class="hatch-slab" x1="570" y1="551.2904866594336" x2="578" y2="571.2904866594336"/><line class="hatch-slab" x1="576" y1="551.2904866594336" x2="584" y2="571.2904866594336"/><line class="hatch-slab" x1="582" y1="551.2904866594336" x2="590" y2="571.2904866594336"/><line class="hatch-slab" x1="588" y1="551.2904866594336" x2="596" y2="571.2904866594336"/><line class="hatch-slab" x1="594" y1="551.2904866594336" x2="602" y2="571.2904866594336"/><line class="hatch-slab" x1="600" y1="551.2904866594336" x2="608" y2="571.2904866594336"/><line class="hatch-slab" x1="606" y1="551.2904866594336" x2="614" y2="571.2904866594336"/><line class="hatch-slab" x1="612" y1="551.2904866594336" x2="620" y2="571.2904866594336"/><line class="hatch-slab" x1="618" y1="551.2904866594336" x2="626" y2="571.2904866594336"/><line class="hatch-slab" x1="624" y1="551.2904866594336" x2="632" y2="571.2904866594336"/><line class="hatch-slab" x1="630" y1="551.2904866594336" x2="638" y2="571.2904866594336"/><line class="hatch-slab" x1="636" y1="551.2904866594336" x2="644" y2="571.2904866594336"/><line class="hatch-slab" x1="642" y1="551.2904866594336" x2="650" y2="571.2904866594336"/><line class="hatch-slab" x1="648" y1="551.2904866594336" x2="656" y2="571.2904866594336"/><line class="hatch-slab" x1="654" y1="551.2904866594336" x2="662" y2="571.2904866594336"/><line class="hatch-slab" x1="660" y1="551.2904866594336" x2="668" y2="571.2904866594336"/><line class="hatch-slab" x1="666" y1="551.2904866594336" x2="674" y2="571.2904866594336"/><line class="hatch-slab" x1="672" y1="551.2904866594336" x2="680" y2="571.2904866594336"/><line class="hatch-slab" x1="678" y1="551.2904866594336" x2="686" y2="571.2904866594336"/><line class="hatch-slab" x1="684" y1="551.2904866594336" x2="692" y2="571.2904866594336"/><line class="hatch-slab" x1="690" y1="551.2904866594336" x2="698" y2="571.2904866594336"/><line class="hatch-slab" x1="696" y1="551.2904866594336" x2="704" y2="571.2904866594336"/><line class="hatch-slab" x1="702" y1="551.2904866594336" x2="710" y2="571.2904866594336"/><line class="hatch-slab" x1="708" y1="551.2904866594336" x2="716" y2="571.2904866594336"/><line class="hatch-slab" x1="714" y1="551.2904866594336" x2="722" y2="571.2904866594336"/><line class="hatch-slab" x1="720" y1="551.2904866594336" x2="728" y2="571.2904866594336"/><line class="hatch-slab" x1="726" y1="551.2904866594336" x2="734" y2="571.2904866594336"/><line class="hatch-slab" x1="732" y1="551.2904866594336" x2="740" y2="571.2904866594336"/><line class="hatch-slab" x1="738" y1="551.2904866594336" x2="746" y2="571.2904866594336"/><line class="hatch-slab" x1="744" y1="551.2904866594336" x2="752" y2="571.2904866594336"/><line class="hatch-slab" x1="750" y1="551.2904866594336" x2="758" y2="571.2904866594336"/><line class="hatch-slab" x1="756" y1="551.2904866594336" x2="764" y2="571.2904866594336"/><line class="hatch-slab" x1="762" y1="551.2904866594336" x2="770" y2="571.2904866594336"/><line class="hatch-slab" x1="768" y1="551.2904866594336" x2="776" y2="571.2904866594336"/><line class="hatch-slab" x1="774" y1="551.2904866594336" x2="782" y2="571.2904866594336"/><line class="hatch-slab" x1="780" y1="551.2904866594336" x2="788" y2="571.2904866594336"/><line class="hatch-slab" x1="786" y1="551.2904866594336" x2="794" y2="571.2904866594336"/><line class="hatch-slab" x1="792" y1="551.2904866594336" x2="800" y2="571.2904866594336"/><line class="hatch-slab" x1="798" y1="551.2904866594336" x2="806" y2="571.2904866594336"/><line class="hatch-slab" x1="804" y1="551.2904866594336" x2="812" y2="571.2904866594336"/><line class="hatch-slab" x1="810" y1="551.2904866594336" x2="818" y2="571.2904866594336"/><line class="hatch-slab" x1="816" y1="551.2904866594336" x2="824" y2="571.2904866594336"/><line class="hatch-slab" x1="822" y1="551.2904866594336" x2="830" y2="571.2904866594336"/><line class="hatch-slab" x1="828" y1="551.2904866594336" x2="836" y2="571.2904866594336"/><line class="hatch-slab" x1="834" y1="551.2904866594336" x2="842" y2="571.2904866594336"/><line class="hatch-slab" x1="840" y1="551.2904866594336" x2="848" y2="571.2904866594336"/><line class="hatch-slab" x1="846" y1="551.2904866594336" x2="854" y2="571.2904866594336"/><line class="hatch-slab" x1="852" y1="551.2904866594336" x2="860" y2="571.2904866594336"/><line class="hatch-slab" x1="858" y1="551.2904866594336" x2="866" y2="571.2904866594336"/><line class="hatch-slab" x1="864" y1="551.2904866594336" x2="872" y2="571.2904866594336"/><line class="hatch-slab" x1="870" y1="551.2904866594336" x2="878" y2="571.2904866594336"/><line class="hatch-slab" x1="876" y1="551.2904866594336" x2="884" y2="571.2904866594336"/><line class="hatch-slab" x1="882" y1="551.2904866594336" x2="890" y2="571.2904866594336"/><text class="room-label" x="467.34883784942906" y="463.29048665943355">Master Bedroom</text><text class="room-label" x="703.3195618538274" y="463.29048665943355">Bathroom</text></g><g id="cut-walls"><rect class="wall-external-cut" x="288" y="355.29048665943355" width="24" height="456"/><rect class="wall-external-cut" x="888" y="355.29048665943355" width="24" height="456"/><line class="hatch" x1="288" y1="811.2904866594336" x2="312" y2="805.2904866594336"/><line class="hatch" x1="888" y1="811.2904866594336" x2="912" y2="805.2904866594336"/><line class="hatch" x1="288" y1="807.2904866594336" x2="312" y2="801.2904866594336"/><line class="hatch" x1="888" y1="807.2904866594336" x2="912" y2="801.2904866594336"/><line class="hatch" x1="288" y1="803.2904866594336" x2="312" y2="797.2904866594336"/><line class="hatch" x1="888" y1="803.2904866594336" x2="912" y2="797.2904866594336"/><line class="hatch" x1="288" y1="799.2904866594336" x2="312" y2="793.2904866594336"/><line class="hatch" x1="888" y1="799.2904866594336" x2="912" y2="793.2904866594336"/><line class="hatch" x1="288" y1="795.2904866594336" x2="312" y2="789.2904866594336"/><line class="hatch" x1="888" y1="795.2904866594336" x2="912" y2="789.2904866594336"/><line class="hatch" x1="288" y1="791.2904866594336" x2="312" y2="785.2904866594336"/><line class="hatch" x1="888" y1="791.2904866594336" x2="912" y2="785.2904866594336"/><line class="hatch" x1="288" y1="787.2904866594336" x2="312" y2="781.2904866594336"/><line class="hatch" x1="888" y1="787.2904866594336" x2="912" y2="781.2904866594336"/><line class="hatch" x1="288" y1="783.2904866594336" x2="312" y2="777.2904866594336"/><line class="hatch" x1="888" y1="783.2904866594336" x2="912" y2="777.2904866594336"/><line class="hatch" x1="288" y1="779.2904866594336" x2="312" y2="773.2904866594336"/><line class="hatch" x1="888" y1="779.2904866594336" x2="912" y2="773.2904866594336"/><line class="hatch" x1="288" y1="775.2904866594336" x2="312" y2="769.2904866594336"/><line class="hatch" x1="888" y1="775.2904866594336" x2="912" y2="769.2904866594336"/><line class="hatch" x1="288" y1="771.2904866594336" x2="312" y2="765.2904866594336"/><line class="hatch" x1="888" y1="771.2904866594336" x2="912" y2="765.2904866594336"/><line class="hatch" x1="288" y1="767.2904866594336" x2="312" y2="761.2904866594336"/><line class="hatch" x1="888" y1="767.2904866594336" x2="912" y2="761.2904866594336"/><line class="hatch" x1="288" y1="763.2904866594336" x2="312" y2="757.2904866594336"/><line class="hatch" x1="888" y1="763.2904866594336" x2="912" y2="757.2904866594336"/><line class="hatch" x1="288" y1="759.2904866594336" x2="312" y2="753.2904866594336"/><line class="hatch" x1="888" y1="759.2904866594336" x2="912" y2="753.2904866594336"/><line class="hatch" x1="288" y1="755.2904866594336" x2="312" y2="749.2904866594336"/><line class="hatch" x1="888" y1="755.2904866594336" x2="912" y2="749.2904866594336"/><line class="hatch" x1="288" y1="751.2904866594336" x2="312" y2="745.2904866594336"/><line class="hatch" x1="888" y1="751.2904866594336" x2="912" y2="745.2904866594336"/><line class="hatch" x1="288" y1="747.2904866594336" x2="312" y2="741.2904866594336"/><line class="hatch" x1="888" y1="747.2904866594336" x2="912" y2="741.2904866594336"/><line class="hatch" x1="288" y1="743.2904866594336" x2="312" y2="737.2904866594336"/><line class="hatch" x1="888" y1="743.2904866594336" x2="912" y2="737.2904866594336"/><line class="hatch" x1="288" y1="739.2904866594336" x2="312" y2="733.2904866594336"/><line class="hatch" x1="888" y1="739.2904866594336" x2="912" y2="733.2904866594336"/><line class="hatch" x1="288" y1="735.2904866594336" x2="312" y2="729.2904866594336"/><line class="hatch" x1="888" y1="735.2904866594336" x2="912" y2="729.2904866594336"/><line class="hatch" x1="288" y1="731.2904866594336" x2="312" y2="725.2904866594336"/><line class="hatch" x1="888" y1="731.2904866594336" x2="912" y2="725.2904866594336"/><line class="hatch" x1="288" y1="727.2904866594336" x2="312" y2="721.2904866594336"/><line class="hatch" x1="888" y1="727.2904866594336" x2="912" y2="721.2904866594336"/><line class="hatch" x1="288" y1="723.2904866594336" x2="312" y2="717.2904866594336"/><line class="hatch" x1="888" y1="723.2904866594336" x2="912" y2="717.2904866594336"/><line class="hatch" x1="288" y1="719.2904866594336" x2="312" y2="713.2904866594336"/><line class="hatch" x1="888" y1="719.2904866594336" x2="912" y2="713.2904866594336"/><line class="hatch" x1="288" y1="715.2904866594336" x2="312" y2="709.2904866594336"/><line class="hatch" x1="888" y1="715.2904866594336" x2="912" y2="709.2904866594336"/><line class="hatch" x1="288" y1="711.2904866594336" x2="312" y2="705.2904866594336"/><line class="hatch" x1="888" y1="711.2904866594336" x2="912" y2="705.2904866594336"/><line class="hatch" x1="288" y1="707.2904866594336" x2="312" y2="701.2904866594336"/><line class="hatch" x1="888" y1="707.2904866594336" x2="912" y2="701.2904866594336"/><line class="hatch" x1="288" y1="703.2904866594336" x2="312" y2="697.2904866594336"/><line class="hatch" x1="888" y1="703.2904866594336" x2="912" y2="697.2904866594336"/><line class="hatch" x1="288" y1="699.2904866594336" x2="312" y2="693.2904866594336"/><line class="hatch" x1="888" y1="699.2904866594336" x2="912" y2="693.2904866594336"/><line class="hatch" x1="288" y1="695.2904866594336" x2="312" y2="689.2904866594336"/><line class="hatch" x1="888" y1="695.2904866594336" x2="912" y2="689.2904866594336"/><line class="hatch" x1="288" y1="691.2904866594336" x2="312" y2="685.2904866594336"/><line class="hatch" x1="888" y1="691.2904866594336" x2="912" y2="685.2904866594336"/><line class="hatch" x1="288" y1="687.2904866594336" x2="312" y2="681.2904866594336"/><line class="hatch" x1="888" y1="687.2904866594336" x2="912" y2="681.2904866594336"/><line class="hatch" x1="288" y1="683.2904866594336" x2="312" y2="677.2904866594336"/><line class="hatch" x1="888" y1="683.2904866594336" x2="912" y2="677.2904866594336"/><line class="hatch" x1="288" y1="679.2904866594336" x2="312" y2="673.2904866594336"/><line class="hatch" x1="888" y1="679.2904866594336" x2="912" y2="673.2904866594336"/><line class="hatch" x1="288" y1="675.2904866594336" x2="312" y2="669.2904866594336"/><line class="hatch" x1="888" y1="675.2904866594336" x2="912" y2="669.2904866594336"/><line class="hatch" x1="288" y1="671.2904866594336" x2="312" y2="665.2904866594336"/><line class="hatch" x1="888" y1="671.2904866594336" x2="912" y2="665.2904866594336"/><line class="hatch" x1="288" y1="667.2904866594336" x2="312" y2="661.2904866594336"/><line class="hatch" x1="888" y1="667.2904866594336" x2="912" y2="661.2904866594336"/><line class="hatch" x1="288" y1="663.2904866594336" x2="312" y2="657.2904866594336"/><line class="hatch" x1="888" y1="663.2904866594336" x2="912" y2="657.2904866594336"/><line class="hatch" x1="288" y1="659.2904866594336" x2="312" y2="653.2904866594336"/><line class="hatch" x1="888" y1="659.2904866594336" x2="912" y2="653.2904866594336"/><line class="hatch" x1="288" y1="655.2904866594336" x2="312" y2="649.2904866594336"/><line class="hatch" x1="888" y1="655.2904866594336" x2="912" y2="649.2904866594336"/><line class="hatch" x1="288" y1="651.2904866594336" x2="312" y2="645.2904866594336"/><line class="hatch" x1="888" y1="651.2904866594336" x2="912" y2="645.2904866594336"/><line class="hatch" x1="288" y1="647.2904866594336" x2="312" y2="641.2904866594336"/><line class="hatch" x1="888" y1="647.2904866594336" x2="912" y2="641.2904866594336"/><line class="hatch" x1="288" y1="643.2904866594336" x2="312" y2="637.2904866594336"/><line class="hatch" x1="888" y1="643.2904866594336" x2="912" y2="637.2904866594336"/><line class="hatch" x1="288" y1="639.2904866594336" x2="312" y2="633.2904866594336"/><line class="hatch" x1="888" y1="639.2904866594336" x2="912" y2="633.2904866594336"/><line class="hatch" x1="288" y1="635.2904866594336" x2="312" y2="629.2904866594336"/><line class="hatch" x1="888" y1="635.2904866594336" x2="912" y2="629.2904866594336"/><line class="hatch" x1="288" y1="631.2904866594336" x2="312" y2="625.2904866594336"/><line class="hatch" x1="888" y1="631.2904866594336" x2="912" y2="625.2904866594336"/><line class="hatch" x1="288" y1="627.2904866594336" x2="312" y2="621.2904866594336"/><line class="hatch" x1="888" y1="627.2904866594336" x2="912" y2="621.2904866594336"/><line class="hatch" x1="288" y1="623.2904866594336" x2="312" y2="617.2904866594336"/><line class="hatch" x1="888" y1="623.2904866594336" x2="912" y2="617.2904866594336"/><line class="hatch" x1="288" y1="619.2904866594336" x2="312" y2="613.2904866594336"/><line class="hatch" x1="888" y1="619.2904866594336" x2="912" y2="613.2904866594336"/><line class="hatch" x1="288" y1="615.2904866594336" x2="312" y2="609.2904866594336"/><line class="hatch" x1="888" y1="615.2904866594336" x2="912" y2="609.2904866594336"/><line class="hatch" x1="288" y1="611.2904866594336" x2="312" y2="605.2904866594336"/><line class="hatch" x1="888" y1="611.2904866594336" x2="912" y2="605.2904866594336"/><line class="hatch" x1="288" y1="607.2904866594336" x2="312" y2="601.2904866594336"/><line class="hatch" x1="888" y1="607.2904866594336" x2="912" y2="601.2904866594336"/><line class="hatch" x1="288" y1="603.2904866594336" x2="312" y2="597.2904866594336"/><line class="hatch" x1="888" y1="603.2904866594336" x2="912" y2="597.2904866594336"/><line class="hatch" x1="288" y1="599.2904866594336" x2="312" y2="593.2904866594336"/><line class="hatch" x1="888" y1="599.2904866594336" x2="912" y2="593.2904866594336"/><line class="hatch" x1="288" y1="595.2904866594336" x2="312" y2="589.2904866594336"/><line class="hatch" x1="888" y1="595.2904866594336" x2="912" y2="589.2904866594336"/><line class="hatch" x1="288" y1="591.2904866594336" x2="312" y2="585.2904866594336"/><line class="hatch" x1="888" y1="591.2904866594336" x2="912" y2="585.2904866594336"/><line class="hatch" x1="288" y1="587.2904866594336" x2="312" y2="581.2904866594336"/><line class="hatch" x1="888" y1="587.2904866594336" x2="912" y2="581.2904866594336"/><line class="hatch" x1="288" y1="583.2904866594336" x2="312" y2="577.2904866594336"/><line class="hatch" x1="888" y1="583.2904866594336" x2="912" y2="577.2904866594336"/><line class="hatch" x1="288" y1="579.2904866594336" x2="312" y2="573.2904866594336"/><line class="hatch" x1="888" y1="579.2904866594336" x2="912" y2="573.2904866594336"/><line class="hatch" x1="288" y1="575.2904866594336" x2="312" y2="569.2904866594336"/><line class="hatch" x1="888" y1="575.2904866594336" x2="912" y2="569.2904866594336"/><line class="hatch" x1="288" y1="571.2904866594336" x2="312" y2="565.2904866594336"/><line class="hatch" x1="888" y1="571.2904866594336" x2="912" y2="565.2904866594336"/><line class="hatch" x1="288" y1="567.2904866594336" x2="312" y2="561.2904866594336"/><line class="hatch" x1="888" y1="567.2904866594336" x2="912" y2="561.2904866594336"/><line class="hatch" x1="288" y1="563.2904866594336" x2="312" y2="557.2904866594336"/><line class="hatch" x1="888" y1="563.2904866594336" x2="912" y2="557.2904866594336"/><line class="hatch" x1="288" y1="559.2904866594336" x2="312" y2="553.2904866594336"/><line class="hatch" x1="888" y1="559.2904866594336" x2="912" y2="553.2904866594336"/><line class="hatch" x1="288" y1="555.2904866594336" x2="312" y2="549.2904866594336"/><line class="hatch" x1="888" y1="555.2904866594336" x2="912" y2="549.2904866594336"/><line class="hatch" x1="288" y1="551.2904866594336" x2="312" y2="545.2904866594336"/><line class="hatch" x1="888" y1="551.2904866594336" x2="912" y2="545.2904866594336"/><line class="hatch" x1="288" y1="547.2904866594336" x2="312" y2="541.2904866594336"/><line class="hatch" x1="888" y1="547.2904866594336" x2="912" y2="541.2904866594336"/><line class="hatch" x1="288" y1="543.2904866594336" x2="312" y2="537.2904866594336"/><line class="hatch" x1="888" y1="543.2904866594336" x2="912" y2="537.2904866594336"/><line class="hatch" x1="288" y1="539.2904866594336" x2="312" y2="533.2904866594336"/><line class="hatch" x1="888" y1="539.2904866594336" x2="912" y2="533.2904866594336"/><line class="hatch" x1="288" y1="535.2904866594336" x2="312" y2="529.2904866594336"/><line class="hatch" x1="888" y1="535.2904866594336" x2="912" y2="529.2904866594336"/><line class="hatch" x1="288" y1="531.2904866594336" x2="312" y2="525.2904866594336"/><line class="hatch" x1="888" y1="531.2904866594336" x2="912" y2="525.2904866594336"/><line class="hatch" x1="288" y1="527.2904866594336" x2="312" y2="521.2904866594336"/><line class="hatch" x1="888" y1="527.2904866594336" x2="912" y2="521.2904866594336"/><line class="hatch" x1="288" y1="523.2904866594336" x2="312" y2="517.2904866594336"/><line class="hatch" x1="888" y1="523.2904866594336" x2="912" y2="517.2904866594336"/><line class="hatch" x1="288" y1="519.2904866594336" x2="312" y2="513.2904866594336"/><line class="hatch" x1="888" y1="519.2904866594336" x2="912" y2="513.2904866594336"/><line class="hatch" x1="288" y1="515.2904866594336" x2="312" y2="509.29048665943355"/><line class="hatch" x1="888" y1="515.2904866594336" x2="912" y2="509.29048665943355"/><line class="hatch" x1="288" y1="511.29048665943355" x2="312" y2="505.29048665943355"/><line class="hatch" x1="888" y1="511.29048665943355" x2="912" y2="505.29048665943355"/><line class="hatch" x1="288" y1="507.29048665943355" x2="312" y2="501.29048665943355"/><line class="hatch" x1="888" y1="507.29048665943355" x2="912" y2="501.29048665943355"/><line class="hatch" x1="288" y1="503.29048665943355" x2="312" y2="497.29048665943355"/><line class="hatch" x1="888" y1="503.29048665943355" x2="912" y2="497.29048665943355"/><line class="hatch" x1="288" y1="499.29048665943355" x2="312" y2="493.29048665943355"/><line class="hatch" x1="888" y1="499.29048665943355" x2="912" y2="493.29048665943355"/><line class="hatch" x1="288" y1="495.29048665943355" x2="312" y2="489.29048665943355"/><line class="hatch" x1="888" y1="495.29048665943355" x2="912" y2="489.29048665943355"/><line class="hatch" x1="288" y1="491.29048665943355" x2="312" y2="485.29048665943355"/><line class="hatch" x1="888" y1="491.29048665943355" x2="912" y2="485.29048665943355"/><line class="hatch" x1="288" y1="487.29048665943355" x2="312" y2="481.29048665943355"/><line class="hatch" x1="888" y1="487.29048665943355" x2="912" y2="481.29048665943355"/><line class="hatch" x1="288" y1="483.29048665943355" x2="312" y2="477.29048665943355"/><line class="hatch" x1="888" y1="483.29048665943355" x2="912" y2="477.29048665943355"/><line class="hatch" x1="288" y1="479.29048665943355" x2="312" y2="473.29048665943355"/><line class="hatch" x1="888" y1="479.29048665943355" x2="912" y2="473.29048665943355"/><line class="hatch" x1="288" y1="475.29048665943355" x2="312" y2="469.29048665943355"/><line class="hatch" x1="888" y1="475.29048665943355" x2="912" y2="469.29048665943355"/><line class="hatch" x1="288" y1="471.29048665943355" x2="312" y2="465.29048665943355"/><line class="hatch" x1="888" y1="471.29048665943355" x2="912" y2="465.29048665943355"/><line class="hatch" x1="288" y1="467.29048665943355" x2="312" y2="461.29048665943355"/><line class="hatch" x1="888" y1="467.29048665943355" x2="912" y2="461.29048665943355"/><line class="hatch" x1="288" y1="463.29048665943355" x2="312" y2="457.29048665943355"/><line class="hatch" x1="888" y1="463.29048665943355" x2="912" y2="457.29048665943355"/><line class="hatch" x1="288" y1="459.29048665943355" x2="312" y2="453.29048665943355"/><line class="hatch" x1="888" y1="459.29048665943355" x2="912" y2="453.29048665943355"/><line class="hatch" x1="288" y1="455.29048665943355" x2="312" y2="449.29048665943355"/><line class="hatch" x1="888" y1="455.29048665943355" x2="912" y2="449.29048665943355"/><line class="hatch" x1="288" y1="451.29048665943355" x2="312" y2="445.29048665943355"/><line class="hatch" x1="888" y1="451.29048665943355" x2="912" y2="445.29048665943355"/><line class="hatch" x1="288" y1="447.29048665943355" x2="312" y2="441.29048665943355"/><line class="hatch" x1="888" y1="447.29048665943355" x2="912" y2="441.29048665943355"/><line class="hatch" x1="288" y1="443.29048665943355" x2="312" y2="437.29048665943355"/><line class="hatch" x1="888" y1="443.29048665943355" x2="912" y2="437.29048665943355"/><line class="hatch" x1="288" y1="439.29048665943355" x2="312" y2="433.29048665943355"/><line class="hatch" x1="888" y1="439.29048665943355" x2="912" y2="433.29048665943355"/><line class="hatch" x1="288" y1="435.29048665943355" x2="312" y2="429.29048665943355"/><line class="hatch" x1="888" y1="435.29048665943355" x2="912" y2="429.29048665943355"/><line class="hatch" x1="288" y1="431.29048665943355" x2="312" y2="425.29048665943355"/><line class="hatch" x1="888" y1="431.29048665943355" x2="912" y2="425.29048665943355"/><line class="hatch" x1="288" y1="427.29048665943355" x2="312" y2="421.29048665943355"/><line class="hatch" x1="888" y1="427.29048665943355" x2="912" y2="421.29048665943355"/><line class="hatch" x1="288" y1="423.29048665943355" x2="312" y2="417.29048665943355"/><line class="hatch" x1="888" y1="423.29048665943355" x2="912" y2="417.29048665943355"/><line class="hatch" x1="288" y1="419.29048665943355" x2="312" y2="413.29048665943355"/><line class="hatch" x1="888" y1="419.29048665943355" x2="912" y2="413.29048665943355"/><line class="hatch" x1="288" y1="415.29048665943355" x2="312" y2="409.29048665943355"/><line class="hatch" x1="888" y1="415.29048665943355" x2="912" y2="409.29048665943355"/><line class="hatch" x1="288" y1="411.29048665943355" x2="312" y2="405.29048665943355"/><line class="hatch" x1="888" y1="411.29048665943355" x2="912" y2="405.29048665943355"/><line class="hatch" x1="288" y1="407.29048665943355" x2="312" y2="401.29048665943355"/><line class="hatch" x1="888" y1="407.29048665943355" x2="912" y2="401.29048665943355"/><line class="hatch" x1="288" y1="403.29048665943355" x2="312" y2="397.29048665943355"/><line class="hatch" x1="888" y1="403.29048665943355" x2="912" y2="397.29048665943355"/><line class="hatch" x1="288" y1="399.29048665943355" x2="312" y2="393.29048665943355"/><line class="hatch" x1="888" y1="399.29048665943355" x2="912" y2="393.29048665943355"/><line class="hatch" x1="288" y1="395.29048665943355" x2="312" y2="389.29048665943355"/><line class="hatch" x1="888" y1="395.29048665943355" x2="912" y2="389.29048665943355"/><line class="hatch" x1="288" y1="391.29048665943355" x2="312" y2="385.29048665943355"/><line class="hatch" x1="888" y1="391.29048665943355" x2="912" y2="385.29048665943355"/><line class="hatch" x1="288" y1="387.29048665943355" x2="312" y2="381.29048665943355"/><line class="hatch" x1="888" y1="387.29048665943355" x2="912" y2="381.29048665943355"/><line class="hatch" x1="288" y1="383.29048665943355" x2="312" y2="377.29048665943355"/><line class="hatch" x1="888" y1="383.29048665943355" x2="912" y2="377.29048665943355"/><line class="hatch" x1="288" y1="379.29048665943355" x2="312" y2="373.29048665943355"/><line class="hatch" x1="888" y1="379.29048665943355" x2="912" y2="373.29048665943355"/><line class="hatch" x1="288" y1="375.29048665943355" x2="312" y2="369.29048665943355"/><line class="hatch" x1="888" y1="375.29048665943355" x2="912" y2="369.29048665943355"/><line class="hatch" x1="288" y1="371.29048665943355" x2="312" y2="365.29048665943355"/><line class="hatch" x1="888" y1="371.29048665943355" x2="912" y2="365.29048665943355"/><line class="hatch" x1="288" y1="367.29048665943355" x2="312" y2="361.29048665943355"/><line class="hatch" x1="888" y1="367.29048665943355" x2="912" y2="361.29048665943355"/><line class="hatch" x1="288" y1="363.29048665943355" x2="312" y2="357.29048665943355"/><line class="hatch" x1="888" y1="363.29048665943355" x2="912" y2="357.29048665943355"/><line class="hatch" x1="288" y1="359.29048665943355" x2="312" y2="353.29048665943355"/><line class="hatch" x1="888" y1="359.29048665943355" x2="912" y2="353.29048665943355"/></g><g id="section-stairs"><line stroke="#666" stroke-width="1" x1="NaN" y1="NaN" x2="712" y2="NaN"/><path stroke="#333" stroke-width="1.5" fill="none" d="M 472 571.2904866594336 L 712 571.2904866594336 L 712 571.2904866594336 Z"/><text class="room-label" x="592" y="691.2904866594336">STAIR</text></g><g id="section-level-markers"><line stroke="#333" stroke-width="1" x1="232" y1="831.2904866594336" x2="232" y2="305.29048665943355"/><g id="section-ground-level"><polygon fill="#333" points="232,811.2904866594336 224,815.2904866594336 224,807.2904866594336"/><line class="level-marker" x1="224" y1="811.2904866594336" x2="194" y2="811.2904866594336"/><text class="level-text" x="190" y="815.2904866594336" text-anchor="end">±0.00</text></g><g id="section-floor-0-level"><polygon fill="#333" points="232,571.2904866594336 224,575.2904866594336 224,567.2904866594336"/><line class="level-marker" x1="224" y1="571.2904866594336" x2="194" y2="571.2904866594336"/><text class="level-text" x="190" y="575.2904866594336" text-anchor="end">+3.00</text></g><g id="section-floor-1-level"><polygon fill="#333" points="232,355.29048665943355 224,359.29048665943355 224,351.29048665943355"/><line class="level-marker" x1="224" y1="355.29048665943355" x2="194" y2="355.29048665943355"/><text class="level-text" x="190" y="359.29048665943355" text-anchor="end">+5.70</text></g><g id="section-ridge-level"><polygon fill="#333" points="232,50 224,54 224,46"/><line class="level-marker-dashed" x1="224" y1="50" x2="194" y2="50"/><text class="level-text" x="190" y="54" text-anchor="end">+9.52</text></g></g><path class="roof" d="M 312 355.29048665943355 L 888 355.29048665943355 Z"/><g id="section-dimensions"><g class="dimension" id="section-dim-total-height"><line stroke="#999" stroke-width="0.3" x1="936" y1="811.2904866594336" x2="946" y2="811.2904866594336"/><line stroke="#999" stroke-width="0.3" x1="936" y1="50" x2="946" y2="50"/><line x1="948" y1="811.2904866594336" x2="948" y2="50"/><polygon fill="#444" points="948,811.2904866594336 945,817.2904866594336 951,817.2904866594336"/><polygon fill="#444" points="948,50 945,44 951,44"/><text class="dimension-text" x="963" y="430.6452433297168" transform="rotate(-90, 963, 430.6452433297168)">9.52 m</text></g><g class="dimension" id="section-dim-floor-0"><line stroke="#999" stroke-width="0.3" x1="906" y1="811.2904866594336" x2="916" y2="811.2904866594336"/><line stroke="#999" stroke-width="0.3" x1="906" y1="571.2904866594336" x2="916" y2="571.2904866594336"/><line x1="918" y1="811.2904866594336" x2="918" y2="571.2904866594336"/><polygon fill="#444" points="918,811.2904866594336 915,817.2904866594336 921,817.2904866594336"/><polygon fill="#444" points="918,571.2904866594336 915,565.2904866594336 921,565.2904866594336"/><text class="dimension-text" x="933" y="691.2904866594336" transform="rotate(-90, 933, 691.2904866594336)">3.00 m</text></g><g class="dimension" id="section-dim-floor-1"><line stroke="#999" stroke-width="0.3" x1="906" y1="571.2904866594336" x2="916" y2="571.2904866594336"/><line stroke="#999" stroke-width="0.3" x1="906" y1="355.29048665943355" x2="916" y2="355.29048665943355"/><line x1="918" y1="571.2904866594336" x2="918" y2="355.29048665943355"/><polygon fill="#444" points="918,571.2904866594336 915,577.2904866594336 921,577.2904866594336"/><polygon fill="#444" points="918,355.29048665943355 915,349.29048665943355 921,349.29048665943355"/><text class="dimension-text" x="933" y="463.29048665943355" transform="rotate(-90, 933, 463.29048665943355)">2.70 m</text></g></g><g id="title-block"><rect x="1010" y="901.2904866594336" width="180" height="40" fill="#ffffff" stroke="#333" stroke-width="1"/><line x1="1010" y1="921.2904866594336" x2="1190" y2="921.2904866594336" stroke="#333" stroke-width="0.5"/><text x="1015" y="915.2904866594336" font-family="Arial, sans-serif" font-size="9" font-weight="700" fill="#333">Section B-B</text><text x="1015" y="934.2904866594336" font-family="Arial, sans-serif" font-size="7" fill="#666">Dwg: A-301</text><text x="1185" y="934.2904866594336" font-family="Arial, sans-serif" font-size="7" fill="#666" text-anchor="end">Scale 1:12.5</text></g></svg>